<svg width="1211" height="842" viewBox="0 0 1211 842" fill="none" xmlns="http://www.w3.org/2000/svg">
<ellipse cx="605.263" cy="797.818" rx="604.913" ry="44.0737" fill="#E2E6E8"/>
<path d="M34.5364 35.7386L34.536 663.215H1171.51V106.521L34.5364 35.7386Z" fill="url(#paint0_linear_135_885)"/>
<path d="M34.536 35.7386L34.536 661.641H122.913V42.087L34.536 35.7386Z" fill="#8D8D8D" fill-opacity="0.1"/>
<path d="M281.213 50.8225L281.213 663.215H369.591V57.0339L281.213 50.8225Z" fill="#8D8D8D" fill-opacity="0.1"/>
<path d="M612.315 72.6028L612.315 663.215H700.693V78.5932L612.315 72.6028Z" fill="#8D8D8D" fill-opacity="0.1"/>
<path d="M944.736 85.5319L944.736 664.324H1033.11V91.4024L944.736 85.5319Z" fill="#8D8D8D" fill-opacity="0.1"/>
<path d="M30.4821 147.053L1171.15 147.053" stroke="#F2EEE7" stroke-width="20.0096"/>
<path d="M30.4821 142.618L1171.15 142.618" stroke="white" stroke-width="20.0096"/>
<path d="M30.4821 312.983L1171.15 312.983" stroke="#F2EEE7" stroke-width="20.0096"/>
<path d="M30.4821 308.548L1171.15 308.549" stroke="white" stroke-width="20.0096"/>
<path d="M29.6857 508.551L1170.36 508.551" stroke="#F2EEE7" stroke-width="20.0096"/>
<path d="M29.6859 504.116L1170.36 504.116" stroke="white" stroke-width="20.0096"/>
<path d="M32.4598 666.375L1173.13 666.375" stroke="white" stroke-width="20.0096"/>
<path d="M44.9039 35.0282L1185.38 115.839" stroke="#F2EEE7" stroke-width="20.0096"/>
<path d="M28.607 29.5275L1185.2 111.533" stroke="white" stroke-width="20.0096"/>
<path d="M37.0223 19.4332L36.5834 783.291" stroke="white" stroke-width="20.0096"/>
<path d="M273.847 54.6649L272.679 783.83" stroke="white" stroke-width="20.0096"/>
<path d="M938.77 102.242L938.77 784.209" stroke="white" stroke-width="20.0096"/>
<path d="M605.263 508.423L605.263 785.727M606.751 76.8005L607.771 315.831" stroke="white" stroke-width="20.0096"/>
<path d="M1177.3 102.736L1177.3 784.657" stroke="white" stroke-width="20.2333"/>
<rect x="774.407" y="277.776" width="115.448" height="21.5827" rx="7.8082" fill="#90A7B7"/>
<rect x="787.221" y="277.776" width="6.90043" height="21.5855" fill="#55788F"/>
<rect x="870.077" y="277.776" width="6.90043" height="21.5855" fill="#55788F"/>
<path d="M856.192 224.244C856.192 210.955 845.42 200.183 832.131 200.183C818.842 200.183 808.07 210.955 808.07 224.244V277.776H856.192V224.244Z" fill="url(#paint1_linear_135_885)"/>
<path opacity="0.6" d="M808.07 249.66H856.304" stroke="#67522B" stroke-width="2.36505"/>
<path opacity="0.6" d="M808.07 255.06H856.304" stroke="#67522B" stroke-width="2.36505"/>
<path opacity="0.6" d="M808.07 260.46H856.304" stroke="#67522B" stroke-width="2.36505"/>
<path opacity="0.6" d="M807.959 244.26H856.193" stroke="#67522B" stroke-width="2.36505"/>
<path opacity="0.6" d="M807.959 276.661H856.193" stroke="#67522B" stroke-width="2.36505"/>
<path opacity="0.6" d="M807.959 265.86H856.193" stroke="#67522B" stroke-width="2.36505"/>
<path opacity="0.6" d="M808.07 271.261H856.304" stroke="#67522B" stroke-width="2.36505"/>
<g filter="url(#filter0_d_135_885)">
<circle cx="832.131" cy="223.319" r="17.2559" fill="url(#paint2_linear_135_885)"/>
</g>
<path d="M825.293 228.291L832.131 224.597V212.704" stroke="#323D51" stroke-width="1.18252"/>
<path d="M830.499 197.566H831.042V196.016L830.574 196.374L830.361 196.09L831.17 195.473H831.482V197.566H832.014V197.956H830.499V197.566ZM831.979 221.956H830.397V221.612C830.425 221.588 830.46 221.558 830.503 221.52C830.546 221.48 830.593 221.435 830.645 221.385C830.699 221.335 830.756 221.281 830.815 221.222C830.874 221.163 830.932 221.101 830.989 221.037C831.069 220.947 831.139 220.866 831.198 220.793C831.26 220.719 831.309 220.651 831.347 220.587C831.387 220.521 831.417 220.457 831.436 220.395C831.455 220.331 831.464 220.266 831.464 220.2C831.464 220.153 831.454 220.107 831.432 220.062C831.411 220.017 831.382 219.978 831.344 219.945C831.306 219.909 831.26 219.882 831.205 219.863C831.153 219.842 831.095 219.831 831.032 219.831C830.946 219.831 830.868 219.844 830.797 219.87C830.729 219.896 830.657 219.94 830.581 220.001L830.397 219.675C830.496 219.604 830.606 219.545 830.726 219.498C830.849 219.448 830.99 219.423 831.149 219.423C831.25 219.423 831.347 219.437 831.44 219.466C831.534 219.494 831.617 219.537 831.688 219.593C831.761 219.648 831.819 219.716 831.862 219.799C831.904 219.882 831.926 219.978 831.926 220.087C831.926 220.162 831.918 220.233 831.904 220.299C831.892 220.363 831.872 220.428 831.844 220.495C831.818 220.558 831.782 220.625 831.737 220.693C831.695 220.762 831.643 220.836 831.581 220.917C831.534 220.978 831.482 221.041 831.425 221.105C831.371 221.166 831.317 221.225 831.262 221.282C831.208 221.339 831.153 221.392 831.099 221.442C831.047 221.491 831 221.533 830.957 221.566H831.979V221.956Z" fill="#323D51"/>
<path d="M833.005 238.048C833.005 238.164 832.982 238.272 832.937 238.371C832.895 238.47 832.835 238.557 832.76 238.63C832.684 238.703 832.593 238.761 832.487 238.804C832.383 238.846 832.27 238.868 832.15 238.868C832.027 238.868 831.911 238.849 831.802 238.811C831.695 238.771 831.602 238.712 831.522 238.634C831.441 238.556 831.377 238.457 831.33 238.339C831.283 238.221 831.259 238.084 831.259 237.928C831.259 237.693 831.299 237.481 831.38 237.289C831.463 237.097 831.568 236.932 831.695 236.792C831.823 236.65 831.966 236.537 832.125 236.452C832.283 236.364 832.44 236.309 832.597 236.285L832.699 236.65C832.574 236.674 832.457 236.713 832.348 236.768C832.239 236.82 832.142 236.883 832.057 236.959C831.972 237.035 831.9 237.119 831.841 237.211C831.784 237.303 831.745 237.399 831.724 237.498C831.771 237.439 831.842 237.39 831.937 237.349C832.031 237.307 832.135 237.286 832.249 237.286C832.355 237.286 832.455 237.303 832.547 237.339C832.639 237.372 832.718 237.421 832.785 237.488C832.853 237.552 832.906 237.631 832.944 237.725C832.984 237.82 833.005 237.928 833.005 238.048ZM832.558 238.066C832.558 237.938 832.519 237.841 832.44 237.775C832.365 237.709 832.262 237.676 832.132 237.676C832.037 237.676 831.952 237.697 831.876 237.74C831.801 237.782 831.745 237.832 831.71 237.889C831.705 237.915 831.701 237.944 831.699 237.977C831.699 238.008 831.699 238.033 831.699 238.052C831.699 238.109 831.709 238.163 831.727 238.215C831.746 238.267 831.774 238.313 831.809 238.353C831.847 238.391 831.892 238.422 831.944 238.446C831.996 238.467 832.056 238.477 832.125 238.477C832.179 238.477 832.232 238.468 832.284 238.449C832.336 238.428 832.383 238.399 832.423 238.364C832.463 238.328 832.495 238.286 832.519 238.236C832.545 238.184 832.558 238.127 832.558 238.066Z" fill="#323D51"/>
<path d="M816.918 221.791C816.918 221.671 816.938 221.559 816.979 221.458C817.021 221.356 817.079 221.27 817.152 221.199C817.228 221.125 817.318 221.069 817.422 221.028C817.528 220.986 817.647 220.965 817.777 220.965C817.909 220.965 818.03 220.985 818.139 221.025C818.247 221.065 818.341 221.125 818.419 221.206C818.497 221.284 818.557 221.382 818.6 221.5C818.642 221.616 818.664 221.75 818.664 221.901C818.664 222.175 818.628 222.412 818.557 222.611C818.486 222.809 818.391 222.975 818.27 223.107C818.152 223.24 818.013 223.341 817.855 223.412C817.696 223.483 817.531 223.528 817.358 223.547L817.259 223.185C817.389 223.169 817.506 223.137 817.61 223.09C817.716 223.042 817.809 222.984 817.887 222.916C817.965 222.845 818.029 222.766 818.078 222.678C818.128 222.588 818.16 222.492 818.174 222.391C818.124 222.44 818.061 222.481 817.983 222.511C817.904 222.54 817.811 222.554 817.702 222.554H817.695C817.605 222.554 817.514 222.539 817.422 222.508C817.33 222.477 817.246 222.43 817.17 222.366C817.097 222.302 817.037 222.223 816.989 222.128C816.942 222.031 816.918 221.919 816.918 221.791ZM817.365 221.766C817.365 221.833 817.377 221.892 817.401 221.944C817.427 221.993 817.46 222.036 817.5 222.071C817.54 222.105 817.586 222.131 817.638 222.149C817.693 222.166 817.748 222.174 817.805 222.174C817.902 222.174 817.986 222.159 818.057 222.128C818.128 222.097 818.18 222.06 818.213 222.015C818.22 221.965 818.224 221.918 818.224 221.873C818.224 221.807 818.214 221.742 818.195 221.678C818.176 221.614 818.148 221.557 818.11 221.507C818.072 221.458 818.025 221.419 817.968 221.39C817.912 221.36 817.847 221.344 817.773 221.344C817.657 221.344 817.56 221.382 817.482 221.458C817.404 221.531 817.365 221.634 817.365 221.766Z" fill="#323D51"/>
<path d="M846.222 223.157C846.3 223.157 846.371 223.148 846.435 223.129C846.501 223.107 846.557 223.079 846.601 223.043C846.649 223.006 846.685 222.963 846.711 222.916C846.737 222.866 846.75 222.813 846.75 222.756C846.75 222.685 846.735 222.626 846.704 222.579C846.676 222.529 846.636 222.49 846.584 222.462C846.532 222.433 846.469 222.413 846.396 222.401C846.322 222.39 846.243 222.384 846.158 222.384H845.959V222.132L846.555 221.404H845.658V221.014H847.105V221.337L846.481 222.05H846.562C846.645 222.05 846.726 222.064 846.804 222.093C846.882 222.121 846.95 222.164 847.009 222.22C847.071 222.277 847.119 222.348 847.155 222.433C847.193 222.518 847.212 222.617 847.212 222.728C847.212 222.863 847.183 222.981 847.126 223.082C847.072 223.184 846.999 223.271 846.907 223.341C846.817 223.41 846.713 223.462 846.594 223.498C846.476 223.531 846.354 223.547 846.229 223.547C846.123 223.547 846.016 223.538 845.91 223.519C845.803 223.5 845.7 223.47 845.601 223.43L845.725 223.047C845.746 223.059 845.775 223.071 845.81 223.082C845.848 223.094 845.89 223.106 845.934 223.118C845.982 223.13 846.029 223.139 846.076 223.146C846.126 223.153 846.175 223.157 846.222 223.157Z" fill="#323D51"/>
<rect x="643.645" y="171.071" width="128.454" height="26.9317" rx="7.8082" transform="rotate(90 643.645 171.071)" fill="#E5B39F"/>
<rect x="639.805" y="184.098" width="11.4068" height="19.2516" rx="2.92808" transform="rotate(90 639.805 184.098)" fill="#C0856E"/>
<rect x="643.647" y="299.525" width="121.559" height="35.8796" rx="7.8082" transform="rotate(-90 643.647 299.525)" fill="#28415B"/>
<rect x="643.645" y="282.76" width="3.66286" height="35.883" transform="rotate(-90 643.645 282.76)" fill="#1A2E43"/>
<rect x="643.645" y="288.315" width="3.66286" height="35.883" transform="rotate(-90 643.645 288.315)" fill="#1A2E43"/>
<rect x="643.645" y="193.013" width="3.66286" height="35.883" transform="rotate(-90 643.645 193.013)" fill="#1A2E43"/>
<rect x="653.065" y="270.842" width="64.194" height="17.0431" rx="4.91643" transform="rotate(-90 653.065 270.842)" fill="#1A2E43"/>
<rect x="698.254" y="169.345" width="129.286" height="21.5827" rx="7.8082" transform="rotate(80.5221 698.254 169.345)" fill="#714B71"/>
<rect x="700.617" y="183.499" width="7.72757" height="21.5855" transform="rotate(80.5221 700.617 183.499)" fill="#462546"/>
<rect x="715.896" y="275.02" width="7.72757" height="21.5855" transform="rotate(80.5221 715.896 275.02)" fill="#462546"/>
<rect x="662.432" y="527.954" width="129.286" height="21.5827" rx="7.8082" transform="rotate(90 662.432 527.954)" fill="#714B71"/>
<rect x="662.432" y="542.304" width="7.72757" height="21.5855" transform="rotate(90 662.432 542.304)" fill="#462546"/>
<rect x="662.432" y="635.091" width="7.72757" height="21.5855" transform="rotate(90 662.432 635.091)" fill="#462546"/>
<rect x="689.363" y="528.786" width="128.454" height="26.9317" rx="7.8082" transform="rotate(90 689.363 528.786)" fill="#5E7959"/>
<rect x="685.523" y="541.814" width="11.4068" height="19.2516" rx="2.92808" transform="rotate(90 685.523 541.814)" fill="#384C34"/>
<rect x="689.365" y="657.24" width="121.559" height="35.8796" rx="7.8082" transform="rotate(-90 689.365 657.24)" fill="#28415B"/>
<rect x="689.363" y="640.476" width="3.66286" height="35.883" transform="rotate(-90 689.363 640.476)" fill="#1A2E43"/>
<rect x="689.363" y="646.031" width="3.66286" height="35.883" transform="rotate(-90 689.363 646.031)" fill="#1A2E43"/>
<rect x="689.363" y="550.729" width="3.66286" height="35.883" transform="rotate(-90 689.363 550.729)" fill="#1A2E43"/>
<rect x="698.783" y="628.558" width="64.194" height="17.0431" rx="4.91643" transform="rotate(-90 698.783 628.558)" fill="#1A2E43"/>
<rect x="820.03" y="542.37" width="115.448" height="21.5827" rx="7.8082" transform="rotate(70.884 820.03 542.37)" fill="#E5B39F"/>
<rect x="824.064" y="554.689" width="3.47872" height="21.5855" transform="rotate(70.884 824.064 554.689)" fill="#C0856E"/>
<rect x="851.314" y="633.312" width="3.47872" height="21.5855" transform="rotate(70.884 851.314 633.312)" fill="#C0856E"/>
<rect x="827.86" y="582.474" width="37.7797" height="10.5612" rx="3.04659" transform="rotate(70.884 827.86 582.474)" fill="#C0856E"/>
<rect x="993.426" y="222.388" width="115.448" height="21.5827" rx="7.8082" fill="#28415B"/>
<rect x="1008.06" y="222.387" width="3.47872" height="21.5855" fill="#1A2E43"/>
<rect x="1091.27" y="222.387" width="3.47872" height="21.5855" fill="#1A2E43"/>
<rect x="1035.56" y="227.899" width="37.7797" height="10.5612" rx="3.04659" fill="#1A2E43"/>
<rect x="994.915" y="277.573" width="115.448" height="21.5827" rx="7.8082" fill="#E5B39F"/>
<rect x="1007.73" y="277.573" width="6.90043" height="21.5855" fill="#C0856E"/>
<rect x="1090.58" y="277.573" width="6.90043" height="21.5855" fill="#C0856E"/>
<path d="M990.543 260.753C990.543 251.485 998.057 243.972 1007.32 243.972H1096.52C1100.83 243.972 1104.33 247.468 1104.33 251.78V269.726C1104.33 274.039 1100.83 277.535 1096.52 277.535H1007.32C998.057 277.535 990.543 270.021 990.543 260.753Z" fill="#5E7959"/>
<path d="M997.969 260.753C997.969 255.23 1002.45 250.752 1007.97 250.752H1104.33V270.755H1007.97C1002.45 270.755 997.969 266.277 997.969 260.753Z" fill="url(#paint3_linear_135_885)"/>
<path d="M1089.03 250.751V253.651C1089.03 253.751 1089.03 253.855 1089.03 253.964V280.966C1089.03 282.864 1089.03 283.814 1088.49 284.329C1088.36 284.453 1088.21 284.557 1088.05 284.636C1087.38 284.964 1086.49 284.637 1084.71 283.982L1080.82 282.555C1080.32 282.372 1080.07 282.28 1079.81 282.265C1079.75 282.262 1079.68 282.262 1079.61 282.265C1079.36 282.28 1079.11 282.372 1078.61 282.555L1074.72 283.982C1072.94 284.637 1072.05 284.964 1071.38 284.636C1071.22 284.557 1071.07 284.453 1070.94 284.329C1070.4 283.814 1070.4 282.864 1070.4 280.966V253.964C1070.4 253.855 1070.4 253.751 1070.4 253.651V250.751H1089.03Z" fill="url(#paint4_linear_135_885)"/>
<rect x="104.219" y="528.483" width="129.286" height="21.5827" rx="7.8082" transform="rotate(90 104.219 528.483)" fill="#714B71"/>
<rect x="104.219" y="542.833" width="7.72757" height="21.5855" transform="rotate(90 104.219 542.833)" fill="#462546"/>
<rect x="104.219" y="635.62" width="7.72757" height="21.5855" transform="rotate(90 104.219 635.62)" fill="#462546"/>
<rect x="131.151" y="529.315" width="128.454" height="26.9317" rx="7.8082" transform="rotate(90 131.151 529.315)" fill="#5E7959"/>
<rect x="127.311" y="542.343" width="11.4068" height="19.2516" rx="2.92808" transform="rotate(90 127.311 542.343)" fill="#384C34"/>
<rect x="131.153" y="657.769" width="121.559" height="35.8796" rx="7.8082" transform="rotate(-90 131.153 657.769)" fill="#28415B"/>
<rect x="131.151" y="641.005" width="3.66286" height="35.883" transform="rotate(-90 131.151 641.005)" fill="#1A2E43"/>
<rect x="131.151" y="646.56" width="3.66286" height="35.883" transform="rotate(-90 131.151 646.56)" fill="#1A2E43"/>
<rect x="131.151" y="551.258" width="3.66286" height="35.883" transform="rotate(-90 131.151 551.258)" fill="#1A2E43"/>
<rect x="140.571" y="629.087" width="64.194" height="17.0431" rx="4.91643" transform="rotate(-90 140.571 629.087)" fill="#1A2E43"/>
<rect x="185.703" y="543.295" width="115.448" height="21.5827" rx="7.8082" transform="rotate(70.884 185.703 543.295)" fill="#E5B39F"/>
<rect x="189.737" y="555.614" width="3.47872" height="21.5855" transform="rotate(70.884 189.737 555.614)" fill="#C0856E"/>
<rect x="216.987" y="634.238" width="3.47872" height="21.5855" transform="rotate(70.884 216.987 634.238)" fill="#C0856E"/>
<rect x="193.533" y="583.399" width="37.7797" height="10.5612" rx="3.04659" transform="rotate(70.884 193.533 583.399)" fill="#C0856E"/>
<rect x="1105.63" y="530.182" width="128.454" height="27.0849" rx="7.8082" transform="rotate(68.5307 1105.63 530.182)" fill="#5E7959"/>
<rect x="1106.81" y="543.719" width="11.4068" height="19.3611" rx="2.92808" transform="rotate(68.5307 1106.81 543.719)" fill="#384C34"/>
<path d="M972.877 605.917H1083.79V653.969C1083.79 655.779 1082.32 657.246 1080.51 657.246H976.153C974.344 657.246 972.877 655.779 972.877 653.969V605.917Z" fill="url(#paint5_linear_135_885)"/>
<g filter="url(#filter1_d_135_885)">
<rect x="967.967" y="584.939" width="120.733" height="20.9777" rx="3.2765" fill="#E8B8A5"/>
</g>
<rect x="1014.44" y="591.766" width="27.7832" height="7.32465" rx="0.819125" fill="#E8B8A5" stroke="#C0856E" stroke-width="1.63825"/>
<path d="M1012.88 554.197H1079.48V583.048C1079.48 584.134 1078.6 585.015 1077.51 585.015H1014.85C1013.76 585.015 1012.88 584.134 1012.88 583.048V554.197Z" fill="url(#paint6_linear_135_885)"/>
<g filter="url(#filter2_d_135_885)">
<rect x="1009.93" y="541.601" width="72.4908" height="12.5954" rx="1.96727" fill="#90A7B7"/>
</g>
<rect x="1037.84" y="545.7" width="16.6816" height="4.39786" rx="0.491819" fill="#90A7B7" stroke="#55788F" stroke-width="0.983637"/>
<rect x="404.855" y="555.49" width="93.9744" height="17.5683" rx="6.35587" fill="#E5B39F"/>
<rect x="415.286" y="555.49" width="5.61694" height="17.5706" fill="#C0856E"/>
<rect x="482.73" y="555.49" width="5.61694" height="17.5706" fill="#C0856E"/>
<rect x="391.931" y="635.976" width="115.448" height="21.5827" rx="7.8082" fill="#90A7B7"/>
<rect x="403.116" y="635.974" width="3.47872" height="21.5855" fill="#55788F"/>
<rect x="403.116" y="635.974" width="3.47872" height="21.5855" fill="#55788F"/>
<rect x="492.431" y="635.974" width="3.47872" height="21.5855" fill="#55788F"/>
<rect x="492.431" y="635.974" width="3.47872" height="21.5855" fill="#55788F"/>
<rect x="400.196" y="600.861" width="115.448" height="35.8796" rx="7.8082" fill="#714B71"/>
<rect x="416.118" y="600.86" width="3.47872" height="35.883" fill="#462546"/>
<rect x="410.842" y="600.86" width="3.47872" height="35.883" fill="#462546"/>
<rect x="501.353" y="600.86" width="3.47872" height="35.883" fill="#462546"/>
<rect x="427.437" y="610.28" width="60.9669" height="17.0431" rx="4.91643" fill="#462546"/>
<path d="M408.871 587.829C408.871 579.673 415.483 573.061 423.64 573.061H501.199C505.512 573.061 509.007 576.557 509.007 580.869V594.789C509.007 599.102 505.512 602.597 501.199 602.597H423.64C415.483 602.597 408.871 595.985 408.871 587.829Z" fill="#5E7959"/>
<path d="M415.406 587.829C415.406 582.969 419.346 579.028 424.207 579.028H509.007V596.631H424.207C419.346 596.631 415.406 592.69 415.406 587.829Z" fill="url(#paint7_linear_135_885)"/>
<path d="M495.54 579.027V581.579C495.54 581.667 495.54 581.759 495.54 581.854V605.617C495.54 607.288 495.54 608.123 495.065 608.577C494.951 608.686 494.821 608.777 494.679 608.847C494.089 609.136 493.305 608.848 491.737 608.272L488.319 607.016C487.879 606.854 487.659 606.774 487.43 606.761C487.373 606.757 487.315 606.757 487.257 606.761C487.029 606.774 486.809 606.854 486.369 607.016L482.95 608.272C481.382 608.848 480.598 609.136 480.008 608.847C479.866 608.777 479.736 608.686 479.622 608.577C479.148 608.123 479.148 607.288 479.148 605.617V581.854C479.148 581.759 479.147 581.667 479.148 581.579V579.027H495.54Z" fill="url(#paint8_linear_135_885)"/>
<rect x="57.1696" y="477.595" width="92.0207" height="17.2031" rx="6.22373" fill="#5E7959"/>
<rect x="66.0851" y="477.593" width="2.77281" height="17.2053" fill="#384C34"/>
<rect x="66.0851" y="477.593" width="2.77281" height="17.2053" fill="#384C34"/>
<rect x="137.276" y="477.593" width="2.77281" height="17.2053" fill="#384C34"/>
<rect x="137.276" y="477.593" width="2.77281" height="17.2053" fill="#384C34"/>
<path d="M105.473 373.405C106.267 364.344 100.633 367.536 100.924 371.891C90.8549 369.621 91.8933 374.611 96.2009 376.226C88.2105 384.109 95.5214 382.763 100.425 381.105C101.625 391.195 108.017 388.233 106.267 380.168C115.017 381.556 111.402 373.405 105.473 373.405Z" fill="#5E7959"/>
<path d="M88.499 413.065C88.499 406.005 93.5936 387.484 100.54 380.754" stroke="#5E7959" stroke-width="1.40523"/>
<path d="M106.245 457.237H76.1302C76.3997 441.27 76.8222 407.861 85.2254 403.272H96.948C105.356 407.314 106.649 440.933 106.245 457.237Z" fill="#1A2E43"/>
<rect x="63.1158" y="457.236" width="89.2504" height="20.8204" rx="7.8082" fill="#E5B39F"/>
<rect x="72.1675" y="460.205" width="7.92553" height="14.883" rx="2.92808" fill="#C0856E"/>
<rect x="88.3903" y="277.367" width="130.119" height="22.2076" rx="7.8082" fill="#90A7B7"/>
<rect x="100.996" y="277.365" width="3.92079" height="22.2104" fill="#55788F"/>
<rect x="100.996" y="277.365" width="3.92079" height="22.2104" fill="#55788F"/>
<rect x="201.661" y="277.365" width="3.92079" height="22.2104" fill="#55788F"/>
<rect x="201.661" y="277.365" width="3.92079" height="22.2104" fill="#55788F"/>
<rect x="95.7257" y="219.898" width="115.448" height="21.5827" rx="7.8082" fill="#28415B"/>
<rect x="108.539" y="219.898" width="6.90043" height="21.5855" fill="#1A2E43"/>
<rect x="191.396" y="219.898" width="6.90043" height="21.5855" fill="#1A2E43"/>
<rect x="211.173" y="277.365" width="115.448" height="35.8796" rx="7.8082" transform="rotate(-180 211.173 277.365)" fill="#FADDD2"/>
<rect x="195.252" y="277.367" width="3.47872" height="35.883" transform="rotate(-180 195.252 277.367)" fill="#C0856E"/>
<rect x="200.528" y="277.367" width="3.47872" height="35.883" transform="rotate(-180 200.528 277.367)" fill="#C0856E"/>
<rect x="110.017" y="277.367" width="3.47872" height="35.883" transform="rotate(-180 110.017 277.367)" fill="#C0856E"/>
<rect x="183.933" y="267.947" width="60.9669" height="17.0431" rx="4.91643" transform="rotate(-180 183.933 267.947)" fill="#C0856E"/>
<rect x="283.206" y="298.013" width="115.448" height="35.8796" rx="7.8082" transform="rotate(-90 283.206 298.013)" fill="#5E7959"/>
<rect x="283.204" y="282.091" width="3.47872" height="35.883" transform="rotate(-90 283.204 282.091)" fill="#384C34"/>
<rect x="283.204" y="287.367" width="3.47872" height="35.883" transform="rotate(-90 283.204 287.367)" fill="#384C34"/>
<rect x="283.204" y="196.856" width="3.47872" height="35.883" transform="rotate(-90 283.204 196.856)" fill="#384C34"/>
<rect x="292.624" y="270.772" width="60.9669" height="17.0431" rx="4.91643" transform="rotate(-90 292.624 270.772)" fill="#384C34"/>
<rect x="322.469" y="298.519" width="115.448" height="35.8796" rx="7.8082" transform="rotate(-91.7052 322.469 298.519)" fill="#90A7B7"/>
<rect x="321.994" y="282.605" width="3.47872" height="35.883" transform="rotate(-91.7052 321.994 282.605)" fill="#55788F"/>
<rect x="322.151" y="287.879" width="3.47872" height="35.883" transform="rotate(-91.7052 322.151 287.879)" fill="#55788F"/>
<rect x="319.458" y="197.408" width="3.47872" height="35.883" transform="rotate(-91.7052 319.458 197.408)" fill="#55788F"/>
<rect x="331.073" y="271.011" width="60.9669" height="17.0431" rx="4.91643" transform="rotate(-91.7052 331.073 271.011)" fill="#55788F"/>
<rect x="392.891" y="299.829" width="115.448" height="35.8796" rx="7.8082" transform="rotate(-110.104 392.891 299.829)" fill="#714B71"/>
<rect x="387.417" y="284.878" width="3.47872" height="35.883" transform="rotate(-110.104 387.417 284.878)" fill="#462546"/>
<rect x="389.23" y="289.832" width="3.47872" height="35.883" transform="rotate(-110.104 389.23 289.832)" fill="#462546"/>
<rect x="358.12" y="204.836" width="3.47872" height="35.883" transform="rotate(-110.104 358.12 204.836)" fill="#462546"/>
<rect x="392.373" y="271.011" width="60.9669" height="17.0431" rx="4.91643" transform="rotate(-110.104 392.373 271.011)" fill="#462546"/>
<rect x="465.364" y="250.144" width="115.448" height="26.9317" rx="7.8082" fill="#90A7B7"/>
<rect x="477.073" y="253.984" width="10.2519" height="19.2516" rx="2.92808" fill="#55788F"/>
<path d="M468.238 233.293C468.238 224.025 475.751 216.512 485.019 216.512H574.216C578.528 216.512 582.024 220.008 582.024 224.32V242.267C582.024 246.579 578.528 250.075 574.216 250.075H485.019C475.751 250.075 468.238 242.561 468.238 233.293Z" fill="#384C34"/>
<path d="M475.663 233.293C475.663 227.77 480.141 223.292 485.664 223.292H582.024V243.295H485.664C480.141 243.295 475.663 238.817 475.663 233.293Z" fill="url(#paint9_linear_135_885)"/>
<path d="M509.461 223.292V226.193C509.461 226.293 509.461 226.397 509.461 226.505V253.508C509.461 255.406 509.461 256.355 508.922 256.871C508.792 256.995 508.644 257.099 508.483 257.178C507.813 257.506 506.922 257.179 505.14 256.524L501.255 255.097C500.755 254.914 500.505 254.822 500.246 254.807C500.18 254.803 500.115 254.803 500.049 254.807C499.79 254.822 499.54 254.914 499.04 255.097L495.155 256.524C493.373 257.179 492.482 257.506 491.812 257.178C491.651 257.099 491.503 256.995 491.373 256.871C490.834 256.355 490.834 255.406 490.834 253.508V226.505C490.834 226.397 490.834 226.293 490.834 226.193V223.292H509.461Z" fill="url(#paint10_linear_135_885)"/>
<rect x="469.323" y="277.272" width="115.448" height="21.5827" rx="7.8082" fill="#28415B"/>
<rect x="483.958" y="277.271" width="3.47872" height="21.5855" fill="#1A2E43"/>
<rect x="567.17" y="277.271" width="3.47872" height="21.5855" fill="#1A2E43"/>
<rect x="511.455" y="282.783" width="37.7797" height="10.5612" rx="3.04659" fill="#1A2E43"/>
<rect x="479.12" y="199.308" width="92.0207" height="17.2031" rx="6.22373" fill="#5E7959"/>
<rect x="488.036" y="199.307" width="2.77281" height="17.2053" fill="#384C34"/>
<rect x="488.036" y="199.307" width="2.77281" height="17.2053" fill="#384C34"/>
<rect x="559.226" y="199.307" width="2.77281" height="17.2053" fill="#384C34"/>
<rect x="559.226" y="199.307" width="2.77281" height="17.2053" fill="#384C34"/>
<rect x="725.465" y="657.296" width="127.138" height="17.5683" rx="6.35587" transform="rotate(-90 725.465 657.296)" fill="#E5B39F"/>
<rect x="725.465" y="643.184" width="7.59916" height="17.5706" transform="rotate(-90 725.465 643.184)" fill="#C0856E"/>
<rect x="725.465" y="551.938" width="7.59916" height="17.5706" transform="rotate(-90 725.465 551.938)" fill="#C0856E"/>
<rect x="743.473" y="657.725" width="115.448" height="21.5827" rx="7.8082" transform="rotate(-90 743.473 657.725)" fill="#90A7B7"/>
<rect x="743.471" y="646.54" width="3.47872" height="21.5855" transform="rotate(-90 743.471 646.54)" fill="#55788F"/>
<rect x="743.471" y="646.54" width="3.47872" height="21.5855" transform="rotate(-90 743.471 646.54)" fill="#55788F"/>
<rect x="743.471" y="557.225" width="3.47872" height="21.5855" transform="rotate(-90 743.471 557.225)" fill="#55788F"/>
<rect x="743.471" y="557.225" width="3.47872" height="21.5855" transform="rotate(-90 743.471 557.225)" fill="#55788F"/>
<rect x="765.6" y="656.932" width="115.448" height="35.8796" rx="7.8082" transform="rotate(-90 765.6 656.932)" fill="#714B71"/>
<rect x="765.599" y="641.01" width="3.47872" height="35.883" transform="rotate(-90 765.599 641.01)" fill="#462546"/>
<rect x="765.599" y="646.286" width="3.47872" height="35.883" transform="rotate(-90 765.599 646.286)" fill="#462546"/>
<rect x="765.599" y="555.775" width="3.47872" height="35.883" transform="rotate(-90 765.599 555.775)" fill="#462546"/>
<rect x="775.019" y="629.692" width="60.9669" height="17.0431" rx="4.91643" transform="rotate(-90 775.019 629.692)" fill="#462546"/>
<path d="M1182.38 444.995C1173.37 416.138 1156.22 417.244 1147.94 421.785C1147.47 422.042 1147.31 422.634 1147.55 423.112C1158.25 444.471 1174.04 447.523 1181.64 446.28C1182.23 446.183 1182.56 445.565 1182.38 444.995Z" fill="#8DB985" stroke="#8DB985" stroke-width="1.04274" stroke-linecap="round"/>
<path d="M1147.15 422.236C1157.71 426.646 1177.9 438.795 1182.28 445.948" stroke="#5E7959" stroke-width="1.04274" stroke-linecap="round"/>
<path d="M1047.65 418.746C1074.19 404.279 1085.74 416.996 1088.54 426.022C1088.7 426.533 1088.4 427.071 1087.9 427.247C1065.35 435.148 1051.88 426.365 1047.29 420.187C1046.93 419.708 1047.12 419.032 1047.65 418.746Z" fill="#8DB985" stroke="#8DB985" stroke-width="1.04274" stroke-linecap="round"/>
<path d="M1088.79 426.893C1078.14 422.721 1055.18 417.41 1047.06 419.502" stroke="#5E7959" stroke-width="1.04274" stroke-linecap="round"/>
<path d="M1075.48 367.697C1064.14 395.721 1078.09 405.743 1087.38 407.49C1087.9 407.588 1088.41 407.234 1088.52 406.713C1093.8 383.408 1083.53 371.036 1076.87 367.176C1076.35 366.877 1075.7 367.143 1075.48 367.697Z" fill="#8DB985" stroke="#8DB985" stroke-width="1.04274" stroke-linecap="round"/>
<path d="M1088.27 407.641C1082.91 397.535 1075.01 375.335 1076.16 367.025" stroke="#5E7959" stroke-width="1.04274" stroke-linecap="round"/>
<path d="M1130.67 451.559C1131.98 445.817 1134.54 436.506 1137.98 427.111M1150.94 401.729C1145.96 407.787 1141.5 417.493 1137.98 427.111M1137.98 427.111C1138.92 425.538 1142.06 422.352 1147.08 422.188" stroke="#5E7959" stroke-width="1.04274"/>
<path d="M1120.19 449.147C1120.13 445.968 1120.02 441.845 1119.82 437.468M1116.51 410.176C1118.16 412.535 1119.17 424.213 1119.71 435.101M1119.71 435.101C1120.49 432.799 1122.5 427.689 1124.35 425.669M1119.71 435.101C1119.75 435.896 1119.79 436.686 1119.82 437.468M1119.82 437.468C1118.26 435.514 1117.4 435.052 1115.49 434.233" stroke="#5E7959" stroke-width="1.04274"/>
<path d="M1088.1 407.262C1091.35 413.508 1096.83 424.712 1100.79 434.601M1105.44 449.2C1104.87 445.574 1103.08 440.306 1100.79 434.601M1100.79 434.601C1099.27 433.156 1094.75 429.594 1088.81 426.904" stroke="#5E7959" stroke-width="1.04274"/>
<path d="M1100.94 394.808C1102.45 402.527 1111.44 407.986 1116.18 409.95C1116.44 410.057 1116.73 409.937 1116.83 409.677C1118.35 405.892 1120.68 396.831 1119.11 387.249C1117.53 377.59 1108.82 372.741 1104.24 371.368C1103.98 371.29 1103.71 371.435 1103.62 371.693C1102.01 376.475 1099.44 387.084 1100.94 394.808Z" fill="#8DB985" stroke="#8DB985" stroke-width="1.04274"/>
<path d="M1103.9 371.377C1108.22 383.329 1116.42 407.767 1116.52 410.005" stroke="#5E7959" stroke-width="1.04274" stroke-linecap="round"/>
<path d="M1140.82 415.812C1138.28 421.906 1129.21 424.885 1124.57 425.706C1124.31 425.752 1124.06 425.593 1124 425.336C1123.18 421.948 1122.42 414.135 1125.3 406.546C1128.2 398.872 1136.91 396.346 1141.32 395.983C1141.58 395.962 1141.81 396.141 1141.85 396.396C1142.61 400.618 1143.35 409.734 1140.82 415.812Z" fill="#8DB985" stroke="#8DB985" stroke-width="1.04274"/>
<path d="M1141.63 396.047C1135.87 405.15 1124.67 423.87 1124.25 425.694" stroke="#5E7959" stroke-width="1.04274" stroke-linecap="round"/>
<path d="M1088.58 417.198C1095.45 438.691 1108.34 438.08 1114.75 434.725C1115.23 434.476 1115.39 433.883 1115.15 433.405C1107.05 417.559 1095.24 415.092 1089.33 415.925C1088.74 416.009 1088.4 416.627 1088.58 417.198Z" fill="#90BD88" stroke="#90BD88" stroke-width="1.04274" stroke-linecap="round"/>
<path d="M1115.56 434.277C1107.45 430.918 1091.94 421.665 1088.58 416.218" stroke="#5E7959" stroke-width="1.04274" stroke-linecap="round"/>
<path d="M1168.6 393.049C1165.78 398.781 1156.22 401.091 1151.39 401.587C1151.13 401.613 1150.9 401.453 1150.85 401.206C1150.09 397.898 1149.53 390.31 1152.74 383.163C1155.99 375.927 1165.15 374.038 1169.73 373.969C1169.98 373.966 1170.19 374.146 1170.23 374.393C1170.9 378.505 1171.41 387.343 1168.6 393.049Z" fill="#8DB985" stroke="#8DB985" stroke-width="1.04274"/>
<path d="M1170.02 374.051C1163.77 382.469 1151.59 399.82 1151.09 401.551" stroke="#5E7959" stroke-width="1.04274" stroke-linecap="round"/>
<path d="M1087.63 448.945L1096.37 495.991H1140.26L1149 448.945H1087.63Z" fill="#55788F"/>
<path d="M28.0266 19.2808L1186.44 102.586" stroke="#F3BEB3" stroke-width="4" stroke-linecap="square"/>
<defs>
<filter id="filter0_d_135_885" x="806.597" y="202.515" width="51.0672" height="51.0672" filterUnits="userSpaceOnUse" color-interpolation-filters="sRGB">
<feFlood flood-opacity="0" result="BackgroundImageFix"/>
<feColorMatrix in="SourceAlpha" type="matrix" values="0 0 0 0 0 0 0 0 0 0 0 0 0 0 0 0 0 0 127 0" result="hardAlpha"/>
<feMorphology radius="3.54757" operator="dilate" in="SourceAlpha" result="effect1_dropShadow_135_885"/>
<feOffset dy="4.73009"/>
<feGaussianBlur stdDeviation="2.36505"/>
<feComposite in2="hardAlpha" operator="out"/>
<feColorMatrix type="matrix" values="0 0 0 0 0.513726 0 0 0 0 0.427451 0 0 0 0 0.266667 0 0 0 0.2 0"/>
<feBlend mode="normal" in2="BackgroundImageFix" result="effect1_dropShadow_135_885"/>
<feBlend mode="normal" in="SourceGraphic" in2="effect1_dropShadow_135_885" result="shape"/>
</filter>
<filter id="filter1_d_135_885" x="966.329" y="584.12" width="124.01" height="24.2542" filterUnits="userSpaceOnUse" color-interpolation-filters="sRGB">
<feFlood flood-opacity="0" result="BackgroundImageFix"/>
<feColorMatrix in="SourceAlpha" type="matrix" values="0 0 0 0 0 0 0 0 0 0 0 0 0 0 0 0 0 0 127 0" result="hardAlpha"/>
<feOffset dy="0.819125"/>
<feGaussianBlur stdDeviation="0.819125"/>
<feComposite in2="hardAlpha" operator="out"/>
<feColorMatrix type="matrix" values="0 0 0 0 0.0588235 0 0 0 0 0.141176 0 0 0 0 0.203922 0 0 0 0.1 0"/>
<feBlend mode="normal" in2="BackgroundImageFix" result="effect1_dropShadow_135_885"/>
<feBlend mode="normal" in="SourceGraphic" in2="effect1_dropShadow_135_885" result="shape"/>
</filter>
<filter id="filter2_d_135_885" x="1008.95" y="541.109" width="74.4581" height="14.5627" filterUnits="userSpaceOnUse" color-interpolation-filters="sRGB">
<feFlood flood-opacity="0" result="BackgroundImageFix"/>
<feColorMatrix in="SourceAlpha" type="matrix" values="0 0 0 0 0 0 0 0 0 0 0 0 0 0 0 0 0 0 127 0" result="hardAlpha"/>
<feOffset dy="0.491819"/>
<feGaussianBlur stdDeviation="0.491819"/>
<feComposite in2="hardAlpha" operator="out"/>
<feColorMatrix type="matrix" values="0 0 0 0 0.0588235 0 0 0 0 0.141176 0 0 0 0 0.203922 0 0 0 0.1 0"/>
<feBlend mode="normal" in2="BackgroundImageFix" result="effect1_dropShadow_135_885"/>
<feBlend mode="normal" in="SourceGraphic" in2="effect1_dropShadow_135_885" result="shape"/>
</filter>
<linearGradient id="paint0_linear_135_885" x1="1140.04" y1="137.088" x2="131.829" y2="792.136" gradientUnits="userSpaceOnUse">
<stop stop-color="#F0EEEC"/>
<stop offset="1" stop-color="#E9E9E9"/>
</linearGradient>
<linearGradient id="paint1_linear_135_885" x1="832.131" y1="200.183" x2="832.131" y2="277.776" gradientUnits="userSpaceOnUse">
<stop stop-color="#F5C36E"/>
<stop offset="1" stop-color="#7D6841"/>
<stop offset="1" stop-color="#7D6841"/>
</linearGradient>
<linearGradient id="paint2_linear_135_885" x1="844.534" y1="210.605" x2="819.656" y2="235.894" gradientUnits="userSpaceOnUse">
<stop offset="0.191201" stop-color="white"/>
<stop offset="0.191201" stop-color="white"/>
<stop offset="1" stop-color="white"/>
</linearGradient>
<linearGradient id="paint3_linear_135_885" x1="1051.15" y1="250.752" x2="1051.15" y2="270.755" gradientUnits="userSpaceOnUse">
<stop stop-color="#DED3C5"/>
<stop offset="1" stop-color="#EEE7E0"/>
</linearGradient>
<linearGradient id="paint4_linear_135_885" x1="1079.71" y1="250.751" x2="1079.71" y2="284.765" gradientUnits="userSpaceOnUse">
<stop stop-color="#F7CE8C"/>
<stop offset="1" stop-color="#E1AF6F"/>
</linearGradient>
<linearGradient id="paint5_linear_135_885" x1="1072.41" y1="600.454" x2="966.304" y2="657.246" gradientUnits="userSpaceOnUse">
<stop stop-color="#FADDD2"/>
<stop offset="1" stop-color="#E5B39F"/>
</linearGradient>
<linearGradient id="paint6_linear_135_885" x1="1072.64" y1="550.916" x2="1009.64" y2="594.023" gradientUnits="userSpaceOnUse">
<stop stop-color="#CCDEEB"/>
<stop offset="1" stop-color="#90A7B7"/>
</linearGradient>
<linearGradient id="paint7_linear_135_885" x1="462.207" y1="579.028" x2="462.207" y2="596.631" gradientUnits="userSpaceOnUse">
<stop stop-color="#DED3C5"/>
<stop offset="1" stop-color="#EEE7E0"/>
</linearGradient>
<linearGradient id="paint8_linear_135_885" x1="487.344" y1="579.027" x2="487.344" y2="608.96" gradientUnits="userSpaceOnUse">
<stop stop-color="#F7CE8C"/>
<stop offset="1" stop-color="#E1AF6F"/>
</linearGradient>
<linearGradient id="paint9_linear_135_885" x1="528.844" y1="223.292" x2="528.844" y2="243.295" gradientUnits="userSpaceOnUse">
<stop stop-color="#DED3C5"/>
<stop offset="1" stop-color="#EEE7E0"/>
</linearGradient>
<linearGradient id="paint10_linear_135_885" x1="500.147" y1="223.292" x2="500.147" y2="257.307" gradientUnits="userSpaceOnUse">
<stop stop-color="#F7CE8C"/>
<stop offset="1" stop-color="#E1AF6F"/>
</linearGradient>
</defs>
</svg>
