<svg width="1643" height="1099" viewBox="0 0 1643 1099" fill="none" xmlns="http://www.w3.org/2000/svg">
<g clip-path="url(#clip0_105_1566)">
<rect width="1642.26" height="1098.25" transform="translate(0.0471191 0.439728)" fill="#0F2434"/>
<path d="M1642.83 285.988L-1.45825 168.588L0.0857008 -0.552551H1642.07L1642.83 285.988Z" fill="#F3BEB3"/>
<path d="M860.344 1.02161V61.0806" stroke="#384E68" stroke-width="6"/>
<path d="M874.867 73.6739V105.313H845.442V73.4738H845.447C845.561 65.9513 852.103 59.886 860.156 59.886C868.209 59.886 874.753 65.9513 874.867 73.4738C874.868 73.5405 874.867 73.6072 874.867 73.6739Z" fill="#384E68"/>
<g filter="url(#filter0_dddddd_105_1566)">
<path fill-rule="evenodd" clip-rule="evenodd" d="M836.174 135.308C836.67 147.902 847.337 157.965 860.424 157.965C873.827 157.965 884.693 147.41 884.693 134.391C884.693 133.744 884.666 133.102 884.613 132.468V135.308H836.174Z" fill="#FFFFC9" fill-opacity="0.8"/>
</g>
<path d="M874.82 105.25H845.593C845.419 105.25 845.249 105.302 845.106 105.4L794.221 140.124C793.519 140.603 793.858 141.702 794.708 141.702H927.359C928.216 141.702 928.551 140.589 927.836 140.117L875.296 105.393C875.155 105.299 874.989 105.25 874.82 105.25Z" fill="#475E78"/>
<path d="M415.536 211.879L415.536 839.355H1552.51V282.661L415.536 211.879Z" fill="url(#paint0_linear_105_1566)"/>
<path d="M415.536 211.879L415.536 837.781H503.913V218.227L415.536 211.879Z" fill="#8D8D8D" fill-opacity="0.1"/>
<path d="M662.213 226.963L662.213 839.355H750.591V233.174L662.213 226.963Z" fill="#8D8D8D" fill-opacity="0.1"/>
<path d="M993.315 248.743L993.315 839.355H1081.69V254.733L993.315 248.743Z" fill="#8D8D8D" fill-opacity="0.1"/>
<path d="M1325.74 261.672L1325.74 840.465H1414.11V267.543L1325.74 261.672Z" fill="#8D8D8D" fill-opacity="0.1"/>
<path d="M411.482 323.194L1552.15 323.194" stroke="#F2EEE7" stroke-width="20.0096"/>
<path d="M411.482 318.759L1552.15 318.759" stroke="white" stroke-width="20.0096"/>
<path d="M411.482 489.124L1552.15 489.124" stroke="#F2EEE7" stroke-width="20.0096"/>
<path d="M411.482 484.689L1552.15 484.689" stroke="white" stroke-width="20.0096"/>
<path d="M410.686 684.692L1551.36 684.692" stroke="#F2EEE7" stroke-width="20.0096"/>
<path d="M410.686 680.257L1551.36 680.257" stroke="white" stroke-width="20.0096"/>
<path d="M413.46 842.516L1554.13 842.516" stroke="white" stroke-width="20.0096"/>
<path d="M425.904 211.168L1566.38 291.979" stroke="#F2EEE7" stroke-width="20.0096"/>
<path d="M409.607 205.668L1566.2 287.673" stroke="white" stroke-width="20.0096"/>
<path d="M418.022 195.573L417.583 959.431" stroke="white" stroke-width="20.0096"/>
<path d="M654.847 230.805L653.679 959.97" stroke="white" stroke-width="20.0096"/>
<path d="M1319.77 278.383L1319.77 960.349" stroke="white" stroke-width="20.0096"/>
<path d="M986.263 684.563L986.263 961.867M987.751 252.941L988.771 491.971" stroke="white" stroke-width="20.0096"/>
<path d="M1558.3 278.876L1558.3 960.797" stroke="white" stroke-width="20.2333"/>
<rect x="1155.41" y="453.916" width="115.448" height="21.5827" rx="7.8082" fill="#90A7B7"/>
<rect x="1168.22" y="453.916" width="6.90043" height="21.5855" fill="#55788F"/>
<rect x="1251.08" y="453.916" width="6.90043" height="21.5855" fill="#55788F"/>
<path d="M1237.19 400.384C1237.19 387.096 1226.42 376.323 1213.13 376.323C1199.84 376.323 1189.07 387.096 1189.07 400.384V453.916H1237.19V400.384Z" fill="url(#paint1_linear_105_1566)"/>
<path opacity="0.6" d="M1189.07 425.801H1237.3" stroke="#67522B" stroke-width="2.36505"/>
<path opacity="0.6" d="M1189.07 431.201H1237.3" stroke="#67522B" stroke-width="2.36505"/>
<path opacity="0.6" d="M1189.07 436.601H1237.3" stroke="#67522B" stroke-width="2.36505"/>
<path opacity="0.6" d="M1188.96 420.401H1237.19" stroke="#67522B" stroke-width="2.36505"/>
<path opacity="0.6" d="M1188.96 452.801H1237.19" stroke="#67522B" stroke-width="2.36505"/>
<path opacity="0.6" d="M1188.96 442.001H1237.19" stroke="#67522B" stroke-width="2.36505"/>
<path opacity="0.6" d="M1189.07 447.401H1237.3" stroke="#67522B" stroke-width="2.36505"/>
<g filter="url(#filter1_d_105_1566)">
<circle cx="1213.13" cy="399.459" r="17.2559" fill="url(#paint2_linear_105_1566)"/>
</g>
<path d="M1206.29 404.431L1213.13 400.737V388.845" stroke="#323D51" stroke-width="1.18252"/>
<path d="M1211.5 373.706H1212.04V372.156L1211.57 372.514L1211.36 372.23L1212.17 371.613H1212.48V373.706H1213.01V374.096H1211.5V373.706ZM1212.98 398.096H1211.4V397.752C1211.42 397.729 1211.46 397.698 1211.5 397.66C1211.55 397.62 1211.59 397.575 1211.64 397.525C1211.7 397.476 1211.76 397.421 1211.82 397.362C1211.87 397.303 1211.93 397.241 1211.99 397.178C1212.07 397.088 1212.14 397.006 1212.2 396.933C1212.26 396.859 1212.31 396.791 1212.35 396.727C1212.39 396.661 1212.42 396.597 1212.44 396.535C1212.45 396.472 1212.46 396.407 1212.46 396.34C1212.46 396.293 1212.45 396.247 1212.43 396.202C1212.41 396.157 1212.38 396.118 1212.34 396.085C1212.31 396.049 1212.26 396.022 1212.21 396.003C1212.15 395.982 1212.1 395.971 1212.03 395.971C1211.95 395.971 1211.87 395.984 1211.8 396.01C1211.73 396.036 1211.66 396.08 1211.58 396.142L1211.4 395.815C1211.5 395.744 1211.61 395.685 1211.73 395.638C1211.85 395.588 1211.99 395.563 1212.15 395.563C1212.25 395.563 1212.35 395.578 1212.44 395.606C1212.53 395.634 1212.62 395.677 1212.69 395.734C1212.76 395.788 1212.82 395.857 1212.86 395.939C1212.9 396.022 1212.93 396.118 1212.93 396.227C1212.93 396.302 1212.92 396.373 1212.9 396.44C1212.89 396.504 1212.87 396.569 1212.84 396.635C1212.82 396.699 1212.78 396.765 1212.74 396.833C1212.69 396.902 1212.64 396.977 1212.58 397.057C1212.53 397.118 1212.48 397.181 1212.43 397.245C1212.37 397.306 1212.32 397.366 1212.26 397.422C1212.21 397.479 1212.15 397.532 1212.1 397.582C1212.05 397.632 1212 397.673 1211.96 397.706H1212.98V398.096Z" fill="#323D51"/>
<path d="M1214 414.188C1214 414.304 1213.98 414.412 1213.94 414.511C1213.89 414.611 1213.84 414.697 1213.76 414.77C1213.68 414.844 1213.59 414.902 1213.49 414.944C1213.38 414.987 1213.27 415.008 1213.15 415.008C1213.03 415.008 1212.91 414.989 1212.8 414.951C1212.7 414.911 1212.6 414.852 1212.52 414.774C1212.44 414.696 1212.38 414.598 1212.33 414.479C1212.28 414.361 1212.26 414.224 1212.26 414.068C1212.26 413.834 1212.3 413.621 1212.38 413.429C1212.46 413.238 1212.57 413.072 1212.7 412.933C1212.82 412.791 1212.97 412.677 1213.12 412.592C1213.28 412.505 1213.44 412.449 1213.6 412.425L1213.7 412.791C1213.57 412.814 1213.46 412.853 1213.35 412.908C1213.24 412.96 1213.14 413.024 1213.06 413.099C1212.97 413.175 1212.9 413.259 1212.84 413.351C1212.78 413.444 1212.75 413.539 1212.72 413.639C1212.77 413.579 1212.84 413.53 1212.94 413.49C1213.03 413.447 1213.14 413.426 1213.25 413.426C1213.36 413.426 1213.45 413.444 1213.55 413.479C1213.64 413.512 1213.72 413.562 1213.78 413.628C1213.85 413.692 1213.91 413.771 1213.94 413.866C1213.98 413.96 1214 414.068 1214 414.188ZM1213.56 414.206C1213.56 414.079 1213.52 413.982 1213.44 413.915C1213.36 413.849 1213.26 413.816 1213.13 413.816C1213.04 413.816 1212.95 413.837 1212.88 413.88C1212.8 413.922 1212.75 413.972 1212.71 414.029C1212.7 414.055 1212.7 414.084 1212.7 414.118C1212.7 414.148 1212.7 414.173 1212.7 414.192C1212.7 414.249 1212.71 414.303 1212.73 414.355C1212.75 414.407 1212.77 414.453 1212.81 414.494C1212.85 414.531 1212.89 414.562 1212.94 414.586C1213 414.607 1213.06 414.618 1213.12 414.618C1213.18 414.618 1213.23 414.608 1213.28 414.589C1213.34 414.568 1213.38 414.54 1213.42 414.504C1213.46 414.469 1213.49 414.426 1213.52 414.377C1213.54 414.324 1213.56 414.268 1213.56 414.206Z" fill="#323D51"/>
<path d="M1197.92 397.931C1197.92 397.811 1197.94 397.7 1197.98 397.598C1198.02 397.496 1198.08 397.41 1198.15 397.339C1198.23 397.266 1198.32 397.209 1198.42 397.169C1198.53 397.126 1198.65 397.105 1198.78 397.105C1198.91 397.105 1199.03 397.125 1199.14 397.165C1199.25 397.205 1199.34 397.266 1199.42 397.346C1199.5 397.424 1199.56 397.522 1199.6 397.641C1199.64 397.756 1199.66 397.89 1199.66 398.041C1199.66 398.316 1199.63 398.552 1199.56 398.751C1199.49 398.95 1199.39 399.115 1199.27 399.248C1199.15 399.38 1199.01 399.482 1198.85 399.553C1198.7 399.624 1198.53 399.669 1198.36 399.687L1198.26 399.326C1198.39 399.309 1198.51 399.277 1198.61 399.23C1198.72 399.183 1198.81 399.125 1198.89 399.056C1198.96 398.985 1199.03 398.906 1199.08 398.818C1199.13 398.728 1199.16 398.633 1199.17 398.531C1199.12 398.581 1199.06 398.621 1198.98 398.652C1198.9 398.68 1198.81 398.694 1198.7 398.694H1198.69C1198.61 398.694 1198.51 398.679 1198.42 398.648C1198.33 398.617 1198.25 398.57 1198.17 398.506C1198.1 398.442 1198.04 398.363 1197.99 398.268C1197.94 398.171 1197.92 398.059 1197.92 397.931ZM1198.37 397.907C1198.37 397.973 1198.38 398.032 1198.4 398.084C1198.43 398.134 1198.46 398.176 1198.5 398.212C1198.54 398.245 1198.59 398.271 1198.64 398.29C1198.69 398.306 1198.75 398.315 1198.8 398.315C1198.9 398.315 1198.99 398.299 1199.06 398.268C1199.13 398.238 1199.18 398.2 1199.21 398.155C1199.22 398.105 1199.22 398.058 1199.22 398.013C1199.22 397.947 1199.21 397.882 1199.2 397.818C1199.18 397.754 1199.15 397.697 1199.11 397.648C1199.07 397.598 1199.02 397.559 1198.97 397.531C1198.91 397.5 1198.85 397.484 1198.77 397.484C1198.66 397.484 1198.56 397.522 1198.48 397.598C1198.4 397.671 1198.37 397.774 1198.37 397.907Z" fill="#323D51"/>
<path d="M1227.22 399.297C1227.3 399.297 1227.37 399.288 1227.43 399.269C1227.5 399.248 1227.56 399.219 1227.6 399.184C1227.65 399.146 1227.69 399.103 1227.71 399.056C1227.74 399.006 1227.75 398.953 1227.75 398.896C1227.75 398.825 1227.73 398.766 1227.7 398.719C1227.68 398.669 1227.64 398.63 1227.58 398.602C1227.53 398.574 1227.47 398.553 1227.4 398.542C1227.32 398.53 1227.24 398.524 1227.16 398.524H1226.96V398.272L1227.56 397.545H1226.66V397.155H1228.11V397.477L1227.48 398.19H1227.56C1227.65 398.19 1227.73 398.205 1227.8 398.233C1227.88 398.261 1227.95 398.304 1228.01 398.361C1228.07 398.417 1228.12 398.488 1228.15 398.574C1228.19 398.659 1228.21 398.757 1228.21 398.868C1228.21 399.003 1228.18 399.121 1228.13 399.223C1228.07 399.324 1228 399.411 1227.91 399.482C1227.82 399.55 1227.71 399.602 1227.59 399.638C1227.48 399.671 1227.35 399.687 1227.23 399.687C1227.12 399.687 1227.02 399.678 1226.91 399.659C1226.8 399.64 1226.7 399.611 1226.6 399.57L1226.73 399.187C1226.75 399.199 1226.77 399.211 1226.81 399.223C1226.85 399.235 1226.89 399.246 1226.93 399.258C1226.98 399.27 1227.03 399.28 1227.08 399.287C1227.13 399.294 1227.17 399.297 1227.22 399.297Z" fill="#323D51"/>
<rect x="1024.65" y="347.211" width="128.454" height="26.9317" rx="7.8082" transform="rotate(90 1024.65 347.211)" fill="#E5B39F"/>
<rect x="1020.81" y="360.238" width="11.4068" height="19.2516" rx="2.92808" transform="rotate(90 1020.81 360.238)" fill="#C0856E"/>
<rect x="1024.65" y="475.665" width="121.559" height="35.8796" rx="7.8082" transform="rotate(-90 1024.65 475.665)" fill="#28415B"/>
<rect x="1024.65" y="458.9" width="3.66286" height="35.883" transform="rotate(-90 1024.65 458.9)" fill="#1A2E43"/>
<rect x="1024.65" y="464.456" width="3.66286" height="35.883" transform="rotate(-90 1024.65 464.456)" fill="#1A2E43"/>
<rect x="1024.65" y="369.154" width="3.66286" height="35.883" transform="rotate(-90 1024.65 369.154)" fill="#1A2E43"/>
<rect x="1034.07" y="446.982" width="64.194" height="17.0431" rx="4.91643" transform="rotate(-90 1034.07 446.982)" fill="#1A2E43"/>
<rect x="1079.25" y="345.485" width="129.286" height="21.5827" rx="7.8082" transform="rotate(80.5221 1079.25 345.485)" fill="#714B71"/>
<rect x="1081.62" y="359.639" width="7.72757" height="21.5855" transform="rotate(80.5221 1081.62 359.639)" fill="#462546"/>
<rect x="1096.9" y="451.16" width="7.72757" height="21.5855" transform="rotate(80.5221 1096.9 451.16)" fill="#462546"/>
<rect x="1043.43" y="704.094" width="129.286" height="21.5827" rx="7.8082" transform="rotate(90 1043.43 704.094)" fill="#714B71"/>
<rect x="1043.43" y="718.444" width="7.72757" height="21.5855" transform="rotate(90 1043.43 718.444)" fill="#462546"/>
<rect x="1043.43" y="811.232" width="7.72757" height="21.5855" transform="rotate(90 1043.43 811.232)" fill="#462546"/>
<rect x="1070.36" y="704.927" width="128.454" height="26.9317" rx="7.8082" transform="rotate(90 1070.36 704.927)" fill="#5E7959"/>
<rect x="1066.52" y="717.954" width="11.4068" height="19.2516" rx="2.92808" transform="rotate(90 1066.52 717.954)" fill="#384C34"/>
<rect x="1070.36" y="833.381" width="121.559" height="35.8796" rx="7.8082" transform="rotate(-90 1070.36 833.381)" fill="#28415B"/>
<rect x="1070.36" y="816.616" width="3.66286" height="35.883" transform="rotate(-90 1070.36 816.616)" fill="#1A2E43"/>
<rect x="1070.36" y="822.172" width="3.66286" height="35.883" transform="rotate(-90 1070.36 822.172)" fill="#1A2E43"/>
<rect x="1070.36" y="726.87" width="3.66286" height="35.883" transform="rotate(-90 1070.36 726.87)" fill="#1A2E43"/>
<rect x="1079.78" y="804.698" width="64.194" height="17.0431" rx="4.91643" transform="rotate(-90 1079.78 804.698)" fill="#1A2E43"/>
<rect x="1201.03" y="718.51" width="115.448" height="21.5827" rx="7.8082" transform="rotate(70.884 1201.03 718.51)" fill="#E5B39F"/>
<rect x="1205.06" y="730.829" width="3.47872" height="21.5855" transform="rotate(70.884 1205.06 730.829)" fill="#C0856E"/>
<rect x="1232.31" y="809.453" width="3.47872" height="21.5855" transform="rotate(70.884 1232.31 809.453)" fill="#C0856E"/>
<rect x="1208.86" y="758.614" width="37.7797" height="10.5612" rx="3.04659" transform="rotate(70.884 1208.86 758.614)" fill="#C0856E"/>
<rect x="1374.43" y="398.528" width="115.448" height="21.5827" rx="7.8082" fill="#28415B"/>
<rect x="1389.06" y="398.527" width="3.47872" height="21.5855" fill="#1A2E43"/>
<rect x="1472.27" y="398.527" width="3.47872" height="21.5855" fill="#1A2E43"/>
<rect x="1416.56" y="404.04" width="37.7797" height="10.5612" rx="3.04659" fill="#1A2E43"/>
<rect x="1375.91" y="453.713" width="115.448" height="21.5827" rx="7.8082" fill="#E5B39F"/>
<rect x="1388.73" y="453.713" width="6.90043" height="21.5855" fill="#C0856E"/>
<rect x="1471.58" y="453.713" width="6.90043" height="21.5855" fill="#C0856E"/>
<path d="M1371.54 436.893C1371.54 427.625 1379.06 420.112 1388.32 420.112H1477.52C1481.83 420.112 1485.33 423.608 1485.33 427.92V445.867C1485.33 450.179 1481.83 453.675 1477.52 453.675H1388.32C1379.06 453.675 1371.54 446.162 1371.54 436.893V436.893Z" fill="#5E7959"/>
<path d="M1378.97 436.894C1378.97 431.37 1383.45 426.893 1388.97 426.893H1485.33V446.895H1388.97C1383.45 446.895 1378.97 442.417 1378.97 436.894V436.894Z" fill="url(#paint3_linear_105_1566)"/>
<path d="M1470.03 426.891V429.791C1470.03 429.891 1470.03 429.995 1470.03 430.104V457.106C1470.03 459.005 1470.03 459.954 1469.49 460.47C1469.36 460.594 1469.21 460.697 1469.05 460.776C1468.38 461.104 1467.49 460.777 1465.71 460.122L1461.82 458.696C1461.32 458.512 1461.07 458.42 1460.81 458.406C1460.75 458.402 1460.68 458.402 1460.61 458.406C1460.36 458.42 1460.11 458.512 1459.61 458.696L1455.72 460.122C1453.94 460.777 1453.05 461.104 1452.38 460.776C1452.22 460.697 1452.07 460.594 1451.94 460.47C1451.4 459.954 1451.4 459.005 1451.4 457.106V430.104C1451.4 429.995 1451.4 429.891 1451.4 429.791V426.891H1470.03Z" fill="url(#paint4_linear_105_1566)"/>
<rect x="485.219" y="704.623" width="129.286" height="21.5827" rx="7.8082" transform="rotate(90 485.219 704.623)" fill="#714B71"/>
<rect x="485.219" y="718.973" width="7.72757" height="21.5855" transform="rotate(90 485.219 718.973)" fill="#462546"/>
<rect x="485.219" y="811.761" width="7.72757" height="21.5855" transform="rotate(90 485.219 811.761)" fill="#462546"/>
<rect x="512.151" y="705.456" width="128.454" height="26.9317" rx="7.8082" transform="rotate(90 512.151 705.456)" fill="#5E7959"/>
<rect x="508.311" y="718.483" width="11.4068" height="19.2516" rx="2.92808" transform="rotate(90 508.311 718.483)" fill="#384C34"/>
<rect x="512.153" y="833.909" width="121.559" height="35.8796" rx="7.8082" transform="rotate(-90 512.153 833.909)" fill="#28415B"/>
<rect x="512.151" y="817.145" width="3.66286" height="35.883" transform="rotate(-90 512.151 817.145)" fill="#1A2E43"/>
<rect x="512.151" y="822.7" width="3.66286" height="35.883" transform="rotate(-90 512.151 822.7)" fill="#1A2E43"/>
<rect x="512.151" y="727.398" width="3.66286" height="35.883" transform="rotate(-90 512.151 727.398)" fill="#1A2E43"/>
<rect x="521.571" y="805.227" width="64.194" height="17.0431" rx="4.91643" transform="rotate(-90 521.571 805.227)" fill="#1A2E43"/>
<rect x="566.703" y="719.435" width="115.448" height="21.5827" rx="7.8082" transform="rotate(70.884 566.703 719.435)" fill="#E5B39F"/>
<rect x="570.737" y="731.755" width="3.47872" height="21.5855" transform="rotate(70.884 570.737 731.755)" fill="#C0856E"/>
<rect x="597.987" y="810.378" width="3.47872" height="21.5855" transform="rotate(70.884 597.987 810.378)" fill="#C0856E"/>
<rect x="574.533" y="759.54" width="37.7797" height="10.5612" rx="3.04659" transform="rotate(70.884 574.533 759.54)" fill="#C0856E"/>
<rect x="1486.63" y="706.323" width="128.454" height="27.0849" rx="7.8082" transform="rotate(68.5307 1486.63 706.323)" fill="#5E7959"/>
<rect x="1487.81" y="719.86" width="11.4068" height="19.3611" rx="2.92808" transform="rotate(68.5307 1487.81 719.86)" fill="#384C34"/>
<path d="M1353.88 782.058H1464.79V830.11C1464.79 831.919 1463.32 833.386 1461.51 833.386H1357.15C1355.34 833.386 1353.88 831.919 1353.88 830.11V782.058Z" fill="url(#paint5_linear_105_1566)"/>
<g filter="url(#filter2_d_105_1566)">
<rect x="1348.97" y="761.08" width="120.733" height="20.9777" rx="3.2765" fill="#E8B8A5"/>
</g>
<rect x="1395.44" y="767.906" width="27.7832" height="7.32465" rx="0.819125" fill="#E8B8A5" stroke="#C0856E" stroke-width="1.63825"/>
<path d="M1393.88 730.337H1460.48V759.188C1460.48 760.275 1459.6 761.156 1458.51 761.156H1395.85C1394.76 761.156 1393.88 760.275 1393.88 759.188V730.337Z" fill="url(#paint6_linear_105_1566)"/>
<g filter="url(#filter3_d_105_1566)">
<rect x="1390.93" y="717.741" width="72.4908" height="12.5954" rx="1.96727" fill="#90A7B7"/>
</g>
<rect x="1418.84" y="721.84" width="16.6816" height="4.39786" rx="0.491819" fill="#90A7B7" stroke="#55788F" stroke-width="0.983637"/>
<rect x="785.855" y="731.631" width="93.9744" height="17.5683" rx="6.35587" fill="#E5B39F"/>
<rect x="796.286" y="731.631" width="5.61694" height="17.5706" fill="#C0856E"/>
<rect x="863.73" y="731.631" width="5.61694" height="17.5706" fill="#C0856E"/>
<rect x="772.931" y="812.116" width="115.448" height="21.5827" rx="7.8082" fill="#90A7B7"/>
<rect x="784.116" y="812.115" width="3.47872" height="21.5855" fill="#55788F"/>
<rect x="784.116" y="812.115" width="3.47872" height="21.5855" fill="#55788F"/>
<rect x="873.431" y="812.115" width="3.47872" height="21.5855" fill="#55788F"/>
<rect x="873.431" y="812.115" width="3.47872" height="21.5855" fill="#55788F"/>
<rect x="781.196" y="777.002" width="115.448" height="35.8796" rx="7.8082" fill="#714B71"/>
<rect x="797.118" y="777" width="3.47872" height="35.883" fill="#462546"/>
<rect x="791.842" y="777" width="3.47872" height="35.883" fill="#462546"/>
<rect x="882.353" y="777" width="3.47872" height="35.883" fill="#462546"/>
<rect x="808.437" y="786.42" width="60.9669" height="17.0431" rx="4.91643" fill="#462546"/>
<path d="M789.871 763.97C789.871 755.813 796.483 749.201 804.64 749.201H882.199C886.512 749.201 890.007 752.697 890.007 757.01V770.93C890.007 775.242 886.512 778.738 882.199 778.738H804.64C796.483 778.738 789.871 772.126 789.871 763.97V763.97Z" fill="#5E7959"/>
<path d="M796.406 763.97C796.406 759.109 800.346 755.168 805.207 755.168H890.007V772.771H805.207C800.346 772.771 796.406 768.831 796.406 763.97V763.97Z" fill="url(#paint7_linear_105_1566)"/>
<path d="M876.54 755.167V757.719C876.54 757.808 876.54 757.899 876.54 757.995V781.758C876.54 783.428 876.54 784.264 876.065 784.717C875.951 784.827 875.821 784.918 875.679 784.987C875.089 785.276 874.305 784.988 872.737 784.412L869.319 783.156C868.879 782.995 868.659 782.914 868.43 782.901C868.373 782.898 868.315 782.898 868.257 782.901C868.029 782.914 867.809 782.995 867.369 783.156L863.95 784.412C862.382 784.988 861.598 785.276 861.008 784.987C860.866 784.918 860.736 784.827 860.622 784.717C860.148 784.264 860.148 783.428 860.148 781.758V757.995C860.148 757.899 860.147 757.808 860.148 757.719V755.167H876.54Z" fill="url(#paint8_linear_105_1566)"/>
<rect x="438.17" y="653.735" width="92.0207" height="17.2031" rx="6.22373" fill="#5E7959"/>
<rect x="447.085" y="653.734" width="2.77281" height="17.2053" fill="#384C34"/>
<rect x="447.085" y="653.734" width="2.77281" height="17.2053" fill="#384C34"/>
<rect x="518.276" y="653.734" width="2.77281" height="17.2053" fill="#384C34"/>
<rect x="518.276" y="653.734" width="2.77281" height="17.2053" fill="#384C34"/>
<path d="M486.473 549.546C487.267 540.484 481.633 543.676 481.924 548.031C471.855 545.761 472.893 550.751 477.201 552.366C469.21 560.249 476.521 558.904 481.425 557.246C482.625 567.335 489.017 564.373 487.267 556.308C496.017 557.697 492.402 549.546 486.473 549.546Z" fill="#5E7959"/>
<path d="M469.499 589.205C469.499 582.145 474.594 563.625 481.54 556.894" stroke="#5E7959" stroke-width="1.40523"/>
<path d="M487.245 633.377H457.13C457.4 617.41 457.822 584.001 466.225 579.412H477.948C486.356 583.455 487.649 617.073 487.245 633.377Z" fill="#1A2E43"/>
<rect x="444.116" y="633.377" width="89.2504" height="20.8204" rx="7.8082" fill="#E5B39F"/>
<rect x="453.167" y="636.345" width="7.92553" height="14.883" rx="2.92808" fill="#C0856E"/>
<rect x="469.39" y="453.507" width="130.119" height="22.2076" rx="7.8082" fill="#90A7B7"/>
<rect x="481.996" y="453.506" width="3.92079" height="22.2104" fill="#55788F"/>
<rect x="481.996" y="453.506" width="3.92079" height="22.2104" fill="#55788F"/>
<rect x="582.661" y="453.506" width="3.92079" height="22.2104" fill="#55788F"/>
<rect x="582.661" y="453.506" width="3.92079" height="22.2104" fill="#55788F"/>
<rect x="476.726" y="396.039" width="115.448" height="21.5827" rx="7.8082" fill="#28415B"/>
<rect x="489.539" y="396.039" width="6.90043" height="21.5855" fill="#1A2E43"/>
<rect x="572.396" y="396.039" width="6.90043" height="21.5855" fill="#1A2E43"/>
<rect x="592.173" y="453.506" width="115.448" height="35.8796" rx="7.8082" transform="rotate(-180 592.173 453.506)" fill="#FADDD2"/>
<rect x="576.252" y="453.507" width="3.47872" height="35.883" transform="rotate(-180 576.252 453.507)" fill="#C0856E"/>
<rect x="581.528" y="453.507" width="3.47872" height="35.883" transform="rotate(-180 581.528 453.507)" fill="#C0856E"/>
<rect x="491.017" y="453.507" width="3.47872" height="35.883" transform="rotate(-180 491.017 453.507)" fill="#C0856E"/>
<rect x="564.933" y="444.087" width="60.9669" height="17.0431" rx="4.91643" transform="rotate(-180 564.933 444.087)" fill="#C0856E"/>
<rect x="664.206" y="474.153" width="115.448" height="35.8796" rx="7.8082" transform="rotate(-90 664.206 474.153)" fill="#5E7959"/>
<rect x="664.204" y="458.231" width="3.47872" height="35.883" transform="rotate(-90 664.204 458.231)" fill="#384C34"/>
<rect x="664.204" y="463.507" width="3.47872" height="35.883" transform="rotate(-90 664.204 463.507)" fill="#384C34"/>
<rect x="664.204" y="372.996" width="3.47872" height="35.883" transform="rotate(-90 664.204 372.996)" fill="#384C34"/>
<rect x="673.624" y="446.912" width="60.9669" height="17.0431" rx="4.91643" transform="rotate(-90 673.624 446.912)" fill="#384C34"/>
<rect x="703.469" y="474.66" width="115.448" height="35.8796" rx="7.8082" transform="rotate(-91.7052 703.469 474.66)" fill="#90A7B7"/>
<rect x="702.994" y="458.745" width="3.47872" height="35.883" transform="rotate(-91.7052 702.994 458.745)" fill="#55788F"/>
<rect x="703.151" y="464.019" width="3.47872" height="35.883" transform="rotate(-91.7052 703.151 464.019)" fill="#55788F"/>
<rect x="700.458" y="373.548" width="3.47872" height="35.883" transform="rotate(-91.7052 700.458 373.548)" fill="#55788F"/>
<rect x="712.073" y="447.151" width="60.9669" height="17.0431" rx="4.91643" transform="rotate(-91.7052 712.073 447.151)" fill="#55788F"/>
<rect x="773.891" y="475.969" width="115.448" height="35.8796" rx="7.8082" transform="rotate(-110.104 773.891 475.969)" fill="#714B71"/>
<rect x="768.417" y="461.018" width="3.47872" height="35.883" transform="rotate(-110.104 768.417 461.018)" fill="#462546"/>
<rect x="770.23" y="465.973" width="3.47872" height="35.883" transform="rotate(-110.104 770.23 465.973)" fill="#462546"/>
<rect x="739.12" y="380.976" width="3.47872" height="35.883" transform="rotate(-110.104 739.12 380.976)" fill="#462546"/>
<rect x="773.373" y="447.151" width="60.9669" height="17.0431" rx="4.91643" transform="rotate(-110.104 773.373 447.151)" fill="#462546"/>
<rect x="846.364" y="426.284" width="115.448" height="26.9317" rx="7.8082" fill="#90A7B7"/>
<rect x="858.073" y="430.124" width="10.2519" height="19.2516" rx="2.92808" fill="#55788F"/>
<path d="M849.238 409.434C849.238 400.165 856.751 392.652 866.019 392.652H955.216C959.528 392.652 963.024 396.148 963.024 400.46V418.407C963.024 422.719 959.528 426.215 955.216 426.215H866.019C856.751 426.215 849.238 418.702 849.238 409.434V409.434Z" fill="#384C34"/>
<path d="M856.663 409.434C856.663 403.91 861.141 399.433 866.664 399.433H963.024V419.435H866.664C861.141 419.435 856.663 414.957 856.663 409.434V409.434Z" fill="url(#paint9_linear_105_1566)"/>
<path d="M890.461 399.433V402.333C890.461 402.433 890.461 402.537 890.461 402.646V429.648C890.461 431.547 890.461 432.496 889.922 433.011C889.792 433.136 889.644 433.239 889.483 433.318C888.813 433.646 887.922 433.319 886.14 432.664L882.255 431.237C881.755 431.054 881.505 430.962 881.246 430.947C881.18 430.944 881.115 430.944 881.049 430.947C880.79 430.962 880.54 431.054 880.04 431.237L876.155 432.664C874.373 433.319 873.482 433.646 872.812 433.318C872.651 433.239 872.503 433.136 872.373 433.011C871.834 432.496 871.834 431.547 871.834 429.648V402.646C871.834 402.537 871.834 402.433 871.834 402.333V399.433H890.461Z" fill="url(#paint10_linear_105_1566)"/>
<rect x="850.323" y="453.412" width="115.448" height="21.5827" rx="7.8082" fill="#28415B"/>
<rect x="864.958" y="453.411" width="3.47872" height="21.5855" fill="#1A2E43"/>
<rect x="948.17" y="453.411" width="3.47872" height="21.5855" fill="#1A2E43"/>
<rect x="892.455" y="458.923" width="37.7797" height="10.5612" rx="3.04659" fill="#1A2E43"/>
<rect x="860.12" y="375.448" width="92.0207" height="17.2031" rx="6.22373" fill="#5E7959"/>
<rect x="869.036" y="375.447" width="2.77281" height="17.2053" fill="#384C34"/>
<rect x="869.036" y="375.447" width="2.77281" height="17.2053" fill="#384C34"/>
<rect x="940.226" y="375.447" width="2.77281" height="17.2053" fill="#384C34"/>
<rect x="940.226" y="375.447" width="2.77281" height="17.2053" fill="#384C34"/>
<rect x="1106.47" y="833.436" width="127.138" height="17.5683" rx="6.35587" transform="rotate(-90 1106.47 833.436)" fill="#E5B39F"/>
<rect x="1106.47" y="819.324" width="7.59916" height="17.5706" transform="rotate(-90 1106.47 819.324)" fill="#C0856E"/>
<rect x="1106.47" y="728.078" width="7.59916" height="17.5706" transform="rotate(-90 1106.47 728.078)" fill="#C0856E"/>
<rect x="1124.47" y="833.865" width="115.448" height="21.5827" rx="7.8082" transform="rotate(-90 1124.47 833.865)" fill="#90A7B7"/>
<rect x="1124.47" y="822.68" width="3.47872" height="21.5855" transform="rotate(-90 1124.47 822.68)" fill="#55788F"/>
<rect x="1124.47" y="822.68" width="3.47872" height="21.5855" transform="rotate(-90 1124.47 822.68)" fill="#55788F"/>
<rect x="1124.47" y="733.365" width="3.47872" height="21.5855" transform="rotate(-90 1124.47 733.365)" fill="#55788F"/>
<rect x="1124.47" y="733.365" width="3.47872" height="21.5855" transform="rotate(-90 1124.47 733.365)" fill="#55788F"/>
<rect x="1146.6" y="833.072" width="115.448" height="35.8796" rx="7.8082" transform="rotate(-90 1146.6 833.072)" fill="#714B71"/>
<rect x="1146.6" y="817.151" width="3.47872" height="35.883" transform="rotate(-90 1146.6 817.151)" fill="#462546"/>
<rect x="1146.6" y="822.427" width="3.47872" height="35.883" transform="rotate(-90 1146.6 822.427)" fill="#462546"/>
<rect x="1146.6" y="731.916" width="3.47872" height="35.883" transform="rotate(-90 1146.6 731.916)" fill="#462546"/>
<rect x="1156.02" y="805.832" width="60.9669" height="17.0431" rx="4.91643" transform="rotate(-90 1156.02 805.832)" fill="#462546"/>
<path d="M1563.38 621.135C1554.37 592.278 1537.22 593.384 1528.94 597.926C1528.47 598.182 1528.31 598.774 1528.55 599.252C1539.25 620.611 1555.04 623.663 1562.64 622.42C1563.23 622.323 1563.56 621.705 1563.38 621.135Z" fill="#8DB985" stroke="#8DB985" stroke-width="1.04274" stroke-linecap="round"/>
<path d="M1528.15 598.376C1538.71 602.786 1558.9 614.935 1563.28 622.088" stroke="#5E7959" stroke-width="1.04274" stroke-linecap="round"/>
<path d="M1428.65 594.886C1455.19 580.419 1466.74 593.136 1469.54 602.162C1469.7 602.673 1469.4 603.211 1468.9 603.388C1446.35 611.288 1432.88 602.506 1428.29 596.327C1427.93 595.848 1428.12 595.172 1428.65 594.886Z" fill="#8DB985" stroke="#8DB985" stroke-width="1.04274" stroke-linecap="round"/>
<path d="M1469.79 603.033C1459.14 598.861 1436.18 593.55 1428.06 595.642" stroke="#5E7959" stroke-width="1.04274" stroke-linecap="round"/>
<path d="M1456.48 543.837C1445.14 571.862 1459.09 581.884 1468.38 583.63C1468.9 583.729 1469.41 583.374 1469.52 582.853C1474.8 559.548 1464.53 547.176 1457.87 543.316C1457.35 543.017 1456.7 543.283 1456.48 543.837Z" fill="#8DB985" stroke="#8DB985" stroke-width="1.04274" stroke-linecap="round"/>
<path d="M1469.27 583.781C1463.91 573.675 1456.01 551.475 1457.16 543.165" stroke="#5E7959" stroke-width="1.04274" stroke-linecap="round"/>
<path d="M1511.67 627.699C1512.98 621.957 1515.54 612.646 1518.98 603.251M1531.94 577.87C1526.96 583.927 1522.51 593.634 1518.98 603.251M1518.98 603.251C1519.92 601.679 1523.06 598.492 1528.08 598.328" stroke="#5E7959" stroke-width="1.04274"/>
<path d="M1501.19 625.287C1501.13 622.108 1501.02 617.985 1500.82 613.609M1497.51 586.316C1499.16 588.675 1500.17 600.353 1500.71 611.241M1500.71 611.241C1501.49 608.939 1503.5 603.829 1505.35 601.809M1500.71 611.241C1500.75 612.036 1500.79 612.826 1500.82 613.609M1500.82 613.609C1499.26 611.655 1498.4 611.192 1496.49 610.373" stroke="#5E7959" stroke-width="1.04274"/>
<path d="M1469.1 583.402C1472.35 589.649 1477.83 600.852 1481.79 610.741M1486.44 625.34C1485.87 621.715 1484.08 616.447 1481.79 610.741M1481.79 610.741C1480.27 609.296 1475.75 605.734 1469.81 603.044" stroke="#5E7959" stroke-width="1.04274"/>
<path d="M1481.94 570.948C1483.45 578.667 1492.44 584.126 1497.18 586.09C1497.44 586.198 1497.73 586.078 1497.83 585.818C1499.35 582.032 1501.68 572.971 1500.11 563.389C1498.53 553.73 1489.82 548.882 1485.24 547.508C1484.98 547.43 1484.71 547.575 1484.62 547.833C1483.01 552.615 1480.44 563.225 1481.94 570.948Z" fill="#8DB985" stroke="#8DB985" stroke-width="1.04274"/>
<path d="M1484.9 547.517C1489.22 559.469 1497.42 583.907 1497.52 586.145" stroke="#5E7959" stroke-width="1.04274" stroke-linecap="round"/>
<path d="M1521.82 591.952C1519.28 598.046 1510.21 601.026 1505.57 601.846C1505.31 601.892 1505.06 601.733 1505 601.476C1504.18 598.088 1503.42 590.275 1506.3 582.686C1509.2 575.013 1517.91 572.486 1522.32 572.124C1522.58 572.102 1522.8 572.281 1522.85 572.537C1523.61 576.759 1524.35 585.874 1521.82 591.952Z" fill="#8DB985" stroke="#8DB985" stroke-width="1.04274"/>
<path d="M1522.63 572.187C1516.87 581.291 1505.67 600.01 1505.25 601.834" stroke="#5E7959" stroke-width="1.04274" stroke-linecap="round"/>
<path d="M1469.58 593.338C1476.45 614.832 1489.35 614.221 1495.75 610.865C1496.23 610.616 1496.39 610.023 1496.15 609.545C1488.05 593.699 1476.24 591.233 1470.33 592.066C1469.74 592.149 1469.4 592.767 1469.58 593.338Z" fill="#90BD88" stroke="#90BD88" stroke-width="1.04274" stroke-linecap="round"/>
<path d="M1496.56 610.417C1488.45 607.058 1472.94 597.806 1469.58 592.358" stroke="#5E7959" stroke-width="1.04274" stroke-linecap="round"/>
<path d="M1549.6 569.189C1546.78 574.922 1537.22 577.231 1532.39 577.727C1532.13 577.753 1531.9 577.593 1531.85 577.346C1531.09 574.038 1530.53 566.45 1533.74 559.303C1536.99 552.067 1546.15 550.178 1550.73 550.11C1550.98 550.106 1551.19 550.286 1551.23 550.533C1551.9 554.645 1552.41 563.483 1549.6 569.189Z" fill="#8DB985" stroke="#8DB985" stroke-width="1.04274"/>
<path d="M1551.02 550.191C1544.77 558.61 1532.59 575.96 1532.09 577.691" stroke="#5E7959" stroke-width="1.04274" stroke-linecap="round"/>
<path d="M1468.63 625.085L1477.37 672.131H1521.26L1530 625.085H1468.63Z" fill="#55788F"/>
<path d="M409.027 195.421L1567.44 278.726" stroke="#F3BEB3" stroke-width="4" stroke-linecap="square"/>
<path d="M408.979 195.841L1567.4 279.146" stroke="#DFB1A8" stroke-width="4" stroke-linecap="square"/>
<rect x="988.28" y="499.255" width="117.842" height="170.883" fill="#EDECEB"/>
<rect x="-116.024" y="531.925" width="172.736" height="270.329" transform="rotate(-90 -116.024 531.925)" fill="#B3CDDE" stroke="#A46851" stroke-width="7.40699"/>
<rect x="-58.1821" y="380.242" width="174.409" height="130.038" fill="#B3CDDE"/>
<path d="M-43.7215 478.814H-36.642L-36.6495 480.356H-41.8731V483.469H-37.2631V484.988H-41.8731V489.635H-43.7215V478.814ZM-29.9143 489.785C-30.9121 489.785 -31.7752 489.565 -32.5036 489.126C-33.2271 488.687 -33.7883 488.054 -34.1875 487.226C-34.5816 486.397 -34.7787 485.405 -34.7787 484.247C-34.7787 483.08 -34.5791 482.079 -34.18 481.246C-33.7809 480.413 -33.2171 479.774 -32.4887 479.33C-31.7553 478.886 -30.8971 478.664 -29.9143 478.664C-28.9314 478.664 -28.0808 478.886 -27.3624 479.33C-26.6389 479.774 -26.0802 480.413 -25.686 481.246C-25.2919 482.079 -25.0948 483.08 -25.0948 484.247C-25.0948 485.405 -25.2894 486.397 -25.6785 487.226C-26.0677 488.049 -26.624 488.682 -27.3474 489.126C-28.0708 489.565 -28.9264 489.785 -29.9143 489.785ZM-29.9143 488.258C-29.3256 488.258 -28.8192 488.121 -28.3951 487.847C-27.971 487.567 -27.6467 487.136 -27.4222 486.552C-27.1927 485.963 -27.078 485.202 -27.078 484.27C-27.078 483.322 -27.1927 482.548 -27.4222 481.95C-27.6517 481.346 -27.9785 480.902 -28.4026 480.617C-28.8267 480.333 -29.3306 480.191 -29.9143 480.191C-30.503 480.191 -31.0119 480.336 -31.441 480.625C-31.865 480.909 -32.1943 481.353 -32.4288 481.957C-32.6633 482.556 -32.7805 483.327 -32.7805 484.27C-32.7805 485.202 -32.6633 485.963 -32.4288 486.552C-32.1943 487.136 -31.865 487.567 -31.441 487.847C-31.0119 488.121 -30.503 488.258 -29.9143 488.258ZM-14.4332 485.684C-14.4332 486.542 -14.5729 487.278 -14.8522 487.892C-15.1316 488.5 -15.5782 488.969 -16.1918 489.299C-16.8005 489.623 -17.6037 489.785 -18.6016 489.785C-19.5994 489.785 -20.4051 489.62 -21.0188 489.291C-21.6275 488.957 -22.069 488.478 -22.3434 487.854C-22.6178 487.226 -22.755 486.467 -22.755 485.579V478.814H-20.8916V485.766C-20.8916 486.604 -20.687 487.223 -20.2779 487.622C-19.8638 488.021 -19.305 488.221 -18.6016 488.221C-18.1276 488.221 -17.716 488.134 -17.3668 487.959C-17.0175 487.784 -16.7481 487.517 -16.5585 487.158C-16.3689 486.794 -16.2741 486.33 -16.2741 485.766V478.814H-14.4332V485.684ZM-4.54174 478.814H-2.72321V489.635H-4.36213L-9.80276 481.695V489.635H-11.6213V478.814H-9.84018L-4.54174 486.545V478.814ZM0.345565 478.814C0.390467 478.814 0.522678 478.814 0.742199 478.814C0.96172 478.814 1.22115 478.814 1.5205 478.814C1.82484 478.814 2.13167 478.816 2.44099 478.821C2.75531 478.821 3.02721 478.824 3.25671 478.829C4.57384 478.854 5.644 479.081 6.4672 479.51C7.2954 479.934 7.90157 480.54 8.28574 481.328C8.67489 482.112 8.86946 483.057 8.86946 484.165C8.86946 485.322 8.66241 486.308 8.24832 487.121C7.83921 487.934 7.21058 488.558 6.36243 488.992C5.51927 489.421 4.44661 489.635 3.14446 489.635H0.345565V478.814ZM2.19403 480.318V488.131H3.17439C3.91777 488.131 4.57384 488.004 5.1426 487.749C5.71135 487.49 6.15539 487.071 6.47469 486.492C6.79898 485.913 6.96113 485.14 6.96113 484.172C6.96113 483.234 6.81145 482.483 6.51211 481.92C6.21276 481.356 5.7837 480.949 5.22492 480.7C4.66614 480.445 3.99759 480.318 3.21929 480.318H2.19403ZM11.3916 489.635V478.814H18.546L18.5385 480.378H13.2251V483.409H17.9173V484.951H13.2101V488.049L18.6507 488.056V489.635H11.3916ZM21.3852 478.814C21.4301 478.814 21.5623 478.814 21.7818 478.814C22.0013 478.814 22.2608 478.814 22.5601 478.814C22.8645 478.814 23.1713 478.816 23.4806 478.821C23.7949 478.821 24.0668 478.824 24.2963 478.829C25.6135 478.854 26.6836 479.081 27.5068 479.51C28.335 479.934 28.9412 480.54 29.3254 481.328C29.7145 482.112 29.9091 483.057 29.9091 484.165C29.9091 485.322 29.702 486.308 29.2879 487.121C28.8788 487.934 28.2502 488.558 27.4021 488.992C26.5589 489.421 25.4862 489.635 24.1841 489.635H21.3852V478.814ZM23.2337 480.318V488.131H24.214C24.9574 488.131 25.6135 488.004 26.1822 487.749C26.751 487.49 27.195 487.071 27.5143 486.492C27.8386 485.913 28.0008 485.14 28.0008 484.172C28.0008 483.234 27.8511 482.483 27.5517 481.92C27.2524 481.356 26.8233 480.949 26.2645 480.7C25.7058 480.445 25.0372 480.318 24.2589 480.318H23.2337ZM37.3286 485.826C37.0142 485.826 36.7299 485.751 36.4754 485.602C36.226 485.447 36.0239 485.24 35.8692 484.98C35.7196 484.721 35.6447 484.437 35.6447 484.127C35.6447 483.818 35.7196 483.536 35.8692 483.282C36.0239 483.027 36.226 482.825 36.4754 482.676C36.7299 482.521 37.0142 482.444 37.3286 482.444C37.6379 482.444 37.9198 482.521 38.1742 482.676C38.4336 482.825 38.6382 483.027 38.7879 483.282C38.9425 483.536 39.0199 483.818 39.0199 484.127C39.0199 484.437 38.9425 484.721 38.7879 484.98C38.6382 485.24 38.4336 485.447 38.1742 485.602C37.9198 485.751 37.6379 485.826 37.3286 485.826ZM43.0373 489.635V481.299H41.0317V480.213C41.6653 480.213 42.1667 480.161 42.5359 480.056C42.9101 479.946 43.182 479.787 43.3516 479.577C43.5262 479.368 43.626 479.113 43.651 478.814H44.8933V489.635H43.0373ZM47.7512 478.814H55.6165V480.333C55.2523 480.807 54.8906 481.356 54.5314 481.98C54.1722 482.598 53.8279 483.254 53.4987 483.948C53.1694 484.636 52.875 485.327 52.6156 486.021C52.3562 486.709 52.1441 487.365 51.9795 487.989C51.8148 488.613 51.7151 489.161 51.6801 489.635H49.7119C49.7718 489.171 49.8915 488.593 50.0711 487.899C50.2557 487.201 50.5077 486.432 50.827 485.594C51.1463 484.751 51.5429 483.88 52.0169 482.982C52.4909 482.084 53.0447 481.201 53.6783 480.333H47.7512V478.814ZM57.5256 478.814H65.3909V480.333C65.0267 480.807 64.665 481.356 64.3058 481.98C63.9466 482.598 63.6023 483.254 63.273 483.948C62.9437 484.636 62.6494 485.327 62.39 486.021C62.1305 486.709 61.9185 487.365 61.7538 487.989C61.5892 488.613 61.4894 489.161 61.4545 489.635H59.4863C59.5462 489.171 59.6659 488.593 59.8455 487.899C60.0301 487.201 60.2821 486.432 60.6014 485.594C60.9207 484.751 61.3173 483.88 61.7913 482.982C62.2652 482.084 62.819 481.201 63.4526 480.333H57.5256V478.814ZM70.7808 489.8C70.1472 489.8 69.5535 489.678 68.9997 489.433C68.4459 489.189 67.9894 488.842 67.6302 488.393C67.271 487.944 67.0614 487.415 67.0015 486.806H68.7452C68.85 487.26 69.077 487.63 69.4263 487.914C69.7755 488.193 70.2046 488.333 70.7134 488.333C71.2872 488.333 71.7836 488.191 72.2027 487.907C72.6268 487.622 72.9436 487.176 73.1531 486.567C73.3627 485.958 73.44 485.168 73.3851 484.195C73.2504 484.514 73.0533 484.793 72.7939 485.033C72.5395 485.272 72.2351 485.459 71.8809 485.594C71.5317 485.724 71.1425 485.789 70.7134 485.789C69.99 485.789 69.3489 485.652 68.7901 485.377C68.2363 485.098 67.8023 484.701 67.488 484.187C67.1737 483.668 67.0165 483.055 67.0165 482.346C67.0165 481.628 67.1762 480.992 67.4955 480.438C67.8198 479.884 68.2738 479.45 68.8575 479.136C69.4462 478.821 70.1372 478.664 70.9305 478.664C71.8135 478.664 72.5769 478.881 73.2205 479.315C73.8641 479.749 74.358 480.368 74.7022 481.171C75.0515 481.975 75.2261 482.927 75.2261 484.03C75.2261 485.287 75.049 486.345 74.6948 487.203C74.3455 488.056 73.8391 488.702 73.1756 489.141C72.517 489.58 71.7187 489.8 70.7808 489.8ZM70.9829 484.307C71.3321 484.307 71.6664 484.227 71.9857 484.067C72.305 483.908 72.5669 483.701 72.7715 483.446C72.976 483.192 73.0783 482.922 73.0783 482.638C73.0833 482.119 72.9985 481.67 72.8238 481.291C72.6492 480.907 72.4023 480.61 72.083 480.4C71.7686 480.186 71.3994 480.079 70.9754 480.079C70.5912 480.079 70.247 480.171 69.9426 480.356C69.6433 480.54 69.4088 480.797 69.2392 481.126C69.0695 481.451 68.9847 481.827 68.9847 482.256C68.9847 482.895 69.1618 483.396 69.5161 483.761C69.8703 484.125 70.3592 484.307 70.9829 484.307ZM78.8045 485.826C78.4901 485.826 78.2058 485.751 77.9513 485.602C77.7019 485.447 77.4998 485.24 77.3451 484.98C77.1955 484.721 77.1206 484.437 77.1206 484.127C77.1206 483.818 77.1955 483.536 77.3451 483.282C77.4998 483.027 77.7019 482.825 77.9513 482.676C78.2058 482.521 78.4901 482.444 78.8045 482.444C79.1138 482.444 79.3957 482.521 79.6501 482.676C79.9095 482.825 80.1141 483.027 80.2638 483.282C80.4184 483.536 80.4958 483.818 80.4958 484.127C80.4958 484.437 80.4184 484.721 80.2638 484.98C80.1141 485.24 79.9095 485.447 79.6501 485.602C79.3957 485.751 79.1138 485.826 78.8045 485.826Z" fill="black"/>
<path d="M24.8682 397.372C25.0871 396.737 25.9851 396.737 26.2039 397.372L27.0581 399.851C27.1563 400.136 27.4245 400.327 27.7259 400.327L30.3976 400.327C31.0919 400.327 31.3696 401.224 30.7968 401.617L28.7082 403.047C28.446 403.227 28.336 403.56 28.4396 403.86L29.254 406.223C29.4758 406.867 28.7485 407.421 28.187 407.036L25.9352 405.494C25.6946 405.329 25.3775 405.329 25.1369 405.494L22.8851 407.036C22.3236 407.421 21.5963 406.867 21.8181 406.223L22.6325 403.86C22.7361 403.56 22.6261 403.227 22.3639 403.047L20.2753 401.617C19.7025 401.224 19.9802 400.327 20.6745 400.327L23.3462 400.327C23.6476 400.327 23.9158 400.136 24.014 399.851L24.8682 397.372Z" fill="black"/>
<path d="M38.196 402.516H81.9696" stroke="black" stroke-width="2.82545" stroke-linecap="round"/>
<path d="M-31.3267 402.516H12.4469" stroke="black" stroke-width="2.82545" stroke-linecap="round"/>
<path d="M24.8682 451.875C25.0871 451.24 25.9851 451.24 26.2039 451.875L27.0581 454.354C27.1563 454.639 27.4245 454.83 27.7259 454.83L30.3976 454.83C31.0919 454.83 31.3696 455.727 30.7968 456.119L28.7082 457.55C28.446 457.729 28.336 458.062 28.4396 458.363L29.254 460.726C29.4758 461.369 28.7485 461.923 28.187 461.539L25.9352 459.996C25.6946 459.831 25.3775 459.831 25.1369 459.996L22.8851 461.539C22.3236 461.923 21.5963 461.369 21.8181 460.726L22.6325 458.363C22.7361 458.062 22.6261 457.729 22.3639 457.55L20.2753 456.119C19.7025 455.727 19.9802 454.83 20.6745 454.83L23.3462 454.83C23.6476 454.83 23.9158 454.639 24.014 454.354L24.8682 451.875Z" fill="black"/>
<path d="M38.196 457.018H81.9696" stroke="black" stroke-width="2.82545" stroke-linecap="round"/>
<path d="M-31.3267 457.018H12.4469" stroke="black" stroke-width="2.82545" stroke-linecap="round"/>
<rect x="-48.1073" y="418.97" width="156.851" height="20.8356" fill="black"/>
<path fill-rule="evenodd" clip-rule="evenodd" d="M-53.3274 430.016V443.438L29.4346 443.317L112.197 443.196L112.322 429.895L112.447 416.594H29.5599H-53.3274V430.016ZM-53.1202 430.254C-53.1202 437.636 -53.0547 440.588 -52.9752 436.815C-52.8956 433.043 -52.8956 427.004 -52.9756 423.395C-53.0552 419.786 -53.1207 422.873 -53.1202 430.254ZM-44.1447 424.122C-45.6671 424.504 -47.2056 426.25 -47.2056 427.595C-47.2056 429.477 -45.9737 430.898 -43.1732 432.248C-40.3426 433.612 -39.6263 434.871 -40.879 436.28C-42.4857 438.087 -45.087 437.041 -44.7677 434.717C-44.6439 433.815 -44.8332 433.609 -45.7863 433.609C-47.0695 433.609 -47.4806 434.585 -47.0069 436.506C-46.398 438.977 -40.1928 439.049 -38.5112 436.605C-37.6259 435.318 -37.5769 433.366 -38.402 432.218C-38.7396 431.748 -40.2748 430.683 -41.8132 429.85C-44.7814 428.244 -45.3742 427.26 -44.1348 425.998C-43.1939 425.041 -42.4763 425.018 -41.2915 425.908C-40.5587 426.458 -40.4942 426.715 -40.9661 427.202C-41.8547 428.119 -41.6781 428.576 -40.4349 428.576C-38.2452 428.576 -37.6297 425.84 -39.5854 424.798C-40.724 424.191 -43.048 423.847 -44.1447 424.122ZM6.03803 424.404C4.95212 424.792 4.22881 425.462 3.83748 426.445C2.94841 428.677 4.00089 430.415 7.30477 432.171C10.2701 433.748 11.0866 435.392 9.49356 436.578C7.62547 437.969 5.47954 436.761 5.89441 434.553C6.10114 433.453 5.99141 433.307 5.05808 433.448C2.15163 433.885 2.84481 437.296 6.01684 438.166C12.5813 439.965 15.426 432.503 9.13896 429.974C7.13431 429.167 6.00695 428.126 6.00695 427.081C6.00695 425.974 7.63535 425.074 8.89974 425.482C9.68992 425.738 9.82036 426.064 9.59386 427.218C9.33392 428.54 9.40455 428.629 10.6039 428.488C11.5872 428.373 11.9267 428.046 12.0332 427.114C12.3016 424.769 9.08528 423.316 6.03803 424.404ZM39.4847 424.448C33.7632 426.55 33.3125 435.012 38.7788 437.705C41.5685 439.08 43.6391 438.683 46.1584 436.291C47.8546 434.681 48.0872 434.189 48.2817 431.798C48.4583 429.634 48.3057 428.793 47.4944 427.457C45.7054 424.51 42.5461 423.323 39.4847 424.448ZM78.3473 424.274C72.9102 425.951 71.595 433.887 76.2009 437.225C80.3953 440.265 86.2684 437.277 86.8754 431.794C87.4094 426.973 82.7931 422.903 78.3473 424.274ZM-36.6544 424.926C-37.1089 426.132 -36.6389 428.323 -35.8944 428.466C-35.463 428.55 -34.9648 428.028 -34.6404 427.152C-34.2778 426.175 -33.781 425.701 -33.1193 425.701C-32.1827 425.701 -32.1366 425.947 -32.1366 430.956C-32.1366 435.746 -32.2213 436.258 -33.0916 436.732C-34.6521 437.582 -33.6797 438.163 -30.696 438.163C-28.5233 438.163 -27.8984 438.002 -27.8984 437.444C-27.8984 437.048 -28.1918 436.725 -28.5497 436.725C-29.4825 436.725 -29.7684 435.181 -29.7754 430.103L-29.782 425.637L-28.5059 425.789C-27.5937 425.897 -27.1511 426.282 -26.9547 427.136C-26.8035 427.794 -26.3053 428.405 -25.8471 428.495C-25.1375 428.634 -25.0367 428.352 -25.1615 426.58L-25.3084 424.502L-30.8505 424.367C-35.3411 424.258 -36.4425 424.364 -36.6544 424.926ZM-20.8348 424.982C-20.8348 425.377 -20.5169 425.701 -20.1284 425.701C-19.1169 425.701 -19.1937 426.025 -21.5035 431.527C-22.7278 434.444 -23.891 436.549 -24.3289 436.64C-24.7381 436.725 -25.0729 437.103 -25.0729 437.479C-25.0729 437.988 -24.4123 438.163 -22.483 438.163C-20.4948 438.163 -19.893 437.996 -19.893 437.444C-19.893 437.045 -20.3116 436.725 -20.8348 436.725C-21.8844 436.725 -22.0163 436.159 -21.2892 434.776C-20.9111 434.057 -20.2942 433.849 -18.5391 433.849C-16.5622 433.849 -16.2067 434.006 -15.7217 435.09C-15.2296 436.189 -15.2771 436.36 -16.1361 436.589C-16.6696 436.731 -17.028 437.089 -16.9324 437.385C-16.7383 437.985 -12.6683 438.386 -11.4797 437.922C-10.8186 437.664 -10.8539 437.516 -11.7416 436.815C-12.3151 436.362 -13.6205 433.789 -14.704 430.973C-15.7692 428.205 -17.0783 425.563 -17.6128 425.101C-18.8183 424.061 -20.8348 423.986 -20.8348 424.982ZM-10.4748 424.982C-10.4748 425.377 -10.1569 425.701 -9.76845 425.701C-9.21184 425.701 -9.04796 426.437 -8.99522 429.176C-8.86101 436.118 -8.92317 436.725 -9.76845 436.725C-10.1569 436.725 -10.4748 437.048 -10.4748 437.444C-10.4748 438.002 -9.84991 438.163 -7.67715 438.163C-4.69348 438.163 -3.72105 437.582 -5.28164 436.732C-5.9946 436.344 -6.23664 435.73 -6.23664 434.312C-6.23664 431.701 -5.27834 431.846 -3.45923 434.731C-2.01307 437.025 -0.438358 438.163 1.29223 438.163C2.80808 438.163 2.72002 437.452 1.03511 436.083C0.146981 435.362 -0.910206 434.122 -1.31377 433.327C-2.02767 431.922 -2.00931 431.847 -0.61024 430.517C1.50319 428.507 1.15613 426.394 -1.51815 424.986C-3.45499 423.967 -10.4748 423.963 -10.4748 424.982ZM18.9715 424.718C18.8194 424.968 19.125 425.407 19.6501 425.693C20.5156 426.165 20.6051 426.681 20.6051 431.213C20.6051 435.744 20.5156 436.26 19.6501 436.732C18.0895 437.582 19.0619 438.163 22.0456 438.163C24.2184 438.163 24.8433 438.002 24.8433 437.444C24.8433 437.048 24.548 436.725 24.1873 436.725C23.3655 436.725 22.9596 435.681 22.9596 433.57V431.932H26.0205H29.0814V434.072C29.0814 435.731 28.8667 436.328 28.1264 436.732C26.5658 437.582 27.5383 438.163 30.5219 438.163C32.5902 438.163 33.3196 437.99 33.3196 437.5C33.3196 437.135 32.8958 436.724 32.3778 436.586C31.5099 436.355 31.436 435.932 31.436 431.213C31.436 426.493 31.5099 426.071 32.3778 425.84C32.8958 425.702 33.3196 425.29 33.3196 424.926C33.3196 424.436 32.5902 424.263 30.5219 424.263C27.5383 424.263 26.5658 424.843 28.1264 425.693C28.8667 426.097 29.0814 426.694 29.0814 428.354V430.494H26.2414C23.0406 430.494 22.6606 430.109 23.1645 427.374C23.3491 426.373 23.7484 425.701 24.1581 425.701C24.5348 425.701 24.8433 425.377 24.8433 424.982C24.8433 424.423 24.2184 424.263 22.0456 424.263C20.5067 424.263 19.1236 424.467 18.9715 424.718ZM50.0651 424.695C49.9054 424.958 50.2049 425.407 50.73 425.693C51.5955 426.165 51.685 426.681 51.685 431.213C51.685 435.744 51.5955 436.26 50.73 436.732C48.9292 437.713 50.3325 438.163 55.1942 438.163C60.4081 438.163 60.6322 438.054 60.6322 435.516C60.6322 433.768 59.811 433.66 58.9789 435.297C58.2961 436.641 58.0451 436.764 56.2509 436.631L54.275 436.485L54.1408 431.292C54.0141 426.381 54.0598 426.085 54.9842 425.839C55.5219 425.696 55.8831 425.336 55.7875 425.041C55.5671 424.36 50.4559 424.052 50.0651 424.695ZM61.9084 424.561C61.3334 425.147 61.5387 425.579 62.5159 425.84C63.3837 426.071 63.4577 426.493 63.4577 431.213C63.4577 435.967 63.3884 436.354 62.4965 436.591C61.9682 436.732 61.6145 437.089 61.7106 437.385C61.8213 437.724 63.6837 437.974 66.7535 438.061C72.0197 438.209 72.3847 438.053 72.3978 435.646C72.4068 433.941 71.1363 433.88 70.5109 435.554C70.1045 436.642 69.8276 436.764 68.0504 436.633L66.0477 436.485L65.9135 431.292C65.7868 426.381 65.8325 426.085 66.7568 425.839C68.5477 425.362 67.4194 424.504 64.8144 424.361C63.4002 424.284 62.0925 424.374 61.9084 424.561ZM87.7758 424.594C87.5969 424.777 87.9552 425.37 88.5726 425.912C89.3416 426.589 90.2429 428.68 91.4381 432.561C93.599 439.579 94.2597 439.803 95.6903 434.001C96.222 431.846 96.7885 429.951 96.95 429.79C97.1115 429.629 97.8655 431.392 98.625 433.709C100.484 439.376 101.115 439.42 102.733 433.992C104.726 427.306 105.096 426.448 106.206 425.946C106.781 425.686 107.252 425.19 107.252 424.843C107.252 424.002 102.464 424.247 102.187 425.101C102.081 425.431 102.329 425.701 102.739 425.701C103.688 425.701 103.686 425.731 102.407 429.998L101.336 433.576L100.489 431.196C98.5629 425.778 97.9681 424.502 97.3672 424.502C96.6995 424.502 96.5309 424.946 95.2025 430.187L94.3695 433.476L93.0848 429.495C92.378 427.305 91.4216 425.232 90.9596 424.888C90.0559 424.215 88.3065 424.054 87.7758 424.594ZM39.4621 426.564C36.0141 430.074 38.2938 437.997 42.4462 436.936C44.1401 436.503 45.0598 434.987 45.3998 432.067C45.761 428.962 44.6647 426.456 42.6294 425.734C40.7646 425.072 40.9846 425.015 39.4621 426.564ZM78.6237 425.728C76.4665 426.6 75.5124 431.313 76.8385 434.545C78.02 437.422 80.2116 437.959 82.261 435.874C86.0829 431.983 83.1793 423.885 78.6237 425.728ZM-5.92255 426.02C-6.09537 426.196 -6.23664 427.382 -6.23664 428.657C-6.23664 430.883 -6.18437 430.973 -4.89691 430.973C-2.39356 430.973 -1.09527 428.119 -2.85977 426.494C-3.73377 425.689 -5.35134 425.438 -5.92255 426.02ZM-19.5483 430.494L-20.288 432.411H-18.678C-17.7922 432.411 -17.0675 432.264 -17.0675 432.086C-17.0675 431.383 -18.2161 428.576 -18.5033 428.576C-18.671 428.576 -19.1414 429.439 -19.5483 430.494Z" fill="#B3CDDE"/>
</g>
<defs>
<filter id="filter0_dddddd_105_1566" x="740.11" y="36.4047" width="240.646" height="217.623" filterUnits="userSpaceOnUse" color-interpolation-filters="sRGB">
<feFlood flood-opacity="0" result="BackgroundImageFix"/>
<feColorMatrix in="SourceAlpha" type="matrix" values="0 0 0 0 0 0 0 0 0 0 0 0 0 0 0 0 0 0 127 0" result="hardAlpha"/>
<feOffset/>
<feGaussianBlur stdDeviation="1.14361"/>
<feColorMatrix type="matrix" values="0 0 0 0 1 0 0 0 0 1 0 0 0 0 0.790082 0 0 0 1 0"/>
<feBlend mode="normal" in2="BackgroundImageFix" result="effect1_dropShadow_105_1566"/>
<feColorMatrix in="SourceAlpha" type="matrix" values="0 0 0 0 0 0 0 0 0 0 0 0 0 0 0 0 0 0 127 0" result="hardAlpha"/>
<feOffset/>
<feGaussianBlur stdDeviation="2.28722"/>
<feColorMatrix type="matrix" values="0 0 0 0 1 0 0 0 0 1 0 0 0 0 0.790082 0 0 0 1 0"/>
<feBlend mode="normal" in2="effect1_dropShadow_105_1566" result="effect2_dropShadow_105_1566"/>
<feColorMatrix in="SourceAlpha" type="matrix" values="0 0 0 0 0 0 0 0 0 0 0 0 0 0 0 0 0 0 127 0" result="hardAlpha"/>
<feOffset/>
<feGaussianBlur stdDeviation="8.00528"/>
<feColorMatrix type="matrix" values="0 0 0 0 1 0 0 0 0 1 0 0 0 0 0.790082 0 0 0 1 0"/>
<feBlend mode="normal" in2="effect2_dropShadow_105_1566" result="effect3_dropShadow_105_1566"/>
<feColorMatrix in="SourceAlpha" type="matrix" values="0 0 0 0 0 0 0 0 0 0 0 0 0 0 0 0 0 0 127 0" result="hardAlpha"/>
<feOffset/>
<feGaussianBlur stdDeviation="16.0106"/>
<feColorMatrix type="matrix" values="0 0 0 0 1 0 0 0 0 0.917647 0 0 0 0 0 0 0 0 1 0"/>
<feBlend mode="normal" in2="effect3_dropShadow_105_1566" result="effect4_dropShadow_105_1566"/>
<feColorMatrix in="SourceAlpha" type="matrix" values="0 0 0 0 0 0 0 0 0 0 0 0 0 0 0 0 0 0 127 0" result="hardAlpha"/>
<feOffset/>
<feGaussianBlur stdDeviation="27.4467"/>
<feColorMatrix type="matrix" values="0 0 0 0 1 0 0 0 0 0.917647 0 0 0 0 0 0 0 0 1 0"/>
<feBlend mode="normal" in2="effect4_dropShadow_105_1566" result="effect5_dropShadow_105_1566"/>
<feColorMatrix in="SourceAlpha" type="matrix" values="0 0 0 0 0 0 0 0 0 0 0 0 0 0 0 0 0 0 127 0" result="hardAlpha"/>
<feOffset/>
<feGaussianBlur stdDeviation="48.0317"/>
<feColorMatrix type="matrix" values="0 0 0 0 1 0 0 0 0 0.917647 0 0 0 0 0 0 0 0 1 0"/>
<feBlend mode="normal" in2="effect5_dropShadow_105_1566" result="effect6_dropShadow_105_1566"/>
<feBlend mode="normal" in="SourceGraphic" in2="effect6_dropShadow_105_1566" result="shape"/>
</filter>
<filter id="filter1_d_105_1566" x="1187.6" y="378.655" width="51.0673" height="51.0672" filterUnits="userSpaceOnUse" color-interpolation-filters="sRGB">
<feFlood flood-opacity="0" result="BackgroundImageFix"/>
<feColorMatrix in="SourceAlpha" type="matrix" values="0 0 0 0 0 0 0 0 0 0 0 0 0 0 0 0 0 0 127 0" result="hardAlpha"/>
<feMorphology radius="3.54757" operator="dilate" in="SourceAlpha" result="effect1_dropShadow_105_1566"/>
<feOffset dy="4.73009"/>
<feGaussianBlur stdDeviation="2.36505"/>
<feComposite in2="hardAlpha" operator="out"/>
<feColorMatrix type="matrix" values="0 0 0 0 0.513726 0 0 0 0 0.427451 0 0 0 0 0.266667 0 0 0 0.2 0"/>
<feBlend mode="normal" in2="BackgroundImageFix" result="effect1_dropShadow_105_1566"/>
<feBlend mode="normal" in="SourceGraphic" in2="effect1_dropShadow_105_1566" result="shape"/>
</filter>
<filter id="filter2_d_105_1566" x="1347.33" y="760.261" width="124.01" height="24.2542" filterUnits="userSpaceOnUse" color-interpolation-filters="sRGB">
<feFlood flood-opacity="0" result="BackgroundImageFix"/>
<feColorMatrix in="SourceAlpha" type="matrix" values="0 0 0 0 0 0 0 0 0 0 0 0 0 0 0 0 0 0 127 0" result="hardAlpha"/>
<feOffset dy="0.819125"/>
<feGaussianBlur stdDeviation="0.819125"/>
<feComposite in2="hardAlpha" operator="out"/>
<feColorMatrix type="matrix" values="0 0 0 0 0.0588235 0 0 0 0 0.141176 0 0 0 0 0.203922 0 0 0 0.1 0"/>
<feBlend mode="normal" in2="BackgroundImageFix" result="effect1_dropShadow_105_1566"/>
<feBlend mode="normal" in="SourceGraphic" in2="effect1_dropShadow_105_1566" result="shape"/>
</filter>
<filter id="filter3_d_105_1566" x="1389.95" y="717.25" width="74.458" height="14.5627" filterUnits="userSpaceOnUse" color-interpolation-filters="sRGB">
<feFlood flood-opacity="0" result="BackgroundImageFix"/>
<feColorMatrix in="SourceAlpha" type="matrix" values="0 0 0 0 0 0 0 0 0 0 0 0 0 0 0 0 0 0 127 0" result="hardAlpha"/>
<feOffset dy="0.491819"/>
<feGaussianBlur stdDeviation="0.491819"/>
<feComposite in2="hardAlpha" operator="out"/>
<feColorMatrix type="matrix" values="0 0 0 0 0.0588235 0 0 0 0 0.141176 0 0 0 0 0.203922 0 0 0 0.1 0"/>
<feBlend mode="normal" in2="BackgroundImageFix" result="effect1_dropShadow_105_1566"/>
<feBlend mode="normal" in="SourceGraphic" in2="effect1_dropShadow_105_1566" result="shape"/>
</filter>
<linearGradient id="paint0_linear_105_1566" x1="1521.04" y1="313.228" x2="512.829" y2="968.277" gradientUnits="userSpaceOnUse">
<stop stop-color="#F0EEEC"/>
<stop offset="1" stop-color="#E9E9E9"/>
</linearGradient>
<linearGradient id="paint1_linear_105_1566" x1="1213.13" y1="376.323" x2="1213.13" y2="453.916" gradientUnits="userSpaceOnUse">
<stop stop-color="#F5C36E"/>
<stop offset="1" stop-color="#7D6841"/>
<stop offset="1" stop-color="#7D6841"/>
</linearGradient>
<linearGradient id="paint2_linear_105_1566" x1="1225.53" y1="386.746" x2="1200.66" y2="412.034" gradientUnits="userSpaceOnUse">
<stop offset="0.191201" stop-color="white"/>
<stop offset="0.191201" stop-color="white"/>
<stop offset="1" stop-color="white"/>
</linearGradient>
<linearGradient id="paint3_linear_105_1566" x1="1432.15" y1="426.893" x2="1432.15" y2="446.895" gradientUnits="userSpaceOnUse">
<stop stop-color="#DED3C5"/>
<stop offset="1" stop-color="#EEE7E0"/>
</linearGradient>
<linearGradient id="paint4_linear_105_1566" x1="1460.71" y1="426.891" x2="1460.71" y2="460.905" gradientUnits="userSpaceOnUse">
<stop stop-color="#F7CE8C"/>
<stop offset="1" stop-color="#E1AF6F"/>
</linearGradient>
<linearGradient id="paint5_linear_105_1566" x1="1453.41" y1="776.594" x2="1347.3" y2="833.386" gradientUnits="userSpaceOnUse">
<stop stop-color="#FADDD2"/>
<stop offset="1" stop-color="#E5B39F"/>
</linearGradient>
<linearGradient id="paint6_linear_105_1566" x1="1453.64" y1="727.057" x2="1390.64" y2="770.163" gradientUnits="userSpaceOnUse">
<stop stop-color="#CCDEEB"/>
<stop offset="1" stop-color="#90A7B7"/>
</linearGradient>
<linearGradient id="paint7_linear_105_1566" x1="843.207" y1="755.168" x2="843.207" y2="772.771" gradientUnits="userSpaceOnUse">
<stop stop-color="#DED3C5"/>
<stop offset="1" stop-color="#EEE7E0"/>
</linearGradient>
<linearGradient id="paint8_linear_105_1566" x1="868.344" y1="755.167" x2="868.344" y2="785.101" gradientUnits="userSpaceOnUse">
<stop stop-color="#F7CE8C"/>
<stop offset="1" stop-color="#E1AF6F"/>
</linearGradient>
<linearGradient id="paint9_linear_105_1566" x1="909.844" y1="399.433" x2="909.844" y2="419.435" gradientUnits="userSpaceOnUse">
<stop stop-color="#DED3C5"/>
<stop offset="1" stop-color="#EEE7E0"/>
</linearGradient>
<linearGradient id="paint10_linear_105_1566" x1="881.147" y1="399.433" x2="881.147" y2="433.447" gradientUnits="userSpaceOnUse">
<stop stop-color="#F7CE8C"/>
<stop offset="1" stop-color="#E1AF6F"/>
</linearGradient>
<clipPath id="clip0_105_1566">
<rect width="1642.26" height="1098.25" fill="white" transform="translate(0.0471191 0.439728)"/>
</clipPath>
</defs>
</svg>
