<svg width="1643" height="1099" viewBox="0 0 1643 1099" fill="none" xmlns="http://www.w3.org/2000/svg">
<g clip-path="url(#clip0_105_1212)">
<rect width="1642.26" height="1098.25" fill="#FCF8F5"/>
<path d="M1642.78 285.408L-1.50537 168.008L0.0385816 -1.13257H1642.03L1642.78 285.408Z" fill="#F4927F"/>
<path d="M860.297 0.44165V60.5007" stroke="#384E68" stroke-width="6"/>
<path d="M874.82 73.0939V104.733H845.395V72.8939H845.399C845.514 65.3714 852.056 59.306 860.109 59.306C868.162 59.306 874.706 65.3714 874.82 72.8939C874.821 72.9606 874.82 73.0273 874.82 73.0939Z" fill="#384E68"/>
<g filter="url(#filter0_dddddd_105_1212)">
<path fill-rule="evenodd" clip-rule="evenodd" d="M836.127 134.728C836.623 147.323 847.29 157.385 860.377 157.385C873.78 157.385 884.646 146.83 884.646 133.811C884.646 133.164 884.619 132.522 884.566 131.888V134.728H836.127Z" fill="#FFFFC9" fill-opacity="0.8"/>
</g>
<path d="M874.772 104.67H845.546C845.372 104.67 845.202 104.722 845.059 104.82L794.174 139.544C793.472 140.023 793.811 141.122 794.661 141.122H927.312C928.169 141.122 928.503 140.009 927.788 139.537L875.249 104.813C875.108 104.719 874.942 104.67 874.772 104.67Z" fill="#475E78"/>
<path d="M415.489 211.299L415.489 838.775H1552.46V282.081L415.489 211.299Z" fill="url(#paint0_linear_105_1212)"/>
<path d="M415.489 211.299L415.489 837.201H503.866V217.647L415.489 211.299Z" fill="#8D8D8D" fill-opacity="0.1"/>
<path d="M662.166 226.383L662.166 838.775H750.544V232.594L662.166 226.383Z" fill="#8D8D8D" fill-opacity="0.1"/>
<path d="M993.268 248.163L993.268 838.775H1081.65V254.154L993.268 248.163Z" fill="#8D8D8D" fill-opacity="0.1"/>
<path d="M1325.69 261.092L1325.69 839.885H1414.07V266.963L1325.69 261.092Z" fill="#8D8D8D" fill-opacity="0.1"/>
<path d="M411.435 322.614L1552.11 322.614" stroke="#F2EEE7" stroke-width="20.0096"/>
<path d="M411.435 318.179L1552.11 318.179" stroke="white" stroke-width="20.0096"/>
<path d="M411.435 488.544L1552.11 488.544" stroke="#F2EEE7" stroke-width="20.0096"/>
<path d="M411.435 484.109L1552.11 484.109" stroke="white" stroke-width="20.0096"/>
<path d="M410.639 684.112L1551.31 684.112" stroke="#F2EEE7" stroke-width="20.0096"/>
<path d="M410.639 679.677L1551.31 679.677" stroke="white" stroke-width="20.0096"/>
<path d="M413.413 841.936L1554.09 841.936" stroke="white" stroke-width="20.0096"/>
<path d="M425.857 210.588L1566.34 291.399" stroke="#F2EEE7" stroke-width="20.0096"/>
<path d="M409.56 205.088L1566.16 287.093" stroke="white" stroke-width="20.0096"/>
<path d="M417.975 194.993L417.536 958.851" stroke="white" stroke-width="20.0096"/>
<path d="M654.8 230.225L653.631 959.39" stroke="white" stroke-width="20.0096"/>
<path d="M1319.72 277.802L1319.72 959.769" stroke="white" stroke-width="20.0096"/>
<path d="M986.216 683.983L986.216 961.287M987.704 252.361L988.724 491.391" stroke="white" stroke-width="20.0096"/>
<path d="M1558.25 278.296L1558.25 960.217" stroke="white" stroke-width="20.2333"/>
<rect x="1155.36" y="453.336" width="115.448" height="21.5827" rx="7.8082" fill="#90A7B7"/>
<rect x="1168.17" y="453.336" width="6.90043" height="21.5855" fill="#55788F"/>
<rect x="1251.03" y="453.336" width="6.90043" height="21.5855" fill="#55788F"/>
<path d="M1237.15 399.804C1237.15 386.516 1226.37 375.743 1213.08 375.743C1199.8 375.743 1189.02 386.516 1189.02 399.804V453.336H1237.15V399.804Z" fill="url(#paint1_linear_105_1212)"/>
<path opacity="0.6" d="M1189.02 425.221H1237.26" stroke="#67522B" stroke-width="2.36505"/>
<path opacity="0.6" d="M1189.02 430.621H1237.26" stroke="#67522B" stroke-width="2.36505"/>
<path opacity="0.6" d="M1189.02 436.021H1237.26" stroke="#67522B" stroke-width="2.36505"/>
<path opacity="0.6" d="M1188.91 419.821H1237.15" stroke="#67522B" stroke-width="2.36505"/>
<path opacity="0.6" d="M1188.91 452.221H1237.15" stroke="#67522B" stroke-width="2.36505"/>
<path opacity="0.6" d="M1188.91 441.421H1237.15" stroke="#67522B" stroke-width="2.36505"/>
<path opacity="0.6" d="M1189.02 446.821H1237.26" stroke="#67522B" stroke-width="2.36505"/>
<g filter="url(#filter1_d_105_1212)">
<circle cx="1213.08" cy="398.879" r="17.2559" fill="url(#paint2_linear_105_1212)"/>
</g>
<path d="M1206.25 403.851L1213.08 400.157V388.265" stroke="#323D51" stroke-width="1.18252"/>
<path d="M1211.45 373.126H1212V371.576L1211.53 371.934L1211.31 371.65L1212.12 371.033H1212.44V373.126H1212.97V373.516H1211.45V373.126ZM1212.93 397.516H1211.35V397.172C1211.38 397.149 1211.41 397.118 1211.46 397.08C1211.5 397.04 1211.55 396.995 1211.6 396.945C1211.65 396.896 1211.71 396.841 1211.77 396.782C1211.83 396.723 1211.89 396.661 1211.94 396.598C1212.02 396.508 1212.09 396.426 1212.15 396.353C1212.21 396.279 1212.26 396.211 1212.3 396.147C1212.34 396.081 1212.37 396.017 1212.39 395.955C1212.41 395.892 1212.42 395.827 1212.42 395.76C1212.42 395.713 1212.41 395.667 1212.39 395.622C1212.36 395.577 1212.33 395.538 1212.3 395.505C1212.26 395.469 1212.21 395.442 1212.16 395.423C1212.11 395.402 1212.05 395.391 1211.98 395.391C1211.9 395.391 1211.82 395.404 1211.75 395.43C1211.68 395.456 1211.61 395.5 1211.53 395.562L1211.35 395.235C1211.45 395.164 1211.56 395.105 1211.68 395.058C1211.8 395.008 1211.94 394.983 1212.1 394.983C1212.2 394.983 1212.3 394.998 1212.39 395.026C1212.49 395.054 1212.57 395.097 1212.64 395.154C1212.71 395.208 1212.77 395.277 1212.81 395.359C1212.86 395.442 1212.88 395.538 1212.88 395.647C1212.88 395.722 1212.87 395.793 1212.86 395.86C1212.85 395.923 1212.83 395.989 1212.8 396.055C1212.77 396.119 1212.74 396.185 1212.69 396.253C1212.65 396.322 1212.6 396.397 1212.53 396.477C1212.49 396.538 1212.44 396.601 1212.38 396.665C1212.32 396.726 1212.27 396.786 1212.22 396.842C1212.16 396.899 1212.11 396.952 1212.05 397.002C1212 397.052 1211.95 397.093 1211.91 397.126H1212.93V397.516Z" fill="#323D51"/>
<path d="M1213.96 413.609C1213.96 413.724 1213.94 413.832 1213.89 413.931C1213.85 414.031 1213.79 414.117 1213.71 414.19C1213.64 414.264 1213.55 414.322 1213.44 414.364C1213.34 414.407 1213.22 414.428 1213.1 414.428C1212.98 414.428 1212.86 414.409 1212.75 414.371C1212.65 414.331 1212.56 414.272 1212.47 414.194C1212.39 414.116 1212.33 414.018 1212.28 413.899C1212.24 413.781 1212.21 413.644 1212.21 413.488C1212.21 413.254 1212.25 413.041 1212.33 412.849C1212.42 412.658 1212.52 412.492 1212.65 412.353C1212.78 412.211 1212.92 412.097 1213.08 412.012C1213.24 411.925 1213.39 411.869 1213.55 411.845L1213.65 412.211C1213.53 412.235 1213.41 412.274 1213.3 412.328C1213.19 412.38 1213.1 412.444 1213.01 412.519C1212.93 412.595 1212.85 412.679 1212.79 412.771C1212.74 412.864 1212.7 412.959 1212.68 413.059C1212.72 413 1212.8 412.95 1212.89 412.91C1212.98 412.867 1213.09 412.846 1213.2 412.846C1213.31 412.846 1213.41 412.864 1213.5 412.899C1213.59 412.932 1213.67 412.982 1213.74 413.048C1213.81 413.112 1213.86 413.191 1213.9 413.286C1213.94 413.38 1213.96 413.488 1213.96 413.609ZM1213.51 413.626C1213.51 413.499 1213.47 413.402 1213.39 413.335C1213.32 413.269 1213.21 413.236 1213.08 413.236C1212.99 413.236 1212.91 413.257 1212.83 413.3C1212.75 413.343 1212.7 413.392 1212.66 413.449C1212.66 413.475 1212.65 413.505 1212.65 413.538C1212.65 413.568 1212.65 413.593 1212.65 413.612C1212.65 413.669 1212.66 413.723 1212.68 413.775C1212.7 413.827 1212.73 413.873 1212.76 413.914C1212.8 413.952 1212.84 413.982 1212.9 414.006C1212.95 414.027 1213.01 414.038 1213.08 414.038C1213.13 414.038 1213.19 414.028 1213.24 414.009C1213.29 413.988 1213.34 413.96 1213.38 413.924C1213.42 413.889 1213.45 413.846 1213.47 413.797C1213.5 413.745 1213.51 413.688 1213.51 413.626Z" fill="#323D51"/>
<path d="M1197.87 397.351C1197.87 397.231 1197.89 397.12 1197.93 397.018C1197.97 396.916 1198.03 396.83 1198.11 396.759C1198.18 396.686 1198.27 396.629 1198.37 396.589C1198.48 396.546 1198.6 396.525 1198.73 396.525C1198.86 396.525 1198.98 396.545 1199.09 396.585C1199.2 396.625 1199.29 396.686 1199.37 396.766C1199.45 396.844 1199.51 396.942 1199.55 397.061C1199.6 397.176 1199.62 397.31 1199.62 397.461C1199.62 397.736 1199.58 397.972 1199.51 398.171C1199.44 398.37 1199.34 398.535 1199.22 398.668C1199.1 398.8 1198.97 398.902 1198.81 398.973C1198.65 399.044 1198.48 399.089 1198.31 399.108L1198.21 398.746C1198.34 398.729 1198.46 398.697 1198.56 398.65C1198.67 398.603 1198.76 398.545 1198.84 398.476C1198.92 398.405 1198.98 398.326 1199.03 398.238C1199.08 398.149 1199.11 398.053 1199.13 397.951C1199.08 398.001 1199.01 398.041 1198.94 398.072C1198.86 398.1 1198.76 398.114 1198.66 398.114H1198.65C1198.56 398.114 1198.47 398.099 1198.37 398.068C1198.28 398.037 1198.2 397.99 1198.12 397.926C1198.05 397.862 1197.99 397.783 1197.94 397.688C1197.89 397.592 1197.87 397.479 1197.87 397.351ZM1198.32 397.327C1198.32 397.393 1198.33 397.452 1198.35 397.504C1198.38 397.554 1198.41 397.596 1198.45 397.632C1198.49 397.665 1198.54 397.691 1198.59 397.71C1198.65 397.726 1198.7 397.735 1198.76 397.735C1198.86 397.735 1198.94 397.719 1199.01 397.688C1199.08 397.658 1199.13 397.62 1199.17 397.575C1199.17 397.525 1199.18 397.478 1199.18 397.433C1199.18 397.367 1199.17 397.302 1199.15 397.238C1199.13 397.174 1199.1 397.117 1199.06 397.068C1199.03 397.018 1198.98 396.979 1198.92 396.951C1198.86 396.92 1198.8 396.904 1198.73 396.904C1198.61 396.904 1198.51 396.942 1198.44 397.018C1198.36 397.091 1198.32 397.194 1198.32 397.327Z" fill="#323D51"/>
<path d="M1227.17 398.717C1227.25 398.717 1227.32 398.708 1227.39 398.689C1227.45 398.668 1227.51 398.639 1227.55 398.604C1227.6 398.566 1227.64 398.523 1227.66 398.476C1227.69 398.426 1227.7 398.373 1227.7 398.316C1227.7 398.245 1227.69 398.186 1227.66 398.139C1227.63 398.089 1227.59 398.05 1227.54 398.022C1227.48 397.994 1227.42 397.973 1227.35 397.962C1227.28 397.95 1227.2 397.944 1227.11 397.944H1226.91V397.692L1227.51 396.965H1226.61V396.575H1228.06V396.897L1227.43 397.61H1227.52C1227.6 397.61 1227.68 397.625 1227.76 397.653C1227.83 397.681 1227.9 397.724 1227.96 397.781C1228.02 397.837 1228.07 397.908 1228.11 397.994C1228.15 398.079 1228.16 398.177 1228.16 398.288C1228.16 398.423 1228.14 398.541 1228.08 398.643C1228.02 398.744 1227.95 398.831 1227.86 398.902C1227.77 398.97 1227.67 399.022 1227.55 399.058C1227.43 399.091 1227.31 399.108 1227.18 399.108C1227.08 399.108 1226.97 399.098 1226.86 399.079C1226.76 399.06 1226.65 399.031 1226.55 398.99L1226.68 398.607C1226.7 398.619 1226.73 398.631 1226.76 398.643C1226.8 398.655 1226.84 398.666 1226.89 398.678C1226.93 398.69 1226.98 398.7 1227.03 398.707C1227.08 398.714 1227.13 398.717 1227.17 398.717Z" fill="#323D51"/>
<rect x="1024.6" y="346.631" width="128.454" height="26.9317" rx="7.8082" transform="rotate(90 1024.6 346.631)" fill="#E5B39F"/>
<rect x="1020.76" y="359.659" width="11.4068" height="19.2516" rx="2.92808" transform="rotate(90 1020.76 359.659)" fill="#C0856E"/>
<rect x="1024.6" y="475.085" width="121.559" height="35.8796" rx="7.8082" transform="rotate(-90 1024.6 475.085)" fill="#28415B"/>
<rect x="1024.6" y="458.321" width="3.66286" height="35.883" transform="rotate(-90 1024.6 458.321)" fill="#1A2E43"/>
<rect x="1024.6" y="463.876" width="3.66286" height="35.883" transform="rotate(-90 1024.6 463.876)" fill="#1A2E43"/>
<rect x="1024.6" y="368.574" width="3.66286" height="35.883" transform="rotate(-90 1024.6 368.574)" fill="#1A2E43"/>
<rect x="1034.02" y="446.402" width="64.194" height="17.0431" rx="4.91643" transform="rotate(-90 1034.02 446.402)" fill="#1A2E43"/>
<rect x="1079.21" y="344.905" width="129.286" height="21.5827" rx="7.8082" transform="rotate(80.5221 1079.21 344.905)" fill="#714B71"/>
<rect x="1081.57" y="359.059" width="7.72757" height="21.5855" transform="rotate(80.5221 1081.57 359.059)" fill="#462546"/>
<rect x="1096.85" y="450.581" width="7.72757" height="21.5855" transform="rotate(80.5221 1096.85 450.581)" fill="#462546"/>
<rect x="1043.38" y="703.514" width="129.286" height="21.5827" rx="7.8082" transform="rotate(90 1043.38 703.514)" fill="#714B71"/>
<rect x="1043.38" y="717.864" width="7.72757" height="21.5855" transform="rotate(90 1043.38 717.864)" fill="#462546"/>
<rect x="1043.38" y="810.652" width="7.72757" height="21.5855" transform="rotate(90 1043.38 810.652)" fill="#462546"/>
<rect x="1070.32" y="704.347" width="128.454" height="26.9317" rx="7.8082" transform="rotate(90 1070.32 704.347)" fill="#5E7959"/>
<rect x="1066.48" y="717.374" width="11.4068" height="19.2516" rx="2.92808" transform="rotate(90 1066.48 717.374)" fill="#384C34"/>
<rect x="1070.32" y="832.801" width="121.559" height="35.8796" rx="7.8082" transform="rotate(-90 1070.32 832.801)" fill="#28415B"/>
<rect x="1070.32" y="816.036" width="3.66286" height="35.883" transform="rotate(-90 1070.32 816.036)" fill="#1A2E43"/>
<rect x="1070.32" y="821.592" width="3.66286" height="35.883" transform="rotate(-90 1070.32 821.592)" fill="#1A2E43"/>
<rect x="1070.32" y="726.29" width="3.66286" height="35.883" transform="rotate(-90 1070.32 726.29)" fill="#1A2E43"/>
<rect x="1079.74" y="804.118" width="64.194" height="17.0431" rx="4.91643" transform="rotate(-90 1079.74 804.118)" fill="#1A2E43"/>
<rect x="1200.98" y="717.93" width="115.448" height="21.5827" rx="7.8082" transform="rotate(70.884 1200.98 717.93)" fill="#E5B39F"/>
<rect x="1205.02" y="730.249" width="3.47872" height="21.5855" transform="rotate(70.884 1205.02 730.249)" fill="#C0856E"/>
<rect x="1232.27" y="808.873" width="3.47872" height="21.5855" transform="rotate(70.884 1232.27 808.873)" fill="#C0856E"/>
<rect x="1208.81" y="758.034" width="37.7797" height="10.5612" rx="3.04659" transform="rotate(70.884 1208.81 758.034)" fill="#C0856E"/>
<rect x="1374.38" y="397.948" width="115.448" height="21.5827" rx="7.8082" fill="#28415B"/>
<rect x="1389.01" y="397.948" width="3.47872" height="21.5855" fill="#1A2E43"/>
<rect x="1472.23" y="397.948" width="3.47872" height="21.5855" fill="#1A2E43"/>
<rect x="1416.51" y="403.459" width="37.7797" height="10.5612" rx="3.04659" fill="#1A2E43"/>
<rect x="1375.87" y="453.133" width="115.448" height="21.5827" rx="7.8082" fill="#E5B39F"/>
<rect x="1388.68" y="453.133" width="6.90043" height="21.5855" fill="#C0856E"/>
<rect x="1471.54" y="453.133" width="6.90043" height="21.5855" fill="#C0856E"/>
<path d="M1371.5 436.313C1371.5 427.045 1379.01 419.532 1388.28 419.532H1477.47C1481.79 419.532 1485.28 423.028 1485.28 427.34V445.287C1485.28 449.599 1481.79 453.095 1477.47 453.095H1388.28C1379.01 453.095 1371.5 445.581 1371.5 436.313V436.313Z" fill="#5E7959"/>
<path d="M1378.92 436.314C1378.92 430.79 1383.4 426.312 1388.92 426.312H1485.28V446.315H1388.92C1383.4 446.315 1378.92 441.837 1378.92 436.314V436.314Z" fill="url(#paint3_linear_105_1212)"/>
<path d="M1469.98 426.311V429.211C1469.98 429.311 1469.98 429.415 1469.98 429.524V456.526C1469.98 458.425 1469.98 459.374 1469.44 459.89C1469.31 460.014 1469.16 460.117 1469 460.196C1468.33 460.524 1467.44 460.197 1465.66 459.542L1461.77 458.116C1461.27 457.932 1461.02 457.84 1460.76 457.826C1460.7 457.822 1460.63 457.822 1460.57 457.826C1460.31 457.84 1460.06 457.932 1459.56 458.116L1455.67 459.542C1453.89 460.197 1453 460.524 1452.33 460.196C1452.17 460.117 1452.02 460.014 1451.89 459.89C1451.35 459.374 1451.35 458.425 1451.35 456.526V429.524C1451.35 429.415 1451.35 429.311 1451.35 429.211V426.311H1469.98Z" fill="url(#paint4_linear_105_1212)"/>
<rect x="485.172" y="704.043" width="129.286" height="21.5827" rx="7.8082" transform="rotate(90 485.172 704.043)" fill="#714B71"/>
<rect x="485.172" y="718.393" width="7.72757" height="21.5855" transform="rotate(90 485.172 718.393)" fill="#462546"/>
<rect x="485.172" y="811.181" width="7.72757" height="21.5855" transform="rotate(90 485.172 811.181)" fill="#462546"/>
<rect x="512.103" y="704.876" width="128.454" height="26.9317" rx="7.8082" transform="rotate(90 512.103 704.876)" fill="#5E7959"/>
<rect x="508.263" y="717.903" width="11.4068" height="19.2516" rx="2.92808" transform="rotate(90 508.263 717.903)" fill="#384C34"/>
<rect x="512.105" y="833.33" width="121.559" height="35.8796" rx="7.8082" transform="rotate(-90 512.105 833.33)" fill="#28415B"/>
<rect x="512.103" y="816.565" width="3.66286" height="35.883" transform="rotate(-90 512.103 816.565)" fill="#1A2E43"/>
<rect x="512.103" y="822.121" width="3.66286" height="35.883" transform="rotate(-90 512.103 822.121)" fill="#1A2E43"/>
<rect x="512.103" y="726.819" width="3.66286" height="35.883" transform="rotate(-90 512.103 726.819)" fill="#1A2E43"/>
<rect x="521.524" y="804.647" width="64.194" height="17.0431" rx="4.91643" transform="rotate(-90 521.524 804.647)" fill="#1A2E43"/>
<rect x="566.656" y="718.855" width="115.448" height="21.5827" rx="7.8082" transform="rotate(70.884 566.656 718.855)" fill="#E5B39F"/>
<rect x="570.69" y="731.175" width="3.47872" height="21.5855" transform="rotate(70.884 570.69 731.175)" fill="#C0856E"/>
<rect x="597.94" y="809.798" width="3.47872" height="21.5855" transform="rotate(70.884 597.94 809.798)" fill="#C0856E"/>
<rect x="574.486" y="758.96" width="37.7797" height="10.5612" rx="3.04659" transform="rotate(70.884 574.486 758.96)" fill="#C0856E"/>
<rect x="1486.58" y="705.743" width="128.454" height="27.0849" rx="7.8082" transform="rotate(68.5307 1486.58 705.743)" fill="#5E7959"/>
<rect x="1487.76" y="719.28" width="11.4068" height="19.3611" rx="2.92808" transform="rotate(68.5307 1487.76 719.28)" fill="#384C34"/>
<path d="M1353.83 781.478H1464.74V829.53C1464.74 831.339 1463.28 832.806 1461.47 832.806H1357.11C1355.3 832.806 1353.83 831.339 1353.83 829.53V781.478Z" fill="url(#paint5_linear_105_1212)"/>
<g filter="url(#filter2_d_105_1212)">
<rect x="1348.92" y="760.5" width="120.733" height="20.9777" rx="3.2765" fill="#E8B8A5"/>
</g>
<rect x="1395.4" y="767.326" width="27.7832" height="7.32465" rx="0.819125" fill="#E8B8A5" stroke="#C0856E" stroke-width="1.63825"/>
<path d="M1393.84 729.757H1460.43V758.608C1460.43 759.695 1459.55 760.575 1458.46 760.575H1395.8C1394.72 760.575 1393.84 759.695 1393.84 758.608V729.757Z" fill="url(#paint6_linear_105_1212)"/>
<g filter="url(#filter3_d_105_1212)">
<rect x="1390.89" y="717.161" width="72.4908" height="12.5954" rx="1.96727" fill="#90A7B7"/>
</g>
<rect x="1418.79" y="721.26" width="16.6816" height="4.39786" rx="0.491819" fill="#90A7B7" stroke="#55788F" stroke-width="0.983637"/>
<rect x="785.808" y="731.051" width="93.9744" height="17.5683" rx="6.35587" fill="#E5B39F"/>
<rect x="796.238" y="731.051" width="5.61694" height="17.5706" fill="#C0856E"/>
<rect x="863.683" y="731.051" width="5.61694" height="17.5706" fill="#C0856E"/>
<rect x="772.884" y="811.536" width="115.448" height="21.5827" rx="7.8082" fill="#90A7B7"/>
<rect x="784.069" y="811.535" width="3.47872" height="21.5855" fill="#55788F"/>
<rect x="784.069" y="811.535" width="3.47872" height="21.5855" fill="#55788F"/>
<rect x="873.384" y="811.535" width="3.47872" height="21.5855" fill="#55788F"/>
<rect x="873.384" y="811.535" width="3.47872" height="21.5855" fill="#55788F"/>
<rect x="781.149" y="776.422" width="115.448" height="35.8796" rx="7.8082" fill="#714B71"/>
<rect x="797.071" y="776.42" width="3.47872" height="35.883" fill="#462546"/>
<rect x="791.795" y="776.42" width="3.47872" height="35.883" fill="#462546"/>
<rect x="882.306" y="776.42" width="3.47872" height="35.883" fill="#462546"/>
<rect x="808.389" y="785.84" width="60.9669" height="17.0431" rx="4.91643" fill="#462546"/>
<path d="M789.824 763.39C789.824 755.233 796.436 748.621 804.593 748.621H882.152C886.465 748.621 889.96 752.117 889.96 756.43V770.35C889.96 774.662 886.465 778.158 882.152 778.158H804.593C796.436 778.158 789.824 771.546 789.824 763.39V763.39Z" fill="#5E7959"/>
<path d="M796.359 763.39C796.359 758.529 800.299 754.588 805.16 754.588H889.96V772.191H805.16C800.299 772.191 796.359 768.25 796.359 763.39V763.39Z" fill="url(#paint7_linear_105_1212)"/>
<path d="M876.493 754.587V757.139C876.493 757.227 876.493 757.319 876.493 757.415V781.178C876.493 782.848 876.493 783.684 876.018 784.137C875.904 784.247 875.774 784.338 875.632 784.407C875.042 784.696 874.258 784.408 872.69 783.832L869.272 782.576C868.832 782.415 868.612 782.334 868.383 782.321C868.326 782.318 868.268 782.318 868.21 782.321C867.982 782.334 867.762 782.415 867.322 782.576L863.903 783.832C862.335 784.408 861.551 784.696 860.961 784.407C860.819 784.338 860.689 784.247 860.575 784.137C860.101 783.684 860.101 782.848 860.101 781.178V757.415C860.101 757.319 860.1 757.227 860.101 757.139V754.587H876.493Z" fill="url(#paint8_linear_105_1212)"/>
<rect x="438.123" y="653.155" width="92.0207" height="17.2031" rx="6.22373" fill="#5E7959"/>
<rect x="447.038" y="653.154" width="2.77281" height="17.2053" fill="#384C34"/>
<rect x="447.038" y="653.154" width="2.77281" height="17.2053" fill="#384C34"/>
<rect x="518.229" y="653.154" width="2.77281" height="17.2053" fill="#384C34"/>
<rect x="518.229" y="653.154" width="2.77281" height="17.2053" fill="#384C34"/>
<path d="M486.426 548.966C487.22 539.904 481.586 543.096 481.877 547.451C471.808 545.181 472.846 550.171 477.154 551.786C469.163 559.669 476.474 558.324 481.378 556.666C482.578 566.755 488.97 563.794 487.22 555.728C495.969 557.117 492.355 548.966 486.426 548.966Z" fill="#5E7959"/>
<path d="M469.452 588.625C469.452 581.566 474.547 563.045 481.492 556.314" stroke="#5E7959" stroke-width="1.40523"/>
<path d="M487.198 632.797H457.083C457.353 616.83 457.775 583.422 466.178 578.833H477.901C486.309 582.875 487.602 616.493 487.198 632.797Z" fill="#1A2E43"/>
<rect x="444.069" y="632.797" width="89.2504" height="20.8204" rx="7.8082" fill="#E5B39F"/>
<rect x="453.12" y="635.766" width="7.92553" height="14.883" rx="2.92808" fill="#C0856E"/>
<rect x="469.343" y="452.927" width="130.119" height="22.2076" rx="7.8082" fill="#90A7B7"/>
<rect x="481.949" y="452.926" width="3.92079" height="22.2104" fill="#55788F"/>
<rect x="481.949" y="452.926" width="3.92079" height="22.2104" fill="#55788F"/>
<rect x="582.614" y="452.926" width="3.92079" height="22.2104" fill="#55788F"/>
<rect x="582.614" y="452.926" width="3.92079" height="22.2104" fill="#55788F"/>
<rect x="476.679" y="395.459" width="115.448" height="21.5827" rx="7.8082" fill="#28415B"/>
<rect x="489.492" y="395.459" width="6.90043" height="21.5855" fill="#1A2E43"/>
<rect x="572.349" y="395.459" width="6.90043" height="21.5855" fill="#1A2E43"/>
<rect x="592.126" y="452.926" width="115.448" height="35.8796" rx="7.8082" transform="rotate(-180 592.126 452.926)" fill="#FADDD2"/>
<rect x="576.205" y="452.927" width="3.47872" height="35.883" transform="rotate(-180 576.205 452.927)" fill="#C0856E"/>
<rect x="581.48" y="452.927" width="3.47872" height="35.883" transform="rotate(-180 581.48 452.927)" fill="#C0856E"/>
<rect x="490.97" y="452.927" width="3.47872" height="35.883" transform="rotate(-180 490.97 452.927)" fill="#C0856E"/>
<rect x="564.886" y="443.507" width="60.9669" height="17.0431" rx="4.91643" transform="rotate(-180 564.886 443.507)" fill="#C0856E"/>
<rect x="664.158" y="473.573" width="115.448" height="35.8796" rx="7.8082" transform="rotate(-90 664.158 473.573)" fill="#5E7959"/>
<rect x="664.157" y="457.651" width="3.47872" height="35.883" transform="rotate(-90 664.157 457.651)" fill="#384C34"/>
<rect x="664.157" y="462.927" width="3.47872" height="35.883" transform="rotate(-90 664.157 462.927)" fill="#384C34"/>
<rect x="664.157" y="372.416" width="3.47872" height="35.883" transform="rotate(-90 664.157 372.416)" fill="#384C34"/>
<rect x="673.577" y="446.332" width="60.9669" height="17.0431" rx="4.91643" transform="rotate(-90 673.577 446.332)" fill="#384C34"/>
<rect x="703.422" y="474.08" width="115.448" height="35.8796" rx="7.8082" transform="rotate(-91.7052 703.422 474.08)" fill="#90A7B7"/>
<rect x="702.946" y="458.165" width="3.47872" height="35.883" transform="rotate(-91.7052 702.946 458.165)" fill="#55788F"/>
<rect x="703.104" y="463.439" width="3.47872" height="35.883" transform="rotate(-91.7052 703.104 463.439)" fill="#55788F"/>
<rect x="700.41" y="372.968" width="3.47872" height="35.883" transform="rotate(-91.7052 700.41 372.968)" fill="#55788F"/>
<rect x="712.026" y="446.571" width="60.9669" height="17.0431" rx="4.91643" transform="rotate(-91.7052 712.026 446.571)" fill="#55788F"/>
<rect x="773.844" y="475.389" width="115.448" height="35.8796" rx="7.8082" transform="rotate(-110.104 773.844 475.389)" fill="#714B71"/>
<rect x="768.37" y="460.438" width="3.47872" height="35.883" transform="rotate(-110.104 768.37 460.438)" fill="#462546"/>
<rect x="770.183" y="465.393" width="3.47872" height="35.883" transform="rotate(-110.104 770.183 465.393)" fill="#462546"/>
<rect x="739.073" y="380.396" width="3.47872" height="35.883" transform="rotate(-110.104 739.073 380.396)" fill="#462546"/>
<rect x="773.326" y="446.571" width="60.9669" height="17.0431" rx="4.91643" transform="rotate(-110.104 773.326 446.571)" fill="#462546"/>
<rect x="846.317" y="425.704" width="115.448" height="26.9317" rx="7.8082" fill="#90A7B7"/>
<rect x="858.026" y="429.544" width="10.2519" height="19.2516" rx="2.92808" fill="#55788F"/>
<path d="M849.191 408.854C849.191 399.586 856.704 392.072 865.972 392.072H955.169C959.481 392.072 962.977 395.568 962.977 399.88V417.827C962.977 422.139 959.481 425.635 955.169 425.635H865.972C856.704 425.635 849.191 418.122 849.191 408.854V408.854Z" fill="#384C34"/>
<path d="M856.616 408.854C856.616 403.33 861.093 398.853 866.617 398.853H962.977V418.855H866.617C861.093 418.855 856.616 414.377 856.616 408.854V408.854Z" fill="url(#paint9_linear_105_1212)"/>
<path d="M890.414 398.853V401.753C890.414 401.853 890.414 401.957 890.414 402.066V429.068C890.414 430.967 890.414 431.916 889.875 432.432C889.745 432.556 889.597 432.659 889.436 432.738C888.766 433.066 887.875 432.739 886.093 432.084L882.208 430.658C881.708 430.474 881.458 430.382 881.199 430.368C881.133 430.364 881.068 430.364 881.002 430.368C880.742 430.382 880.492 430.474 879.993 430.658L876.108 432.084C874.326 432.739 873.435 433.066 872.765 432.738C872.604 432.659 872.456 432.556 872.326 432.432C871.787 431.916 871.787 430.967 871.787 429.068V402.066C871.787 401.957 871.787 401.853 871.787 401.753V398.853H890.414Z" fill="url(#paint10_linear_105_1212)"/>
<rect x="850.276" y="452.832" width="115.448" height="21.5827" rx="7.8082" fill="#28415B"/>
<rect x="864.911" y="452.831" width="3.47872" height="21.5855" fill="#1A2E43"/>
<rect x="948.123" y="452.831" width="3.47872" height="21.5855" fill="#1A2E43"/>
<rect x="892.408" y="458.343" width="37.7797" height="10.5612" rx="3.04659" fill="#1A2E43"/>
<rect x="860.073" y="374.868" width="92.0207" height="17.2031" rx="6.22373" fill="#5E7959"/>
<rect x="868.988" y="374.867" width="2.77281" height="17.2053" fill="#384C34"/>
<rect x="868.988" y="374.867" width="2.77281" height="17.2053" fill="#384C34"/>
<rect x="940.179" y="374.867" width="2.77281" height="17.2053" fill="#384C34"/>
<rect x="940.179" y="374.867" width="2.77281" height="17.2053" fill="#384C34"/>
<rect x="1106.42" y="832.856" width="127.138" height="17.5683" rx="6.35587" transform="rotate(-90 1106.42 832.856)" fill="#E5B39F"/>
<rect x="1106.42" y="818.744" width="7.59916" height="17.5706" transform="rotate(-90 1106.42 818.744)" fill="#C0856E"/>
<rect x="1106.42" y="727.499" width="7.59916" height="17.5706" transform="rotate(-90 1106.42 727.499)" fill="#C0856E"/>
<rect x="1124.43" y="833.285" width="115.448" height="21.5827" rx="7.8082" transform="rotate(-90 1124.43 833.285)" fill="#90A7B7"/>
<rect x="1124.42" y="822.1" width="3.47872" height="21.5855" transform="rotate(-90 1124.42 822.1)" fill="#55788F"/>
<rect x="1124.42" y="822.1" width="3.47872" height="21.5855" transform="rotate(-90 1124.42 822.1)" fill="#55788F"/>
<rect x="1124.42" y="732.785" width="3.47872" height="21.5855" transform="rotate(-90 1124.42 732.785)" fill="#55788F"/>
<rect x="1124.42" y="732.785" width="3.47872" height="21.5855" transform="rotate(-90 1124.42 732.785)" fill="#55788F"/>
<rect x="1146.55" y="832.492" width="115.448" height="35.8796" rx="7.8082" transform="rotate(-90 1146.55 832.492)" fill="#714B71"/>
<rect x="1146.55" y="816.571" width="3.47872" height="35.883" transform="rotate(-90 1146.55 816.571)" fill="#462546"/>
<rect x="1146.55" y="821.847" width="3.47872" height="35.883" transform="rotate(-90 1146.55 821.847)" fill="#462546"/>
<rect x="1146.55" y="731.336" width="3.47872" height="35.883" transform="rotate(-90 1146.55 731.336)" fill="#462546"/>
<rect x="1155.97" y="805.252" width="60.9669" height="17.0431" rx="4.91643" transform="rotate(-90 1155.97 805.252)" fill="#462546"/>
<path d="M1563.33 620.555C1554.32 591.698 1537.18 592.804 1528.89 597.346C1528.42 597.602 1528.26 598.194 1528.5 598.672C1539.21 620.031 1554.99 623.083 1562.59 621.84C1563.18 621.743 1563.51 621.125 1563.33 620.555Z" fill="#8DB985" stroke="#8DB985" stroke-width="1.04274" stroke-linecap="round"/>
<path d="M1528.1 597.796C1538.66 602.206 1558.85 614.355 1563.23 621.508" stroke="#5E7959" stroke-width="1.04274" stroke-linecap="round"/>
<path d="M1428.6 594.306C1455.14 579.839 1466.7 592.556 1469.49 601.582C1469.65 602.093 1469.35 602.631 1468.85 602.808C1446.3 610.708 1432.84 601.926 1428.24 595.747C1427.88 595.268 1428.07 594.592 1428.6 594.306Z" fill="#8DB985" stroke="#8DB985" stroke-width="1.04274" stroke-linecap="round"/>
<path d="M1469.74 602.453C1459.09 598.281 1436.13 592.97 1428.01 595.062" stroke="#5E7959" stroke-width="1.04274" stroke-linecap="round"/>
<path d="M1456.43 543.257C1445.09 571.282 1459.05 581.304 1468.33 583.05C1468.86 583.149 1469.36 582.794 1469.48 582.273C1474.75 558.968 1464.49 546.596 1457.82 542.736C1457.31 542.437 1456.66 542.703 1456.43 543.257Z" fill="#8DB985" stroke="#8DB985" stroke-width="1.04274" stroke-linecap="round"/>
<path d="M1469.23 583.201C1463.86 573.095 1455.97 550.895 1457.12 542.585" stroke="#5E7959" stroke-width="1.04274" stroke-linecap="round"/>
<path d="M1511.62 627.119C1512.93 621.377 1515.49 612.066 1518.93 602.672M1531.89 577.29C1526.91 583.347 1522.46 593.054 1518.93 602.672M1518.93 602.672C1519.87 601.099 1523.01 597.912 1528.03 597.748" stroke="#5E7959" stroke-width="1.04274"/>
<path d="M1501.14 624.707C1501.09 621.528 1500.97 617.406 1500.77 613.029M1497.46 585.736C1499.12 588.095 1500.12 599.773 1500.66 610.661M1500.66 610.661C1501.44 608.359 1503.45 603.249 1505.31 601.229M1500.66 610.661C1500.7 611.456 1500.74 612.246 1500.77 613.029M1500.77 613.029C1499.21 611.075 1498.35 610.612 1496.44 609.793" stroke="#5E7959" stroke-width="1.04274"/>
<path d="M1469.05 582.822C1472.3 589.069 1477.78 600.272 1481.75 610.161M1486.39 624.76C1485.82 621.135 1484.03 615.867 1481.75 610.161M1481.75 610.161C1480.23 608.716 1475.7 605.154 1469.76 602.464" stroke="#5E7959" stroke-width="1.04274"/>
<path d="M1481.9 570.368C1483.4 578.087 1492.39 583.546 1497.13 585.51C1497.39 585.618 1497.68 585.497 1497.79 585.238C1499.31 581.452 1501.63 572.391 1500.06 562.809C1498.48 553.15 1489.77 548.302 1485.19 546.928C1484.93 546.85 1484.66 546.995 1484.58 547.253C1482.97 552.035 1480.39 562.644 1481.9 570.368Z" fill="#8DB985" stroke="#8DB985" stroke-width="1.04274"/>
<path d="M1484.86 546.937C1489.17 558.889 1497.37 583.327 1497.47 585.565" stroke="#5E7959" stroke-width="1.04274" stroke-linecap="round"/>
<path d="M1521.77 591.372C1519.23 597.466 1510.17 600.445 1505.52 601.266C1505.26 601.312 1505.01 601.153 1504.95 600.896C1504.13 597.508 1503.38 589.695 1506.25 582.106C1509.15 574.433 1517.86 571.906 1522.27 571.543C1522.53 571.522 1522.76 571.701 1522.8 571.957C1523.56 576.179 1524.31 585.294 1521.77 591.372Z" fill="#8DB985" stroke="#8DB985" stroke-width="1.04274"/>
<path d="M1522.59 571.607C1516.83 580.711 1505.63 599.43 1505.2 601.254" stroke="#5E7959" stroke-width="1.04274" stroke-linecap="round"/>
<path d="M1469.53 592.758C1476.41 614.251 1489.3 613.64 1495.71 610.285C1496.18 610.036 1496.35 609.443 1496.1 608.965C1488 593.119 1476.19 590.653 1470.29 591.486C1469.69 591.569 1469.35 592.187 1469.53 592.758Z" fill="#90BD88" stroke="#90BD88" stroke-width="1.04274" stroke-linecap="round"/>
<path d="M1496.51 609.837C1488.4 606.478 1472.9 597.226 1469.53 591.778" stroke="#5E7959" stroke-width="1.04274" stroke-linecap="round"/>
<path d="M1549.55 568.609C1546.73 574.341 1537.17 576.651 1532.34 577.147C1532.09 577.173 1531.86 577.013 1531.8 576.766C1531.04 573.458 1530.48 565.87 1533.69 558.723C1536.94 551.487 1546.1 549.598 1550.68 549.53C1550.93 549.526 1551.15 549.706 1551.19 549.953C1551.85 554.065 1552.36 562.903 1549.55 568.609Z" fill="#8DB985" stroke="#8DB985" stroke-width="1.04274"/>
<path d="M1550.97 549.611C1544.72 558.029 1532.54 575.38 1532.04 577.111" stroke="#5E7959" stroke-width="1.04274" stroke-linecap="round"/>
<path d="M1468.58 624.505L1477.33 671.551H1521.21L1529.95 624.505H1468.58Z" fill="#55788F"/>
<path d="M408.979 194.841L1567.4 278.146" stroke="#F3BEB3" stroke-width="4" stroke-linecap="square"/>
<rect x="985.833" y="498.47" width="117.842" height="170.883" fill="#EDECEB"/>
<rect x="-116.024" y="531.925" width="172.736" height="270.329" transform="rotate(-90 -116.024 531.925)" fill="#CCDEEB" stroke="#C0856E" stroke-width="7.40699"/>
<path d="M-43.7216 478.814H-36.6421L-36.6495 480.356H-41.8731V483.469H-37.2632V484.988H-41.8731V489.635H-43.7216V478.814ZM-29.9144 489.785C-30.9122 489.785 -31.7753 489.565 -32.5037 489.126C-33.2271 488.687 -33.7884 488.054 -34.1875 487.226C-34.5817 486.397 -34.7787 485.404 -34.7787 484.247C-34.7787 483.08 -34.5792 482.079 -34.18 481.246C-33.7809 480.413 -33.2171 479.774 -32.4887 479.33C-31.7553 478.886 -30.8972 478.664 -29.9144 478.664C-28.9315 478.664 -28.0809 478.886 -27.3624 479.33C-26.639 479.774 -26.0802 480.413 -25.6861 481.246C-25.2919 482.079 -25.0949 483.08 -25.0949 484.247C-25.0949 485.404 -25.2894 486.397 -25.6786 487.226C-26.0677 488.049 -26.624 488.682 -27.3475 489.126C-28.0709 489.565 -28.9265 489.785 -29.9144 489.785ZM-29.9144 488.258C-29.3256 488.258 -28.8192 488.121 -28.3952 487.847C-27.9711 487.567 -27.6468 487.136 -27.4223 486.552C-27.1928 485.963 -27.078 485.202 -27.078 484.269C-27.078 483.322 -27.1928 482.548 -27.4223 481.95C-27.6518 481.346 -27.9786 480.902 -28.4027 480.617C-28.8267 480.333 -29.3306 480.191 -29.9144 480.191C-30.5031 480.191 -31.012 480.336 -31.441 480.625C-31.8651 480.909 -32.1944 481.353 -32.4289 481.957C-32.6634 482.556 -32.7806 483.327 -32.7806 484.269C-32.7806 485.202 -32.6634 485.963 -32.4289 486.552C-32.1944 487.136 -31.8651 487.567 -31.441 487.847C-31.012 488.121 -30.5031 488.258 -29.9144 488.258ZM-14.4332 485.684C-14.4332 486.542 -14.5729 487.278 -14.8523 487.892C-15.1317 488.5 -15.5782 488.969 -16.1919 489.298C-16.8006 489.623 -17.6038 489.785 -18.6016 489.785C-19.5994 489.785 -20.4052 489.62 -21.0188 489.291C-21.6275 488.957 -22.0691 488.478 -22.3435 487.854C-22.6179 487.226 -22.7551 486.467 -22.7551 485.579V478.814H-20.8916V485.766C-20.8916 486.604 -20.6871 487.223 -20.278 487.622C-19.8639 488.021 -19.3051 488.221 -18.6016 488.221C-18.1277 488.221 -17.7161 488.134 -17.3668 487.959C-17.0176 487.784 -16.7482 487.517 -16.5586 487.158C-16.369 486.794 -16.2742 486.33 -16.2742 485.766V478.814H-14.4332V485.684ZM-4.5418 478.814H-2.72327V489.635H-4.36219L-9.80282 481.695V489.635H-11.6214V478.814H-9.84024L-4.5418 486.544V478.814ZM0.345504 478.814C0.390406 478.814 0.522617 478.814 0.742138 478.814C0.961659 478.814 1.22109 478.814 1.52044 478.814C1.82478 478.814 2.13161 478.816 2.44093 478.821C2.75524 478.821 3.02715 478.824 3.25665 478.829C4.57378 478.854 5.64394 479.081 6.46714 479.51C7.29534 479.934 7.90151 480.54 8.28568 481.328C8.67483 482.112 8.8694 483.057 8.8694 484.165C8.8694 485.322 8.66235 486.308 8.24826 487.121C7.83915 487.934 7.21052 488.558 6.36237 488.992C5.51921 489.421 4.44655 489.635 3.1444 489.635H0.345504V478.814ZM2.19397 480.318V488.131H3.17433C3.91771 488.131 4.57378 488.004 5.14253 487.749C5.71129 487.49 6.15532 487.071 6.47463 486.492C6.79892 485.913 6.96107 485.14 6.96107 484.172C6.96107 483.234 6.81139 482.483 6.51205 481.92C6.2127 481.356 5.78364 480.949 5.22486 480.7C4.66607 480.445 3.99753 480.318 3.21923 480.318H2.19397ZM11.3915 489.635V478.814H18.5459L18.5384 480.378H13.225V483.409H17.9173V484.95H13.21V488.049L18.6507 488.056V489.635H11.3915ZM21.3851 478.814C21.43 478.814 21.5622 478.814 21.7818 478.814C22.0013 478.814 22.2607 478.814 22.5601 478.814C22.8644 478.814 23.1712 478.816 23.4806 478.821C23.7949 478.821 24.0668 478.824 24.2963 478.829C25.6134 478.854 26.6836 479.081 27.5068 479.51C28.335 479.934 28.9411 480.54 29.3253 481.328C29.7144 482.112 29.909 483.057 29.909 484.165C29.909 485.322 29.702 486.308 29.2879 487.121C28.8788 487.934 28.2501 488.558 27.402 488.992C26.5588 489.421 25.4862 489.635 24.184 489.635H21.3851V478.814ZM23.2336 480.318V488.131H24.214C24.9573 488.131 25.6134 488.004 26.1822 487.749C26.7509 487.49 27.1949 487.071 27.5143 486.492C27.8385 485.913 28.0007 485.14 28.0007 484.172C28.0007 483.234 27.851 482.483 27.5517 481.92C27.2523 481.356 26.8233 480.949 26.2645 480.7C25.7057 480.445 25.0372 480.318 24.2589 480.318H23.2336ZM37.3285 485.826C37.0142 485.826 36.7298 485.751 36.4754 485.602C36.2259 485.447 36.0238 485.24 35.8692 484.98C35.7195 484.721 35.6447 484.437 35.6447 484.127C35.6447 483.818 35.7195 483.536 35.8692 483.282C36.0238 483.027 36.2259 482.825 36.4754 482.675C36.7298 482.521 37.0142 482.443 37.3285 482.443C37.6378 482.443 37.9197 482.521 38.1742 482.675C38.4336 482.825 38.6381 483.027 38.7878 483.282C38.9425 483.536 39.0198 483.818 39.0198 484.127C39.0198 484.437 38.9425 484.721 38.7878 484.98C38.6381 485.24 38.4336 485.447 38.1742 485.602C37.9197 485.751 37.6378 485.826 37.3285 485.826ZM43.0373 489.635V481.298H41.0316V480.213C41.6652 480.213 42.1667 480.161 42.5358 480.056C42.91 479.946 43.1819 479.787 43.3516 479.577C43.5262 479.368 43.626 479.113 43.6509 478.814H44.8932V489.635H43.0373ZM47.7511 478.814H55.6165V480.333C55.2523 480.807 54.8906 481.356 54.5313 481.979C54.1721 482.598 53.8279 483.254 53.4986 483.948C53.1693 484.636 52.875 485.327 52.6155 486.021C52.3561 486.709 52.1441 487.365 51.9794 487.989C51.8148 488.612 51.715 489.161 51.6801 489.635H49.7119C49.7717 489.171 49.8915 488.593 50.0711 487.899C50.2557 487.201 50.5076 486.432 50.8269 485.594C51.1462 484.751 51.5429 483.88 52.0168 482.982C52.4908 482.084 53.0446 481.201 53.6782 480.333H47.7511V478.814ZM57.5255 478.814H65.3908V480.333C65.0266 480.807 64.6649 481.356 64.3057 481.979C63.9465 482.598 63.6023 483.254 63.273 483.948C62.9437 484.636 62.6493 485.327 62.3899 486.021C62.1305 486.709 61.9184 487.365 61.7538 487.989C61.5891 488.612 61.4894 489.161 61.4544 489.635H59.4862C59.5461 489.171 59.6658 488.593 59.8454 487.899C60.03 487.201 60.282 486.432 60.6013 485.594C60.9206 484.751 61.3172 483.88 61.7912 482.982C62.2652 482.084 62.819 481.201 63.4526 480.333H57.5255V478.814ZM70.7807 489.8C70.1471 489.8 69.5534 489.678 68.9996 489.433C68.4458 489.189 67.9893 488.842 67.6301 488.393C67.2709 487.944 67.0614 487.415 67.0015 486.806H68.7452C68.8499 487.26 69.077 487.63 69.4262 487.914C69.7754 488.193 70.2045 488.333 70.7134 488.333C71.2871 488.333 71.7835 488.191 72.2026 487.907C72.6267 487.622 72.9435 487.176 73.1531 486.567C73.3626 485.958 73.4399 485.168 73.3851 484.195C73.2503 484.514 73.0533 484.793 72.7938 485.033C72.5394 485.272 72.2351 485.459 71.8808 485.594C71.5316 485.724 71.1424 485.789 70.7134 485.789C69.99 485.789 69.3489 485.651 68.7901 485.377C68.2363 485.098 67.8022 484.701 67.4879 484.187C67.1736 483.668 67.0164 483.055 67.0164 482.346C67.0164 481.628 67.1761 480.992 67.4954 480.438C67.8197 479.884 68.2737 479.45 68.8574 479.136C69.4461 478.821 70.1371 478.664 70.9304 478.664C71.8135 478.664 72.5768 478.881 73.2204 479.315C73.864 479.749 74.3579 480.368 74.7022 481.171C75.0514 481.974 75.226 482.927 75.226 484.03C75.226 485.287 75.0489 486.345 74.6947 487.203C74.3455 488.056 73.8391 488.702 73.1755 489.141C72.5169 489.58 71.7187 489.8 70.7807 489.8ZM70.9828 484.307C71.332 484.307 71.6663 484.227 71.9856 484.067C72.3049 483.908 72.5668 483.701 72.7714 483.446C72.9759 483.192 73.0782 482.922 73.0782 482.638C73.0832 482.119 72.9984 481.67 72.8238 481.291C72.6492 480.907 72.4022 480.61 72.0829 480.4C71.7686 480.186 71.3994 480.079 70.9753 480.079C70.5911 480.079 70.2469 480.171 69.9426 480.356C69.6432 480.54 69.4087 480.797 69.2391 481.126C69.0695 481.451 68.9847 481.827 68.9847 482.256C68.9847 482.895 69.1618 483.396 69.516 483.761C69.8702 484.125 70.3592 484.307 70.9828 484.307ZM78.8044 485.826C78.4901 485.826 78.2057 485.751 77.9513 485.602C77.7018 485.447 77.4997 485.24 77.3451 484.98C77.1954 484.721 77.1206 484.437 77.1206 484.127C77.1206 483.818 77.1954 483.536 77.3451 483.282C77.4997 483.027 77.7018 482.825 77.9513 482.675C78.2057 482.521 78.4901 482.443 78.8044 482.443C79.1137 482.443 79.3956 482.521 79.65 482.675C79.9095 482.825 80.114 483.027 80.2637 483.282C80.4184 483.536 80.4957 483.818 80.4957 484.127C80.4957 484.437 80.4184 484.721 80.2637 484.98C80.114 485.24 79.9095 485.447 79.65 485.602C79.3956 485.751 79.1137 485.826 78.8044 485.826Z" fill="black"/>
<path d="M24.8682 397.372C25.087 396.737 25.985 396.737 26.2039 397.372L27.0581 399.851C27.1563 400.136 27.4245 400.327 27.7259 400.327L30.3976 400.327C31.0919 400.327 31.3696 401.224 30.7968 401.617L28.7082 403.047C28.446 403.227 28.336 403.56 28.4396 403.86L29.254 406.223C29.4758 406.867 28.7485 407.421 28.187 407.036L25.9352 405.494C25.6946 405.329 25.3775 405.329 25.1368 405.494L22.8851 407.036C22.3235 407.421 21.5963 406.867 21.8181 406.223L22.6325 403.86C22.7361 403.56 22.6261 403.227 22.3639 403.047L20.2753 401.617C19.7025 401.224 19.9802 400.327 20.6745 400.327L23.3462 400.327C23.6476 400.327 23.9158 400.136 24.014 399.851L24.8682 397.372Z" fill="black"/>
<path d="M38.1961 402.516H81.9696" stroke="black" stroke-width="2.82545" stroke-linecap="round"/>
<path d="M-31.3266 402.516H12.4469" stroke="black" stroke-width="2.82545" stroke-linecap="round"/>
<path d="M24.8682 451.875C25.087 451.24 25.985 451.24 26.2039 451.875L27.0581 454.354C27.1563 454.639 27.4245 454.83 27.7259 454.83L30.3976 454.83C31.0919 454.83 31.3696 455.727 30.7968 456.119L28.7082 457.55C28.446 457.729 28.336 458.062 28.4396 458.363L29.254 460.726C29.4758 461.369 28.7485 461.923 28.187 461.539L25.9352 459.996C25.6946 459.831 25.3775 459.831 25.1368 459.996L22.8851 461.539C22.3235 461.923 21.5963 461.369 21.8181 460.726L22.6325 458.363C22.7361 458.062 22.6261 457.729 22.3639 457.55L20.2753 456.119C19.7025 455.727 19.9802 454.83 20.6745 454.83L23.3462 454.83C23.6476 454.83 23.9158 454.639 24.014 454.354L24.8682 451.875Z" fill="black"/>
<path d="M38.1961 457.018H81.9696" stroke="black" stroke-width="2.82545" stroke-linecap="round"/>
<path d="M-31.3266 457.018H12.4469" stroke="black" stroke-width="2.82545" stroke-linecap="round"/>
<rect x="-48.1073" y="418.97" width="156.851" height="20.8356" fill="black"/>
<path fill-rule="evenodd" clip-rule="evenodd" d="M-53.3274 430.016V443.438L29.4346 443.317L112.197 443.196L112.322 429.895L112.447 416.594H29.5599H-53.3274V430.016ZM-53.1202 430.254C-53.1202 437.636 -53.0547 440.588 -52.9752 436.815C-52.8956 433.043 -52.8956 427.004 -52.9756 423.395C-53.0552 419.786 -53.1207 422.873 -53.1202 430.254ZM-44.1447 424.122C-45.6671 424.504 -47.2056 426.25 -47.2056 427.595C-47.2056 429.477 -45.9737 430.898 -43.1732 432.248C-40.3426 433.612 -39.6263 434.871 -40.879 436.28C-42.4857 438.087 -45.087 437.041 -44.7677 434.716C-44.6439 433.815 -44.8332 433.609 -45.7863 433.609C-47.0695 433.609 -47.4806 434.585 -47.0069 436.506C-46.398 438.977 -40.1928 439.049 -38.5112 436.604C-37.6259 435.318 -37.5769 433.366 -38.402 432.218C-38.7396 431.748 -40.2748 430.683 -41.8132 429.85C-44.7814 428.244 -45.3742 427.26 -44.1348 425.998C-43.1939 425.041 -42.4763 425.018 -41.2915 425.908C-40.5587 426.458 -40.4942 426.715 -40.9661 427.202C-41.8547 428.119 -41.6781 428.576 -40.4349 428.576C-38.2452 428.576 -37.6297 425.84 -39.5854 424.798C-40.724 424.191 -43.048 423.847 -44.1447 424.122ZM6.03803 424.404C4.95212 424.792 4.22881 425.462 3.83748 426.445C2.94841 428.677 4.00089 430.415 7.30477 432.171C10.2701 433.748 11.0866 435.392 9.49356 436.578C7.62547 437.969 5.47954 436.761 5.89441 434.553C6.10114 433.453 5.99141 433.307 5.05808 433.448C2.15163 433.885 2.84481 437.296 6.01684 438.166C12.5813 439.965 15.426 432.503 9.13896 429.974C7.13431 429.167 6.00695 428.126 6.00695 427.081C6.00695 425.974 7.63535 425.074 8.89974 425.482C9.68992 425.738 9.82036 426.064 9.59386 427.218C9.33392 428.54 9.40455 428.629 10.6039 428.488C11.5872 428.373 11.9267 428.046 12.0332 427.114C12.3016 424.769 9.08528 423.316 6.03803 424.404ZM39.4847 424.448C33.7632 426.55 33.3125 435.012 38.7788 437.705C41.5685 439.08 43.6391 438.683 46.1584 436.291C47.8546 434.681 48.0872 434.189 48.2817 431.798C48.4583 429.634 48.3057 428.793 47.4944 427.457C45.7054 424.51 42.5461 423.323 39.4847 424.448ZM78.3473 424.274C72.9102 425.951 71.595 433.887 76.2009 437.225C80.3953 440.265 86.2684 437.276 86.8754 431.794C87.4094 426.973 82.7931 422.903 78.3473 424.274ZM-36.6544 424.926C-37.1089 426.132 -36.6389 428.323 -35.8944 428.466C-35.463 428.55 -34.9648 428.028 -34.6404 427.152C-34.2778 426.175 -33.781 425.701 -33.1193 425.701C-32.1827 425.701 -32.1366 425.947 -32.1366 430.956C-32.1366 435.746 -32.2213 436.258 -33.0916 436.732C-34.6521 437.582 -33.6797 438.163 -30.696 438.163C-28.5233 438.163 -27.8984 438.002 -27.8984 437.444C-27.8984 437.048 -28.1918 436.725 -28.5497 436.725C-29.4825 436.725 -29.7684 435.18 -29.7754 430.103L-29.782 425.637L-28.5059 425.789C-27.5937 425.897 -27.1511 426.281 -26.9547 427.136C-26.8035 427.794 -26.3053 428.405 -25.8471 428.495C-25.1375 428.634 -25.0367 428.352 -25.1615 426.58L-25.3084 424.502L-30.8505 424.367C-35.3411 424.258 -36.4425 424.364 -36.6544 424.926ZM-20.8348 424.982C-20.8348 425.377 -20.5169 425.701 -20.1284 425.701C-19.1169 425.701 -19.1937 426.025 -21.5035 431.527C-22.7278 434.444 -23.891 436.549 -24.3289 436.64C-24.7381 436.725 -25.0729 437.103 -25.0729 437.479C-25.0729 437.988 -24.4123 438.163 -22.483 438.163C-20.4948 438.163 -19.893 437.996 -19.893 437.444C-19.893 437.045 -20.3116 436.725 -20.8348 436.725C-21.8844 436.725 -22.0163 436.159 -21.2892 434.776C-20.9111 434.057 -20.2942 433.849 -18.5391 433.849C-16.5622 433.849 -16.2067 434.006 -15.7217 435.09C-15.2296 436.188 -15.2771 436.36 -16.1361 436.589C-16.6696 436.731 -17.028 437.089 -16.9324 437.385C-16.7383 437.985 -12.6683 438.386 -11.4797 437.922C-10.8186 437.664 -10.8539 437.516 -11.7416 436.815C-12.3151 436.362 -13.6205 433.789 -14.704 430.973C-15.7692 428.205 -17.0783 425.562 -17.6128 425.101C-18.8183 424.061 -20.8348 423.986 -20.8348 424.982ZM-10.4748 424.982C-10.4748 425.377 -10.1569 425.701 -9.76845 425.701C-9.21184 425.701 -9.04796 426.437 -8.99522 429.176C-8.86101 436.118 -8.92317 436.725 -9.76845 436.725C-10.1569 436.725 -10.4748 437.048 -10.4748 437.444C-10.4748 438.002 -9.84991 438.163 -7.67715 438.163C-4.69348 438.163 -3.72105 437.582 -5.28164 436.732C-5.9946 436.344 -6.23664 435.73 -6.23664 434.311C-6.23664 431.701 -5.27834 431.846 -3.45923 434.731C-2.01307 437.025 -0.438358 438.163 1.29223 438.163C2.80808 438.163 2.72002 437.451 1.03511 436.083C0.146981 435.362 -0.910206 434.122 -1.31377 433.327C-2.02767 431.922 -2.00931 431.847 -0.61024 430.517C1.50319 428.507 1.15613 426.394 -1.51815 424.986C-3.45499 423.967 -10.4748 423.963 -10.4748 424.982ZM18.9715 424.718C18.8194 424.968 19.125 425.407 19.6501 425.693C20.5156 426.165 20.6051 426.681 20.6051 431.213C20.6051 435.744 20.5156 436.26 19.6501 436.732C18.0895 437.582 19.0619 438.163 22.0456 438.163C24.2184 438.163 24.8433 438.002 24.8433 437.444C24.8433 437.048 24.548 436.725 24.1873 436.725C23.3655 436.725 22.9596 435.681 22.9596 433.57V431.932H26.0205H29.0814V434.072C29.0814 435.731 28.8667 436.328 28.1264 436.732C26.5658 437.582 27.5383 438.163 30.5219 438.163C32.5902 438.163 33.3196 437.99 33.3196 437.5C33.3196 437.135 32.8958 436.724 32.3778 436.586C31.5099 436.355 31.436 435.932 31.436 431.213C31.436 426.493 31.5099 426.071 32.3778 425.84C32.8958 425.701 33.3196 425.29 33.3196 424.925C33.3196 424.436 32.5902 424.263 30.5219 424.263C27.5383 424.263 26.5658 424.843 28.1264 425.693C28.8667 426.097 29.0814 426.694 29.0814 428.354V430.494H26.2414C23.0406 430.494 22.6606 430.109 23.1645 427.374C23.3491 426.373 23.7484 425.701 24.1581 425.701C24.5348 425.701 24.8433 425.377 24.8433 424.982C24.8433 424.423 24.2184 424.263 22.0456 424.263C20.5067 424.263 19.1236 424.467 18.9715 424.718ZM50.0651 424.695C49.9054 424.958 50.2049 425.407 50.73 425.693C51.5955 426.165 51.685 426.681 51.685 431.213C51.685 435.744 51.5955 436.26 50.73 436.732C48.9292 437.713 50.3325 438.163 55.1942 438.163C60.4081 438.163 60.6322 438.054 60.6322 435.515C60.6322 433.768 59.811 433.66 58.9789 435.297C58.2961 436.641 58.0451 436.764 56.2509 436.631L54.275 436.485L54.1408 431.292C54.0141 426.381 54.0598 426.084 54.9842 425.839C55.5219 425.696 55.8831 425.336 55.7875 425.041C55.5671 424.36 50.4559 424.052 50.0651 424.695ZM61.9084 424.561C61.3334 425.147 61.5387 425.579 62.5159 425.84C63.3837 426.071 63.4577 426.493 63.4577 431.213C63.4577 435.967 63.3884 436.354 62.4965 436.591C61.9682 436.732 61.6145 437.089 61.7106 437.385C61.8213 437.724 63.6837 437.974 66.7535 438.061C72.0197 438.209 72.3847 438.053 72.3978 435.646C72.4068 433.941 71.1363 433.88 70.5109 435.554C70.1045 436.642 69.8276 436.764 68.0504 436.633L66.0477 436.485L65.9135 431.292C65.7868 426.381 65.8325 426.084 66.7568 425.839C68.5477 425.362 67.4194 424.504 64.8144 424.361C63.4002 424.284 62.0925 424.374 61.9084 424.561ZM87.7758 424.594C87.5969 424.777 87.9552 425.37 88.5726 425.912C89.3416 426.589 90.2429 428.679 91.4381 432.56C93.599 439.579 94.2597 439.803 95.6903 434.001C96.222 431.846 96.7885 429.951 96.95 429.79C97.1115 429.629 97.8655 431.392 98.625 433.708C100.484 439.376 101.115 439.42 102.733 433.992C104.726 427.306 105.096 426.448 106.206 425.946C106.781 425.686 107.252 425.19 107.252 424.843C107.252 424.002 102.464 424.247 102.187 425.101C102.081 425.431 102.329 425.701 102.739 425.701C103.688 425.701 103.686 425.731 102.407 429.998L101.336 433.576L100.489 431.196C98.5629 425.778 97.9681 424.502 97.3672 424.502C96.6995 424.502 96.5309 424.946 95.2025 430.187L94.3695 433.476L93.0848 429.495C92.378 427.305 91.4216 425.232 90.9596 424.888C90.0559 424.215 88.3065 424.054 87.7758 424.594ZM39.4621 426.564C36.0141 430.074 38.2938 437.997 42.4462 436.936C44.1401 436.503 45.0598 434.987 45.3998 432.067C45.761 428.962 44.6647 426.456 42.6294 425.734C40.7646 425.072 40.9846 425.015 39.4621 426.564ZM78.6237 425.728C76.4665 426.6 75.5124 431.313 76.8385 434.545C78.02 437.422 80.2116 437.959 82.261 435.874C86.0829 431.983 83.1793 423.885 78.6237 425.728ZM-5.92255 426.02C-6.09537 426.196 -6.23664 427.382 -6.23664 428.656C-6.23664 430.883 -6.18437 430.973 -4.89691 430.973C-2.39356 430.973 -1.09527 428.119 -2.85977 426.494C-3.73377 425.689 -5.35134 425.438 -5.92255 426.02ZM-19.5483 430.494L-20.288 432.411H-18.678C-17.7922 432.411 -17.0675 432.264 -17.0675 432.085C-17.0675 431.383 -18.2161 428.576 -18.5033 428.576C-18.671 428.576 -19.1414 429.439 -19.5483 430.494Z" fill="#CCDEEB"/>
</g>
<defs>
<filter id="filter0_dddddd_105_1212" x="740.063" y="35.8248" width="240.646" height="217.623" filterUnits="userSpaceOnUse" color-interpolation-filters="sRGB">
<feFlood flood-opacity="0" result="BackgroundImageFix"/>
<feColorMatrix in="SourceAlpha" type="matrix" values="0 0 0 0 0 0 0 0 0 0 0 0 0 0 0 0 0 0 127 0" result="hardAlpha"/>
<feOffset/>
<feGaussianBlur stdDeviation="1.14361"/>
<feColorMatrix type="matrix" values="0 0 0 0 1 0 0 0 0 1 0 0 0 0 0.790082 0 0 0 1 0"/>
<feBlend mode="normal" in2="BackgroundImageFix" result="effect1_dropShadow_105_1212"/>
<feColorMatrix in="SourceAlpha" type="matrix" values="0 0 0 0 0 0 0 0 0 0 0 0 0 0 0 0 0 0 127 0" result="hardAlpha"/>
<feOffset/>
<feGaussianBlur stdDeviation="2.28722"/>
<feColorMatrix type="matrix" values="0 0 0 0 1 0 0 0 0 1 0 0 0 0 0.790082 0 0 0 1 0"/>
<feBlend mode="normal" in2="effect1_dropShadow_105_1212" result="effect2_dropShadow_105_1212"/>
<feColorMatrix in="SourceAlpha" type="matrix" values="0 0 0 0 0 0 0 0 0 0 0 0 0 0 0 0 0 0 127 0" result="hardAlpha"/>
<feOffset/>
<feGaussianBlur stdDeviation="8.00528"/>
<feColorMatrix type="matrix" values="0 0 0 0 1 0 0 0 0 1 0 0 0 0 0.790082 0 0 0 1 0"/>
<feBlend mode="normal" in2="effect2_dropShadow_105_1212" result="effect3_dropShadow_105_1212"/>
<feColorMatrix in="SourceAlpha" type="matrix" values="0 0 0 0 0 0 0 0 0 0 0 0 0 0 0 0 0 0 127 0" result="hardAlpha"/>
<feOffset/>
<feGaussianBlur stdDeviation="16.0106"/>
<feColorMatrix type="matrix" values="0 0 0 0 1 0 0 0 0 0.917647 0 0 0 0 0 0 0 0 1 0"/>
<feBlend mode="normal" in2="effect3_dropShadow_105_1212" result="effect4_dropShadow_105_1212"/>
<feColorMatrix in="SourceAlpha" type="matrix" values="0 0 0 0 0 0 0 0 0 0 0 0 0 0 0 0 0 0 127 0" result="hardAlpha"/>
<feOffset/>
<feGaussianBlur stdDeviation="27.4467"/>
<feColorMatrix type="matrix" values="0 0 0 0 1 0 0 0 0 0.917647 0 0 0 0 0 0 0 0 1 0"/>
<feBlend mode="normal" in2="effect4_dropShadow_105_1212" result="effect5_dropShadow_105_1212"/>
<feColorMatrix in="SourceAlpha" type="matrix" values="0 0 0 0 0 0 0 0 0 0 0 0 0 0 0 0 0 0 127 0" result="hardAlpha"/>
<feOffset/>
<feGaussianBlur stdDeviation="48.0317"/>
<feColorMatrix type="matrix" values="0 0 0 0 1 0 0 0 0 0.917647 0 0 0 0 0 0 0 0 1 0"/>
<feBlend mode="normal" in2="effect5_dropShadow_105_1212" result="effect6_dropShadow_105_1212"/>
<feBlend mode="normal" in="SourceGraphic" in2="effect6_dropShadow_105_1212" result="shape"/>
</filter>
<filter id="filter1_d_105_1212" x="1187.55" y="378.075" width="51.0672" height="51.0673" filterUnits="userSpaceOnUse" color-interpolation-filters="sRGB">
<feFlood flood-opacity="0" result="BackgroundImageFix"/>
<feColorMatrix in="SourceAlpha" type="matrix" values="0 0 0 0 0 0 0 0 0 0 0 0 0 0 0 0 0 0 127 0" result="hardAlpha"/>
<feMorphology radius="3.54757" operator="dilate" in="SourceAlpha" result="effect1_dropShadow_105_1212"/>
<feOffset dy="4.73009"/>
<feGaussianBlur stdDeviation="2.36505"/>
<feComposite in2="hardAlpha" operator="out"/>
<feColorMatrix type="matrix" values="0 0 0 0 0.513726 0 0 0 0 0.427451 0 0 0 0 0.266667 0 0 0 0.2 0"/>
<feBlend mode="normal" in2="BackgroundImageFix" result="effect1_dropShadow_105_1212"/>
<feBlend mode="normal" in="SourceGraphic" in2="effect1_dropShadow_105_1212" result="shape"/>
</filter>
<filter id="filter2_d_105_1212" x="1347.28" y="759.681" width="124.01" height="24.2543" filterUnits="userSpaceOnUse" color-interpolation-filters="sRGB">
<feFlood flood-opacity="0" result="BackgroundImageFix"/>
<feColorMatrix in="SourceAlpha" type="matrix" values="0 0 0 0 0 0 0 0 0 0 0 0 0 0 0 0 0 0 127 0" result="hardAlpha"/>
<feOffset dy="0.819125"/>
<feGaussianBlur stdDeviation="0.819125"/>
<feComposite in2="hardAlpha" operator="out"/>
<feColorMatrix type="matrix" values="0 0 0 0 0.0588235 0 0 0 0 0.141176 0 0 0 0 0.203922 0 0 0 0.1 0"/>
<feBlend mode="normal" in2="BackgroundImageFix" result="effect1_dropShadow_105_1212"/>
<feBlend mode="normal" in="SourceGraphic" in2="effect1_dropShadow_105_1212" result="shape"/>
</filter>
<filter id="filter3_d_105_1212" x="1389.9" y="716.67" width="74.458" height="14.5627" filterUnits="userSpaceOnUse" color-interpolation-filters="sRGB">
<feFlood flood-opacity="0" result="BackgroundImageFix"/>
<feColorMatrix in="SourceAlpha" type="matrix" values="0 0 0 0 0 0 0 0 0 0 0 0 0 0 0 0 0 0 127 0" result="hardAlpha"/>
<feOffset dy="0.491819"/>
<feGaussianBlur stdDeviation="0.491819"/>
<feComposite in2="hardAlpha" operator="out"/>
<feColorMatrix type="matrix" values="0 0 0 0 0.0588235 0 0 0 0 0.141176 0 0 0 0 0.203922 0 0 0 0.1 0"/>
<feBlend mode="normal" in2="BackgroundImageFix" result="effect1_dropShadow_105_1212"/>
<feBlend mode="normal" in="SourceGraphic" in2="effect1_dropShadow_105_1212" result="shape"/>
</filter>
<linearGradient id="paint0_linear_105_1212" x1="1520.99" y1="312.648" x2="512.782" y2="967.697" gradientUnits="userSpaceOnUse">
<stop stop-color="#F0EEEC"/>
<stop offset="1" stop-color="#E9E9E9"/>
</linearGradient>
<linearGradient id="paint1_linear_105_1212" x1="1213.08" y1="375.743" x2="1213.08" y2="453.336" gradientUnits="userSpaceOnUse">
<stop stop-color="#F5C36E"/>
<stop offset="1" stop-color="#7D6841"/>
<stop offset="1" stop-color="#7D6841"/>
</linearGradient>
<linearGradient id="paint2_linear_105_1212" x1="1225.49" y1="386.166" x2="1200.61" y2="411.454" gradientUnits="userSpaceOnUse">
<stop offset="0.191201" stop-color="white"/>
<stop offset="0.191201" stop-color="white"/>
<stop offset="1" stop-color="white"/>
</linearGradient>
<linearGradient id="paint3_linear_105_1212" x1="1432.1" y1="426.312" x2="1432.1" y2="446.315" gradientUnits="userSpaceOnUse">
<stop stop-color="#DED3C5"/>
<stop offset="1" stop-color="#EEE7E0"/>
</linearGradient>
<linearGradient id="paint4_linear_105_1212" x1="1460.67" y1="426.311" x2="1460.67" y2="460.325" gradientUnits="userSpaceOnUse">
<stop stop-color="#F7CE8C"/>
<stop offset="1" stop-color="#E1AF6F"/>
</linearGradient>
<linearGradient id="paint5_linear_105_1212" x1="1453.36" y1="776.014" x2="1347.26" y2="832.806" gradientUnits="userSpaceOnUse">
<stop stop-color="#FADDD2"/>
<stop offset="1" stop-color="#E5B39F"/>
</linearGradient>
<linearGradient id="paint6_linear_105_1212" x1="1453.59" y1="726.477" x2="1390.59" y2="769.583" gradientUnits="userSpaceOnUse">
<stop stop-color="#CCDEEB"/>
<stop offset="1" stop-color="#90A7B7"/>
</linearGradient>
<linearGradient id="paint7_linear_105_1212" x1="843.16" y1="754.588" x2="843.16" y2="772.191" gradientUnits="userSpaceOnUse">
<stop stop-color="#DED3C5"/>
<stop offset="1" stop-color="#EEE7E0"/>
</linearGradient>
<linearGradient id="paint8_linear_105_1212" x1="868.297" y1="754.587" x2="868.297" y2="784.521" gradientUnits="userSpaceOnUse">
<stop stop-color="#F7CE8C"/>
<stop offset="1" stop-color="#E1AF6F"/>
</linearGradient>
<linearGradient id="paint9_linear_105_1212" x1="909.796" y1="398.853" x2="909.796" y2="418.855" gradientUnits="userSpaceOnUse">
<stop stop-color="#DED3C5"/>
<stop offset="1" stop-color="#EEE7E0"/>
</linearGradient>
<linearGradient id="paint10_linear_105_1212" x1="881.1" y1="398.853" x2="881.1" y2="432.867" gradientUnits="userSpaceOnUse">
<stop stop-color="#F7CE8C"/>
<stop offset="1" stop-color="#E1AF6F"/>
</linearGradient>
<clipPath id="clip0_105_1212">
<rect width="1642.26" height="1098.25" fill="white"/>
</clipPath>
</defs>
</svg>
