<svg width="71" height="116" viewBox="0 0 71 116" fill="none" xmlns="http://www.w3.org/2000/svg">
<path d="M0.562256 13.1383C0.562256 6.01967 6.33303 0.248901 13.4516 0.248901H65.8909C68.5603 0.248901 70.7244 2.41294 70.7244 5.08242V106.074C70.7244 108.743 68.5603 110.907 65.8909 110.907H13.4516C6.33303 110.907 0.562256 105.137 0.562256 98.0179V13.1383Z" fill="#A08FA0"/>
<path d="M0.505859 10.5342C0.505859 4.98405 5.00512 0.484802 10.5552 0.484802V0.484802V99.2313H0.505859V10.5342Z" fill="#714B71"/>
<path d="M0.56543 100.56C0.56543 94.8457 5.19801 90.2131 10.9126 90.2131H70.7244V106.074C70.7244 108.743 68.5604 110.907 65.8909 110.907H10.9126C5.19801 110.907 0.56543 106.275 0.56543 100.56V100.56Z" fill="#462546"/>
<path d="M5.14392 100.56C5.14392 97.1546 7.90476 94.3938 11.3104 94.3938H70.7246V106.727H11.3104C7.90476 106.727 5.14392 103.966 5.14392 100.56V100.56Z" fill="url(#paint0_linear_65_713)"/>
<path d="M61.2883 94.3926V96.1808C61.2884 96.2426 61.2883 96.3068 61.2883 96.3737V113.023C61.2883 114.194 61.2883 114.779 60.9558 115.097C60.8759 115.173 60.7846 115.237 60.6853 115.286C60.2722 115.488 59.7228 115.286 58.624 114.883L56.2288 114.003C55.9206 113.89 55.7665 113.833 55.6064 113.824C55.566 113.822 55.5255 113.822 55.4852 113.824C55.3251 113.833 55.1709 113.89 54.8627 114.003L52.4675 114.883C51.3688 115.286 50.8194 115.488 50.4063 115.286C50.3069 115.237 50.2157 115.173 50.1357 115.097C49.8033 114.779 49.8033 114.194 49.8033 113.023V96.3737C49.8033 96.3068 49.8032 96.2426 49.8033 96.1808V94.3926H61.2883Z" fill="url(#paint1_linear_65_713)"/>
<defs>
<linearGradient id="paint0_linear_65_713" x1="37.9343" y1="94.3938" x2="37.9343" y2="106.727" gradientUnits="userSpaceOnUse">
<stop stop-color="#DED3C5"/>
<stop offset="1" stop-color="#EEE7E0"/>
</linearGradient>
<linearGradient id="paint1_linear_65_713" x1="55.5458" y1="94.3926" x2="55.5458" y2="115.365" gradientUnits="userSpaceOnUse">
<stop stop-color="#F8BE54"/>
<stop offset="1" stop-color="#D8B466"/>
</linearGradient>
</defs>
</svg>
