<svg width="1211" height="843" viewBox="0 0 1211 843" fill="none" xmlns="http://www.w3.org/2000/svg">
<ellipse cx="605.263" cy="797.959" rx="604.913" ry="44.0737" fill="#315D7D" fill-opacity="0.14"/>
<path d="M34.5357 35.8773L34.5353 663.326H1171.46V106.657L34.5357 35.8773Z" fill="url(#paint0_linear_133_883)"/>
<path d="M34.5353 35.8773L34.5353 661.753H122.909V42.2254L34.5353 35.8773Z" fill="#8D8D8D" fill-opacity="0.1"/>
<path d="M281.202 50.9606L281.202 663.326H369.575V57.1716L281.202 50.9606Z" fill="#8D8D8D" fill-opacity="0.1"/>
<path d="M612.289 510.923L612.289 663.326H700.663V512.469L612.289 510.923Z" fill="#8D8D8D" fill-opacity="0.1"/>
<path d="M612.289 72.7399L612.289 318.609H700.663V75.2337L612.289 72.7399Z" fill="#8D8D8D" fill-opacity="0.1"/>
<path d="M944.696 85.6685L944.696 664.436H1033.07V91.5387L944.696 85.6685Z" fill="#8D8D8D" fill-opacity="0.1"/>
<path d="M30.4815 147.187L1171.1 147.187" stroke="#F2EEE7" stroke-width="20.0096"/>
<path d="M30.4815 142.752L1171.1 142.753" stroke="white" stroke-width="20.0096"/>
<path d="M30.4815 313.11L1171.1 313.11" stroke="#F2EEE7" stroke-width="20.0096"/>
<path d="M30.4815 308.675L1171.1 308.675" stroke="white" stroke-width="20.0096"/>
<path d="M29.6851 508.67L1170.31 508.67" stroke="#F2EEE7" stroke-width="20.0096"/>
<path d="M29.6853 504.235L1170.31 504.235" stroke="white" stroke-width="20.0096"/>
<path d="M32.4591 666.487L1173.08 666.487" stroke="white" stroke-width="20.0096"/>
<path d="M44.9027 35.1669L1185.33 115.974" stroke="#F2EEE7" stroke-width="20.0096"/>
<path d="M28.6065 29.6665L1185.15 111.668" stroke="white" stroke-width="20.0096"/>
<path d="M37.0214 19.5726L36.5825 783.398" stroke="white" stroke-width="20.0096"/>
<path d="M273.836 54.8029L272.667 783.937" stroke="white" stroke-width="20.0096"/>
<path d="M938.73 102.378L938.73 784.315" stroke="white" stroke-width="20.0096"/>
<path d="M605.237 508.541L605.237 785.833M606.725 76.9374L607.746 315.957" stroke="white" stroke-width="20.0096"/>
<path d="M1177.25 102.871L1177.25 784.763" stroke="white" stroke-width="20.2333"/>
<rect x="774.374" y="277.904" width="115.443" height="21.5818" rx="7.8082" fill="#90A7B7"/>
<rect x="787.187" y="277.904" width="6.90043" height="21.5855" fill="#55788F"/>
<rect x="870.04" y="277.904" width="6.90043" height="21.5855" fill="#55788F"/>
<path d="M856.156 224.375C856.156 211.086 845.384 200.314 832.096 200.314C818.808 200.314 808.035 211.086 808.035 224.375V277.904H856.156V224.375Z" fill="url(#paint1_linear_133_883)"/>
<path opacity="0.6" d="M808.035 249.79H856.267" stroke="#67522B" stroke-width="2.36505"/>
<path opacity="0.6" d="M808.035 255.19H856.267" stroke="#67522B" stroke-width="2.36505"/>
<path opacity="0.6" d="M808.035 260.589H856.267" stroke="#67522B" stroke-width="2.36505"/>
<path opacity="0.6" d="M807.924 244.39H856.156" stroke="#67522B" stroke-width="2.36505"/>
<path opacity="0.6" d="M807.924 276.789H856.156" stroke="#67522B" stroke-width="2.36505"/>
<path opacity="0.6" d="M807.924 265.989H856.156" stroke="#67522B" stroke-width="2.36505"/>
<path opacity="0.6" d="M808.035 271.389H856.267" stroke="#67522B" stroke-width="2.36505"/>
<g filter="url(#filter0_d_133_883)">
<circle cx="832.096" cy="223.449" r="17.2552" fill="url(#paint2_linear_133_883)"/>
</g>
<path d="M825.258 228.422L832.096 224.728V212.835" stroke="#323D51" stroke-width="1.18252"/>
<path d="M830.464 197.697H831.007V196.147L830.539 196.505L830.326 196.221L831.135 195.604H831.447V197.697H831.979V198.087H830.464V197.697ZM831.943 222.087H830.361V221.743C830.39 221.72 830.425 221.689 830.468 221.651C830.51 221.611 830.558 221.566 830.61 221.516C830.664 221.467 830.721 221.412 830.78 221.353C830.839 221.294 830.897 221.232 830.954 221.169C831.034 221.079 831.104 220.997 831.163 220.924C831.224 220.851 831.274 220.782 831.312 220.718C831.352 220.652 831.382 220.588 831.401 220.527C831.42 220.463 831.429 220.398 831.429 220.331C831.429 220.284 831.418 220.238 831.397 220.193C831.376 220.148 831.346 220.109 831.308 220.076C831.271 220.04 831.224 220.013 831.17 219.994C831.118 219.973 831.06 219.962 830.996 219.962C830.911 219.962 830.833 219.975 830.762 220.001C830.694 220.027 830.621 220.071 830.546 220.133L830.361 219.806C830.461 219.735 830.571 219.676 830.691 219.629C830.814 219.579 830.955 219.554 831.113 219.554C831.215 219.554 831.312 219.569 831.404 219.597C831.499 219.625 831.582 219.668 831.653 219.725C831.726 219.779 831.784 219.848 831.826 219.931C831.869 220.013 831.89 220.109 831.89 220.218C831.89 220.294 831.883 220.364 831.869 220.431C831.857 220.495 831.837 220.56 831.809 220.626C831.783 220.69 831.747 220.756 831.702 220.824C831.66 220.893 831.608 220.968 831.546 221.048C831.499 221.109 831.447 221.172 831.39 221.236C831.336 221.298 831.281 221.357 831.227 221.413C831.172 221.47 831.118 221.523 831.064 221.573C831.012 221.623 830.964 221.664 830.922 221.697H831.943V222.087Z" fill="#323D51"/>
<path d="M832.969 238.178C832.969 238.294 832.947 238.402 832.902 238.501C832.859 238.6 832.8 238.687 832.724 238.76C832.649 238.833 832.558 238.891 832.451 238.934C832.347 238.977 832.235 238.998 832.114 238.998C831.991 238.998 831.875 238.979 831.767 238.941C831.66 238.901 831.567 238.842 831.486 238.764C831.406 238.686 831.342 238.587 831.295 238.469C831.248 238.351 831.224 238.214 831.224 238.058C831.224 237.824 831.264 237.611 831.344 237.419C831.427 237.228 831.533 237.062 831.66 236.922C831.788 236.781 831.931 236.667 832.089 236.582C832.248 236.494 832.405 236.439 832.561 236.415L832.664 236.781C832.539 236.804 832.422 236.843 832.313 236.898C832.204 236.95 832.107 237.014 832.022 237.089C831.937 237.165 831.865 237.249 831.806 237.341C831.749 237.433 831.71 237.529 831.689 237.628C831.736 237.569 831.807 237.52 831.901 237.479C831.996 237.437 832.1 237.416 832.214 237.416C832.32 237.416 832.419 237.433 832.512 237.469C832.604 237.502 832.683 237.552 832.749 237.618C832.818 237.682 832.871 237.761 832.909 237.855C832.949 237.95 832.969 238.058 832.969 238.178ZM832.522 238.196C832.522 238.068 832.483 237.971 832.405 237.905C832.33 237.839 832.227 237.806 832.097 237.806C832.002 237.806 831.917 237.827 831.841 237.87C831.765 237.912 831.71 237.962 831.674 238.019C831.67 238.045 831.666 238.074 831.664 238.107C831.664 238.138 831.664 238.163 831.664 238.182C831.664 238.239 831.673 238.293 831.692 238.345C831.711 238.397 831.738 238.443 831.774 238.483C831.812 238.521 831.857 238.552 831.909 238.576C831.961 238.597 832.021 238.608 832.089 238.608C832.144 238.608 832.197 238.598 832.249 238.579C832.301 238.558 832.347 238.53 832.387 238.494C832.428 238.459 832.46 238.416 832.483 238.366C832.509 238.314 832.522 238.258 832.522 238.196Z" fill="#323D51"/>
<path d="M816.884 221.922C816.884 221.801 816.904 221.69 816.944 221.588C816.986 221.487 817.044 221.4 817.118 221.329C817.193 221.256 817.283 221.199 817.387 221.159C817.494 221.117 817.612 221.095 817.742 221.095C817.875 221.095 817.995 221.115 818.104 221.156C818.213 221.196 818.306 221.256 818.384 221.337C818.462 221.415 818.523 221.513 818.565 221.631C818.608 221.747 818.629 221.88 818.629 222.032C818.629 222.306 818.594 222.543 818.523 222.741C818.452 222.94 818.356 223.106 818.235 223.238C818.117 223.37 817.979 223.472 817.82 223.543C817.662 223.614 817.496 223.659 817.323 223.678L817.224 223.316C817.354 223.3 817.471 223.268 817.575 223.22C817.682 223.173 817.774 223.115 817.852 223.046C817.93 222.976 817.994 222.896 818.044 222.809C818.093 222.719 818.125 222.623 818.139 222.521C818.09 222.571 818.026 222.611 817.948 222.642C817.87 222.67 817.776 222.685 817.668 222.685H817.661C817.571 222.685 817.48 222.669 817.387 222.638C817.295 222.608 817.211 222.56 817.135 222.497C817.062 222.433 817.002 222.354 816.955 222.259C816.907 222.162 816.884 222.05 816.884 221.922ZM817.331 221.897C817.331 221.963 817.342 222.022 817.366 222.074C817.392 222.124 817.425 222.167 817.465 222.202C817.506 222.235 817.552 222.261 817.604 222.28C817.658 222.297 817.714 222.305 817.77 222.305C817.867 222.305 817.951 222.29 818.022 222.259C818.093 222.228 818.145 222.19 818.178 222.145C818.186 222.096 818.189 222.048 818.189 222.003C818.189 221.937 818.18 221.872 818.161 221.808C818.142 221.745 818.113 221.688 818.076 221.638C818.038 221.588 817.99 221.549 817.934 221.521C817.877 221.49 817.812 221.475 817.739 221.475C817.623 221.475 817.526 221.513 817.448 221.588C817.37 221.662 817.331 221.765 817.331 221.897Z" fill="#323D51"/>
<path d="M846.186 223.288C846.264 223.288 846.335 223.278 846.399 223.259C846.465 223.238 846.521 223.21 846.566 223.174C846.613 223.136 846.65 223.094 846.676 223.046C846.702 222.997 846.715 222.944 846.715 222.887C846.715 222.816 846.699 222.757 846.668 222.709C846.64 222.66 846.6 222.621 846.548 222.592C846.496 222.564 846.433 222.544 846.36 222.532C846.286 222.52 846.207 222.514 846.122 222.514H845.923V222.262L846.519 221.535H845.622V221.145H847.069V221.468L846.445 222.181H846.527C846.609 222.181 846.69 222.195 846.768 222.223C846.846 222.252 846.914 222.294 846.974 222.351C847.035 222.408 847.083 222.479 847.119 222.564C847.157 222.649 847.176 222.747 847.176 222.858C847.176 222.993 847.147 223.112 847.091 223.213C847.036 223.315 846.963 223.401 846.871 223.472C846.781 223.541 846.677 223.593 846.558 223.628C846.44 223.661 846.318 223.678 846.193 223.678C846.087 223.678 845.98 223.668 845.874 223.65C845.767 223.631 845.664 223.601 845.565 223.561L845.689 223.178C845.711 223.19 845.739 223.201 845.774 223.213C845.812 223.225 845.854 223.237 845.899 223.249C845.946 223.261 845.993 223.27 846.041 223.277C846.09 223.284 846.139 223.288 846.186 223.288Z" fill="#323D51"/>
<rect x="643.618" y="171.204" width="128.448" height="26.9306" rx="7.8082" transform="rotate(90 643.618 171.204)" fill="#E5B39F"/>
<rect x="639.778" y="184.231" width="11.4068" height="19.2516" rx="2.92808" transform="rotate(90 639.778 184.231)" fill="#C0856E"/>
<rect x="643.62" y="299.652" width="121.553" height="35.8781" rx="7.8082" transform="rotate(-90 643.62 299.652)" fill="#28415B"/>
<rect x="643.618" y="282.888" width="3.6627" height="35.8815" transform="rotate(-90 643.618 282.888)" fill="#1A2E43"/>
<rect x="643.618" y="288.443" width="3.6627" height="35.8815" transform="rotate(-90 643.618 288.443)" fill="#1A2E43"/>
<rect x="643.618" y="193.145" width="3.6627" height="35.8815" transform="rotate(-90 643.618 193.145)" fill="#1A2E43"/>
<rect x="653.038" y="270.971" width="64.1912" height="17.0423" rx="4.91643" transform="rotate(-90 653.038 270.971)" fill="#1A2E43"/>
<rect x="698.225" y="169.478" width="129.281" height="21.5818" rx="7.8082" transform="rotate(80.5221 698.225 169.478)" fill="#714B71"/>
<rect x="700.588" y="183.631" width="7.72757" height="21.5855" transform="rotate(80.5221 700.588 183.631)" fill="#462546"/>
<rect x="715.866" y="275.149" width="7.72757" height="21.5855" transform="rotate(80.5221 715.866 275.149)" fill="#462546"/>
<rect x="662.404" y="528.071" width="129.281" height="21.5818" rx="7.8082" transform="rotate(90 662.404 528.071)" fill="#714B71"/>
<rect x="662.404" y="542.42" width="7.72757" height="21.5855" transform="rotate(90 662.404 542.42)" fill="#462546"/>
<rect x="662.404" y="635.204" width="7.72757" height="21.5855" transform="rotate(90 662.404 635.204)" fill="#462546"/>
<rect x="689.334" y="528.904" width="128.448" height="26.9306" rx="7.8082" transform="rotate(90 689.334 528.904)" fill="#5E7959"/>
<rect x="685.494" y="541.931" width="11.4068" height="19.2516" rx="2.92808" transform="rotate(90 685.494 541.931)" fill="#384C34"/>
<rect x="689.336" y="657.352" width="121.553" height="35.8781" rx="7.8082" transform="rotate(-90 689.336 657.352)" fill="#28415B"/>
<rect x="689.334" y="640.589" width="3.6627" height="35.8815" transform="rotate(-90 689.334 640.589)" fill="#1A2E43"/>
<rect x="689.334" y="646.143" width="3.6627" height="35.8815" transform="rotate(-90 689.334 646.143)" fill="#1A2E43"/>
<rect x="689.334" y="550.846" width="3.6627" height="35.8815" transform="rotate(-90 689.334 550.846)" fill="#1A2E43"/>
<rect x="698.754" y="628.671" width="64.1912" height="17.0423" rx="4.91643" transform="rotate(-90 698.754 628.671)" fill="#1A2E43"/>
<rect x="819.995" y="542.486" width="115.443" height="21.5818" rx="7.8082" transform="rotate(70.884 819.995 542.486)" fill="#E5B39F"/>
<rect x="824.029" y="554.805" width="3.47872" height="21.5855" transform="rotate(70.884 824.029 554.805)" fill="#C0856E"/>
<rect x="851.278" y="633.425" width="3.47872" height="21.5855" transform="rotate(70.884 851.278 633.425)" fill="#C0856E"/>
<rect x="827.825" y="582.589" width="37.778" height="10.5607" rx="3.04659" transform="rotate(70.884 827.825 582.589)" fill="#C0856E"/>
<rect x="993.383" y="222.519" width="115.443" height="21.5818" rx="7.8082" fill="#28415B"/>
<rect x="1008.02" y="222.518" width="3.47872" height="21.5855" fill="#1A2E43"/>
<rect x="1091.23" y="222.518" width="3.47872" height="21.5855" fill="#1A2E43"/>
<rect x="1035.51" y="228.03" width="37.778" height="10.5607" rx="3.04659" fill="#1A2E43"/>
<rect x="994.872" y="277.701" width="115.443" height="21.5818" rx="7.8082" fill="#E5B39F"/>
<rect x="1007.69" y="277.701" width="6.90043" height="21.5855" fill="#C0856E"/>
<rect x="1090.54" y="277.701" width="6.90043" height="21.5855" fill="#C0856E"/>
<path d="M990.501 260.882C990.501 251.614 998.014 244.101 1007.28 244.101H1096.47C1100.79 244.101 1104.28 247.597 1104.28 251.91V269.855C1104.28 274.167 1100.79 277.663 1096.47 277.663H1007.28C998.014 277.663 990.501 270.15 990.501 260.882V260.882Z" fill="#5E7959"/>
<path d="M997.927 260.882C997.927 255.359 1002.4 250.882 1007.93 250.882H1104.28V270.883H1007.93C1002.4 270.883 997.927 266.406 997.927 260.882V260.882Z" fill="url(#paint3_linear_133_883)"/>
<path d="M1088.98 250.88V253.78C1088.98 253.88 1088.98 253.984 1088.98 254.093V281.094C1088.98 282.992 1088.98 283.942 1088.44 284.457C1088.31 284.581 1088.16 284.685 1088 284.764C1087.33 285.092 1086.44 284.765 1084.66 284.11L1080.77 282.683C1080.27 282.5 1080.02 282.408 1079.77 282.393C1079.7 282.39 1079.63 282.39 1079.57 282.393C1079.31 282.408 1079.06 282.5 1078.56 282.683L1074.67 284.11C1072.89 284.765 1072 285.092 1071.33 284.764C1071.17 284.685 1071.02 284.581 1070.89 284.457C1070.35 283.942 1070.35 282.992 1070.35 281.094V254.093C1070.35 253.984 1070.35 253.88 1070.35 253.78V250.88H1088.98Z" fill="url(#paint4_linear_133_883)"/>
<rect x="104.215" y="528.6" width="129.281" height="21.5818" rx="7.8082" transform="rotate(90 104.215 528.6)" fill="#714B71"/>
<rect x="104.215" y="542.949" width="7.72757" height="21.5855" transform="rotate(90 104.215 542.949)" fill="#462546"/>
<rect x="104.215" y="635.733" width="7.72757" height="21.5855" transform="rotate(90 104.215 635.733)" fill="#462546"/>
<rect x="131.146" y="529.433" width="128.448" height="26.9306" rx="7.8082" transform="rotate(90 131.146 529.433)" fill="#5E7959"/>
<rect x="127.306" y="542.46" width="11.4068" height="19.2516" rx="2.92808" transform="rotate(90 127.306 542.46)" fill="#384C34"/>
<rect x="131.148" y="657.881" width="121.553" height="35.8781" rx="7.8082" transform="rotate(-90 131.148 657.881)" fill="#28415B"/>
<rect x="131.146" y="641.117" width="3.6627" height="35.8815" transform="rotate(-90 131.146 641.117)" fill="#1A2E43"/>
<rect x="131.146" y="646.672" width="3.6627" height="35.8815" transform="rotate(-90 131.146 646.672)" fill="#1A2E43"/>
<rect x="131.146" y="551.375" width="3.6627" height="35.8815" transform="rotate(-90 131.146 551.375)" fill="#1A2E43"/>
<rect x="140.565" y="629.2" width="64.1912" height="17.0423" rx="4.91643" transform="rotate(-90 140.565 629.2)" fill="#1A2E43"/>
<rect x="185.695" y="543.412" width="115.443" height="21.5818" rx="7.8082" transform="rotate(70.884 185.695 543.412)" fill="#E5B39F"/>
<rect x="189.729" y="555.731" width="3.47872" height="21.5855" transform="rotate(70.884 189.729 555.731)" fill="#C0856E"/>
<rect x="216.978" y="634.35" width="3.47872" height="21.5855" transform="rotate(70.884 216.978 634.35)" fill="#C0856E"/>
<rect x="193.525" y="583.514" width="37.778" height="10.5607" rx="3.04659" transform="rotate(70.884 193.525 583.514)" fill="#C0856E"/>
<rect x="1105.58" y="530.3" width="128.448" height="27.0838" rx="7.8082" transform="rotate(68.5307 1105.58 530.3)" fill="#5E7959"/>
<rect x="1106.76" y="543.836" width="11.4068" height="19.3611" rx="2.92808" transform="rotate(68.5307 1106.76 543.836)" fill="#384C34"/>
<path d="M972.835 606.031H1083.74V654.081C1083.74 655.891 1082.28 657.357 1080.47 657.357H976.112C974.302 657.357 972.835 655.891 972.835 654.081V606.031Z" fill="url(#paint5_linear_133_883)"/>
<g filter="url(#filter1_d_133_883)">
<rect x="967.926" y="585.054" width="120.728" height="20.9768" rx="3.2765" fill="#E8B8A5"/>
</g>
<rect x="1014.4" y="591.881" width="27.7819" height="7.32426" rx="0.819125" fill="#E8B8A5" stroke="#C0856E" stroke-width="1.63825"/>
<path d="M1012.84 554.313H1079.43V583.163C1079.43 584.249 1078.55 585.13 1077.46 585.13H1014.81C1013.72 585.13 1012.84 584.249 1012.84 583.163V554.313Z" fill="url(#paint6_linear_133_883)"/>
<g filter="url(#filter2_d_133_883)">
<rect x="1009.89" y="541.718" width="72.4876" height="12.5949" rx="1.96727" fill="#90A7B7"/>
</g>
<rect x="1037.8" y="545.817" width="16.6816" height="4.39786" rx="0.491819" fill="#90A7B7" stroke="#55788F" stroke-width="0.983637"/>
<rect x="404.838" y="555.607" width="93.9704" height="17.5675" rx="6.35587" fill="#E5B39F"/>
<rect x="415.268" y="555.607" width="5.61694" height="17.5706" fill="#C0856E"/>
<rect x="482.71" y="555.607" width="5.61694" height="17.5706" fill="#C0856E"/>
<rect x="391.915" y="636.089" width="115.443" height="21.5818" rx="7.8082" fill="#90A7B7"/>
<rect x="403.099" y="636.087" width="3.47872" height="21.5855" fill="#55788F"/>
<rect x="403.099" y="636.087" width="3.47872" height="21.5855" fill="#55788F"/>
<rect x="492.41" y="636.087" width="3.47872" height="21.5855" fill="#55788F"/>
<rect x="492.41" y="636.087" width="3.47872" height="21.5855" fill="#55788F"/>
<rect x="400.179" y="600.975" width="115.443" height="35.8781" rx="7.8082" fill="#714B71"/>
<rect x="416.1" y="600.974" width="3.47857" height="35.8815" fill="#462546"/>
<rect x="410.825" y="600.974" width="3.47857" height="35.8815" fill="#462546"/>
<rect x="501.332" y="600.974" width="3.47857" height="35.8815" fill="#462546"/>
<rect x="427.419" y="610.394" width="60.9642" height="17.0423" rx="4.91643" fill="#462546"/>
<path d="M408.854 587.944C408.854 579.788 415.466 573.176 423.622 573.176H501.178C505.49 573.176 508.986 576.672 508.986 580.985V594.903C508.986 599.216 505.49 602.712 501.178 602.712H423.622C415.466 602.712 408.854 596.1 408.854 587.944V587.944Z" fill="#5E7959"/>
<path d="M415.389 587.944C415.389 583.084 419.329 579.143 424.189 579.143H508.986V596.745H424.189C419.329 596.745 415.389 592.805 415.389 587.944V587.944Z" fill="url(#paint7_linear_133_883)"/>
<path d="M495.519 579.142V581.694C495.519 581.782 495.519 581.874 495.519 581.969V605.731C495.519 607.402 495.519 608.237 495.045 608.691C494.93 608.8 494.8 608.891 494.658 608.961C494.069 609.249 493.285 608.961 491.717 608.385L488.298 607.13C487.858 606.968 487.638 606.887 487.41 606.875C487.352 606.871 487.294 606.871 487.237 606.875C487.008 606.887 486.788 606.968 486.348 607.13L482.93 608.385C481.362 608.961 480.578 609.249 479.988 608.961C479.846 608.891 479.716 608.8 479.602 608.691C479.128 608.237 479.128 607.402 479.128 605.731V581.969C479.128 581.874 479.127 581.782 479.128 581.694V579.142H495.519Z" fill="url(#paint8_linear_133_883)"/>
<rect x="57.1677" y="477.714" width="92.0167" height="17.2023" rx="6.22373" fill="#5E7959"/>
<rect x="66.0829" y="477.713" width="2.77281" height="17.2053" fill="#384C34"/>
<rect x="66.0829" y="477.713" width="2.77281" height="17.2053" fill="#384C34"/>
<rect x="137.271" y="477.713" width="2.77281" height="17.2053" fill="#384C34"/>
<rect x="137.271" y="477.713" width="2.77281" height="17.2053" fill="#384C34"/>
<path d="M105.47 373.53C106.263 364.468 100.63 367.66 100.921 372.015C90.8516 369.745 91.89 374.735 96.1976 376.35C88.2072 384.233 95.5181 382.888 100.422 381.23C101.621 391.319 108.014 388.357 106.263 380.292C115.013 381.681 111.399 373.53 105.47 373.53Z" fill="#5E7959"/>
<path d="M88.4958 413.187C88.4958 406.128 93.5903 387.608 100.536 380.878" stroke="#5E7959" stroke-width="1.40523"/>
<path d="M106.241 457.357H76.1277C76.3972 441.391 76.8197 407.984 85.2224 403.395H96.9445C105.352 407.437 106.646 441.054 106.241 457.357Z" fill="#1A2E43"/>
<rect x="63.1138" y="457.357" width="89.2465" height="20.8195" rx="7.8082" fill="#E5B39F"/>
<rect x="72.165" y="460.326" width="7.92553" height="14.883" rx="2.92808" fill="#C0856E"/>
<rect x="88.3871" y="277.495" width="130.113" height="22.2066" rx="7.8082" fill="#90A7B7"/>
<rect x="100.993" y="277.494" width="3.92079" height="22.2104" fill="#55788F"/>
<rect x="100.993" y="277.494" width="3.92079" height="22.2104" fill="#55788F"/>
<rect x="201.653" y="277.494" width="3.92079" height="22.2104" fill="#55788F"/>
<rect x="201.653" y="277.494" width="3.92079" height="22.2104" fill="#55788F"/>
<rect x="95.7223" y="220.029" width="115.443" height="21.5818" rx="7.8082" fill="#28415B"/>
<rect x="108.535" y="220.029" width="6.90043" height="21.5855" fill="#1A2E43"/>
<rect x="191.388" y="220.029" width="6.90043" height="21.5855" fill="#1A2E43"/>
<rect x="211.165" y="277.494" width="115.443" height="35.8781" rx="7.8082" transform="rotate(-180 211.165 277.494)" fill="#FADDD2"/>
<rect x="195.244" y="277.495" width="3.47857" height="35.8815" transform="rotate(-180 195.244 277.495)" fill="#C0856E"/>
<rect x="200.52" y="277.495" width="3.47857" height="35.8815" transform="rotate(-180 200.52 277.495)" fill="#C0856E"/>
<rect x="110.013" y="277.495" width="3.47857" height="35.8815" transform="rotate(-180 110.013 277.495)" fill="#C0856E"/>
<rect x="183.926" y="268.075" width="60.9642" height="17.0423" rx="4.91643" transform="rotate(-180 183.926 268.075)" fill="#C0856E"/>
<rect x="283.194" y="298.14" width="115.443" height="35.8781" rx="7.8082" transform="rotate(-90 283.194 298.14)" fill="#5E7959"/>
<rect x="283.193" y="282.219" width="3.47857" height="35.8815" transform="rotate(-90 283.193 282.219)" fill="#384C34"/>
<rect x="283.193" y="287.495" width="3.47857" height="35.8815" transform="rotate(-90 283.193 287.495)" fill="#384C34"/>
<rect x="283.193" y="196.988" width="3.47857" height="35.8815" transform="rotate(-90 283.193 196.988)" fill="#384C34"/>
<rect x="292.612" y="270.901" width="60.9642" height="17.0423" rx="4.91643" transform="rotate(-90 292.612 270.901)" fill="#384C34"/>
<rect x="322.456" y="298.647" width="115.443" height="35.8781" rx="7.8082" transform="rotate(-91.7052 322.456 298.647)" fill="#90A7B7"/>
<rect x="321.98" y="282.733" width="3.47857" height="35.8815" transform="rotate(-91.7052 321.98 282.733)" fill="#55788F"/>
<rect x="322.137" y="288.006" width="3.47857" height="35.8815" transform="rotate(-91.7052 322.137 288.006)" fill="#55788F"/>
<rect x="319.444" y="197.539" width="3.47857" height="35.8815" transform="rotate(-91.7052 319.444 197.539)" fill="#55788F"/>
<rect x="331.059" y="271.139" width="60.9642" height="17.0423" rx="4.91643" transform="rotate(-91.7052 331.059 271.139)" fill="#55788F"/>
<rect x="392.875" y="299.956" width="115.443" height="35.8781" rx="7.8082" transform="rotate(-110.104 392.875 299.956)" fill="#714B71"/>
<rect x="387.401" y="285.006" width="3.47857" height="35.8815" transform="rotate(-110.104 387.401 285.006)" fill="#462546"/>
<rect x="389.214" y="289.96" width="3.47857" height="35.8815" transform="rotate(-110.104 389.214 289.96)" fill="#462546"/>
<rect x="358.106" y="204.967" width="3.47857" height="35.8815" transform="rotate(-110.104 358.106 204.967)" fill="#462546"/>
<rect x="392.356" y="271.139" width="60.9642" height="17.0423" rx="4.91643" transform="rotate(-110.104 392.356 271.139)" fill="#462546"/>
<rect x="465.345" y="250.273" width="115.443" height="26.9306" rx="7.8082" fill="#90A7B7"/>
<rect x="477.053" y="254.113" width="10.2519" height="19.2516" rx="2.92808" fill="#55788F"/>
<path d="M468.218 233.423C468.218 224.156 475.731 216.643 484.999 216.643H574.192C578.504 216.643 582 220.139 582 224.451V242.396C582 246.708 578.504 250.204 574.192 250.204H484.999C475.731 250.204 468.218 242.691 468.218 233.423V233.423Z" fill="#384C34"/>
<path d="M475.643 233.424C475.643 227.9 480.121 223.423 485.644 223.423H582V243.424H485.644C480.121 243.424 475.643 238.947 475.643 233.424V233.424Z" fill="url(#paint9_linear_133_883)"/>
<path d="M509.44 223.423V226.323C509.44 226.423 509.44 226.527 509.44 226.636V253.637C509.44 255.535 509.44 256.485 508.9 257C508.771 257.124 508.623 257.228 508.462 257.307C507.792 257.635 506.901 257.308 505.119 256.653L501.234 255.226C500.734 255.043 500.485 254.951 500.225 254.936C500.159 254.933 500.094 254.933 500.028 254.936C499.769 254.951 499.519 255.043 499.019 255.226L495.134 256.653C493.352 257.308 492.461 257.635 491.791 257.307C491.63 257.228 491.482 257.124 491.353 257C490.814 256.485 490.814 255.535 490.814 253.637V226.636C490.814 226.527 490.813 226.423 490.814 226.323V223.423H509.44Z" fill="url(#paint10_linear_133_883)"/>
<rect x="469.303" y="277.4" width="115.443" height="21.5818" rx="7.8082" fill="#28415B"/>
<rect x="483.938" y="277.399" width="3.47872" height="21.5855" fill="#1A2E43"/>
<rect x="567.146" y="277.399" width="3.47872" height="21.5855" fill="#1A2E43"/>
<rect x="511.433" y="282.911" width="37.778" height="10.5607" rx="3.04659" fill="#1A2E43"/>
<rect x="479.1" y="199.44" width="92.0167" height="17.2023" rx="6.22373" fill="#5E7959"/>
<rect x="488.015" y="199.438" width="2.77281" height="17.2053" fill="#384C34"/>
<rect x="488.015" y="199.438" width="2.77281" height="17.2053" fill="#384C34"/>
<rect x="559.203" y="199.438" width="2.77281" height="17.2053" fill="#384C34"/>
<rect x="559.203" y="199.438" width="2.77281" height="17.2053" fill="#384C34"/>
<rect x="725.435" y="657.407" width="127.133" height="17.5675" rx="6.35587" transform="rotate(-90 725.435 657.407)" fill="#E5B39F"/>
<rect x="725.435" y="643.296" width="7.59916" height="17.5706" transform="rotate(-90 725.435 643.296)" fill="#C0856E"/>
<rect x="725.435" y="552.055" width="7.59916" height="17.5706" transform="rotate(-90 725.435 552.055)" fill="#C0856E"/>
<rect x="743.441" y="657.837" width="115.443" height="21.5818" rx="7.8082" transform="rotate(-90 743.441 657.837)" fill="#90A7B7"/>
<rect x="743.439" y="646.652" width="3.47872" height="21.5855" transform="rotate(-90 743.439 646.652)" fill="#55788F"/>
<rect x="743.439" y="646.652" width="3.47872" height="21.5855" transform="rotate(-90 743.439 646.652)" fill="#55788F"/>
<rect x="743.439" y="557.341" width="3.47872" height="21.5855" transform="rotate(-90 743.439 557.341)" fill="#55788F"/>
<rect x="743.439" y="557.341" width="3.47872" height="21.5855" transform="rotate(-90 743.439 557.341)" fill="#55788F"/>
<rect x="765.568" y="657.044" width="115.443" height="35.8781" rx="7.8082" transform="rotate(-90 765.568 657.044)" fill="#714B71"/>
<rect x="765.567" y="641.123" width="3.47857" height="35.8815" transform="rotate(-90 765.567 641.123)" fill="#462546"/>
<rect x="765.567" y="646.399" width="3.47857" height="35.8815" transform="rotate(-90 765.567 646.399)" fill="#462546"/>
<rect x="765.567" y="555.892" width="3.47857" height="35.8815" transform="rotate(-90 765.567 555.892)" fill="#462546"/>
<rect x="774.986" y="629.804" width="60.9642" height="17.0423" rx="4.91643" transform="rotate(-90 774.986 629.804)" fill="#462546"/>
<path d="M1182.33 445.116C1173.32 416.26 1156.17 417.366 1147.89 421.907C1147.42 422.164 1147.26 422.756 1147.5 423.234C1158.21 444.592 1173.99 447.644 1181.59 446.401C1182.18 446.304 1182.51 445.686 1182.33 445.116Z" fill="#8DB985" stroke="#8DB985" stroke-width="1.04274" stroke-linecap="round"/>
<path d="M1147.1 422.358C1157.66 426.768 1177.85 438.916 1182.23 446.069" stroke="#5E7959" stroke-width="1.04274" stroke-linecap="round"/>
<path d="M1047.6 418.868C1074.15 404.401 1085.7 417.118 1088.49 426.144C1088.65 426.654 1088.36 427.193 1087.85 427.369C1065.3 435.269 1051.84 426.487 1047.24 420.309C1046.89 419.83 1047.08 419.154 1047.6 418.868Z" fill="#8DB985" stroke="#8DB985" stroke-width="1.04274" stroke-linecap="round"/>
<path d="M1088.74 427.015C1078.09 422.843 1055.14 417.532 1047.01 419.624" stroke="#5E7959" stroke-width="1.04274" stroke-linecap="round"/>
<path d="M1075.43 367.821C1064.09 395.844 1078.05 405.866 1087.33 407.612C1087.86 407.711 1088.36 407.356 1088.48 406.835C1093.75 383.531 1083.49 371.16 1076.82 367.3C1076.31 367.001 1075.66 367.267 1075.43 367.821Z" fill="#8DB985" stroke="#8DB985" stroke-width="1.04274" stroke-linecap="round"/>
<path d="M1088.23 407.763C1082.87 397.658 1074.97 375.458 1076.12 367.149" stroke="#5E7959" stroke-width="1.04274" stroke-linecap="round"/>
<path d="M1130.62 451.679C1131.93 445.937 1134.49 436.627 1137.93 427.233M1150.89 401.852C1145.91 407.909 1141.46 417.615 1137.93 427.233M1137.93 427.233C1138.87 425.66 1142.01 422.474 1147.03 422.31" stroke="#5E7959" stroke-width="1.04274"/>
<path d="M1120.14 449.268C1120.09 446.088 1119.97 441.966 1119.77 437.59M1116.46 410.298C1118.12 412.657 1119.12 424.334 1119.66 435.222M1119.66 435.222C1120.44 432.92 1122.45 427.811 1124.31 425.79M1119.66 435.222C1119.7 436.017 1119.74 436.807 1119.77 437.59M1119.77 437.59C1118.21 435.636 1117.35 435.173 1115.44 434.354" stroke="#5E7959" stroke-width="1.04274"/>
<path d="M1088.05 407.385C1091.3 413.631 1096.78 424.834 1100.75 434.722M1105.39 449.321C1104.82 445.695 1103.03 440.428 1100.75 434.722M1100.75 434.722C1099.23 433.277 1094.7 429.715 1088.76 427.026" stroke="#5E7959" stroke-width="1.04274"/>
<path d="M1100.9 394.931C1102.4 402.65 1111.39 408.109 1116.13 410.073C1116.39 410.18 1116.68 410.06 1116.79 409.8C1118.31 406.015 1120.63 396.954 1119.06 387.372C1117.48 377.714 1108.77 372.866 1104.19 371.492C1103.93 371.414 1103.66 371.559 1103.58 371.817C1101.97 376.599 1099.39 387.208 1100.9 394.931Z" fill="#8DB985" stroke="#8DB985" stroke-width="1.04274"/>
<path d="M1103.86 371.501C1108.17 383.452 1116.37 407.889 1116.47 410.127" stroke="#5E7959" stroke-width="1.04274" stroke-linecap="round"/>
<path d="M1140.77 415.934C1138.23 422.028 1129.16 425.007 1124.52 425.828C1124.26 425.874 1124.01 425.715 1123.95 425.458C1123.13 422.07 1122.38 414.257 1125.25 406.669C1128.15 398.995 1136.86 396.469 1141.27 396.106C1141.53 396.085 1141.76 396.264 1141.8 396.519C1142.56 400.741 1143.31 409.856 1140.77 415.934Z" fill="#8DB985" stroke="#8DB985" stroke-width="1.04274"/>
<path d="M1141.58 396.17C1135.83 405.273 1124.62 423.992 1124.2 425.815" stroke="#5E7959" stroke-width="1.04274" stroke-linecap="round"/>
<path d="M1088.53 417.32C1095.41 438.813 1108.3 438.202 1114.71 434.846C1115.18 434.597 1115.34 434.004 1115.1 433.526C1107 417.681 1095.19 415.215 1089.29 416.048C1088.69 416.131 1088.35 416.749 1088.53 417.32Z" fill="#90BD88" stroke="#90BD88" stroke-width="1.04274" stroke-linecap="round"/>
<path d="M1115.51 434.398C1107.4 431.039 1091.9 421.787 1088.53 416.34" stroke="#5E7959" stroke-width="1.04274" stroke-linecap="round"/>
<path d="M1168.55 393.172C1165.73 398.904 1156.17 401.214 1151.34 401.71C1151.08 401.736 1150.85 401.575 1150.8 401.329C1150.04 398.021 1149.48 390.434 1152.69 383.286C1155.94 376.051 1165.1 374.162 1169.68 374.094C1169.93 374.09 1170.14 374.27 1170.18 374.517C1170.85 378.629 1171.36 387.467 1168.55 393.172Z" fill="#8DB985" stroke="#8DB985" stroke-width="1.04274"/>
<path d="M1169.97 374.175C1163.72 382.593 1151.54 399.942 1151.04 401.674" stroke="#5E7959" stroke-width="1.04274" stroke-linecap="round"/>
<path d="M1087.58 449.066L1096.33 496.11H1140.21L1148.95 449.066H1087.58Z" fill="#55788F"/>
<path d="M28.0261 19.4202L1186.39 102.722" stroke="#F3BEB3" stroke-width="4" stroke-linecap="square"/>
<defs>
<filter id="filter0_d_133_883" x="806.563" y="202.647" width="51.0657" height="51.0657" filterUnits="userSpaceOnUse" color-interpolation-filters="sRGB">
<feFlood flood-opacity="0" result="BackgroundImageFix"/>
<feColorMatrix in="SourceAlpha" type="matrix" values="0 0 0 0 0 0 0 0 0 0 0 0 0 0 0 0 0 0 127 0" result="hardAlpha"/>
<feMorphology radius="3.54757" operator="dilate" in="SourceAlpha" result="effect1_dropShadow_133_883"/>
<feOffset dy="4.73009"/>
<feGaussianBlur stdDeviation="2.36505"/>
<feComposite in2="hardAlpha" operator="out"/>
<feColorMatrix type="matrix" values="0 0 0 0 0.513726 0 0 0 0 0.427451 0 0 0 0 0.266667 0 0 0 0.2 0"/>
<feBlend mode="normal" in2="BackgroundImageFix" result="effect1_dropShadow_133_883"/>
<feBlend mode="normal" in="SourceGraphic" in2="effect1_dropShadow_133_883" result="shape"/>
</filter>
<filter id="filter1_d_133_883" x="966.287" y="584.235" width="124.005" height="24.2533" filterUnits="userSpaceOnUse" color-interpolation-filters="sRGB">
<feFlood flood-opacity="0" result="BackgroundImageFix"/>
<feColorMatrix in="SourceAlpha" type="matrix" values="0 0 0 0 0 0 0 0 0 0 0 0 0 0 0 0 0 0 127 0" result="hardAlpha"/>
<feOffset dy="0.819125"/>
<feGaussianBlur stdDeviation="0.819125"/>
<feComposite in2="hardAlpha" operator="out"/>
<feColorMatrix type="matrix" values="0 0 0 0 0.0588235 0 0 0 0 0.141176 0 0 0 0 0.203922 0 0 0 0.1 0"/>
<feBlend mode="normal" in2="BackgroundImageFix" result="effect1_dropShadow_133_883"/>
<feBlend mode="normal" in="SourceGraphic" in2="effect1_dropShadow_133_883" result="shape"/>
</filter>
<filter id="filter2_d_133_883" x="1008.91" y="541.226" width="74.4549" height="14.5621" filterUnits="userSpaceOnUse" color-interpolation-filters="sRGB">
<feFlood flood-opacity="0" result="BackgroundImageFix"/>
<feColorMatrix in="SourceAlpha" type="matrix" values="0 0 0 0 0 0 0 0 0 0 0 0 0 0 0 0 0 0 127 0" result="hardAlpha"/>
<feOffset dy="0.491819"/>
<feGaussianBlur stdDeviation="0.491819"/>
<feComposite in2="hardAlpha" operator="out"/>
<feColorMatrix type="matrix" values="0 0 0 0 0.0588235 0 0 0 0 0.141176 0 0 0 0 0.203922 0 0 0 0.1 0"/>
<feBlend mode="normal" in2="BackgroundImageFix" result="effect1_dropShadow_133_883"/>
<feBlend mode="normal" in="SourceGraphic" in2="effect1_dropShadow_133_883" result="shape"/>
</filter>
<linearGradient id="paint0_linear_133_883" x1="1139.99" y1="137.222" x2="131.824" y2="792.242" gradientUnits="userSpaceOnUse">
<stop stop-color="#F0EEEC"/>
<stop offset="1" stop-color="#E9E9E9"/>
</linearGradient>
<linearGradient id="paint1_linear_133_883" x1="832.096" y1="200.314" x2="832.096" y2="277.904" gradientUnits="userSpaceOnUse">
<stop stop-color="#F5C36E"/>
<stop offset="1" stop-color="#7D6841"/>
<stop offset="1" stop-color="#7D6841"/>
</linearGradient>
<linearGradient id="paint2_linear_133_883" x1="844.498" y1="210.737" x2="819.622" y2="236.024" gradientUnits="userSpaceOnUse">
<stop offset="0.191201" stop-color="white"/>
<stop offset="0.191201" stop-color="white"/>
<stop offset="1" stop-color="white"/>
</linearGradient>
<linearGradient id="paint3_linear_133_883" x1="1051.1" y1="250.882" x2="1051.1" y2="270.883" gradientUnits="userSpaceOnUse">
<stop stop-color="#DED3C5"/>
<stop offset="1" stop-color="#EEE7E0"/>
</linearGradient>
<linearGradient id="paint4_linear_133_883" x1="1079.67" y1="250.88" x2="1079.67" y2="284.893" gradientUnits="userSpaceOnUse">
<stop stop-color="#F7CE8C"/>
<stop offset="1" stop-color="#E1AF6F"/>
</linearGradient>
<linearGradient id="paint5_linear_133_883" x1="1072.36" y1="600.568" x2="966.263" y2="657.358" gradientUnits="userSpaceOnUse">
<stop stop-color="#FADDD2"/>
<stop offset="1" stop-color="#E5B39F"/>
</linearGradient>
<linearGradient id="paint6_linear_133_883" x1="1072.6" y1="551.033" x2="1009.59" y2="594.138" gradientUnits="userSpaceOnUse">
<stop stop-color="#CCDEEB"/>
<stop offset="1" stop-color="#90A7B7"/>
</linearGradient>
<linearGradient id="paint7_linear_133_883" x1="462.187" y1="579.143" x2="462.187" y2="596.745" gradientUnits="userSpaceOnUse">
<stop stop-color="#DED3C5"/>
<stop offset="1" stop-color="#EEE7E0"/>
</linearGradient>
<linearGradient id="paint8_linear_133_883" x1="487.323" y1="579.142" x2="487.323" y2="609.074" gradientUnits="userSpaceOnUse">
<stop stop-color="#F7CE8C"/>
<stop offset="1" stop-color="#E1AF6F"/>
</linearGradient>
<linearGradient id="paint9_linear_133_883" x1="528.821" y1="223.423" x2="528.821" y2="243.424" gradientUnits="userSpaceOnUse">
<stop stop-color="#DED3C5"/>
<stop offset="1" stop-color="#EEE7E0"/>
</linearGradient>
<linearGradient id="paint10_linear_133_883" x1="500.127" y1="223.423" x2="500.127" y2="257.436" gradientUnits="userSpaceOnUse">
<stop stop-color="#F7CE8C"/>
<stop offset="1" stop-color="#E1AF6F"/>
</linearGradient>
</defs>
</svg>
