<svg width="71" height="116" viewBox="0 0 71 116" fill="none" xmlns="http://www.w3.org/2000/svg">
<path d="M0.484375 13.1383C0.484375 6.01967 6.25515 0.248901 13.3738 0.248901H65.813C68.4825 0.248901 70.6465 2.41294 70.6465 5.08242V106.074C70.6465 108.743 68.4825 110.907 65.813 110.907H13.3738C6.25515 110.907 0.484375 105.137 0.484375 98.0179V13.1383Z" fill="#FADDD2"/>
<path d="M0.427979 10.5342C0.427979 4.98405 4.92724 0.484802 10.4774 0.484802V0.484802V99.2313H0.427979V10.5342Z" fill="#E5B39F"/>
<path d="M0.487549 100.56C0.487549 94.8457 5.12013 90.2131 10.8347 90.2131H70.6466V106.074C70.6466 108.743 68.4825 110.907 65.813 110.907H10.8347C5.12013 110.907 0.487549 106.275 0.487549 100.56V100.56Z" fill="#C0856E"/>
<path d="M5.06604 100.56C5.06604 97.1546 7.82688 94.3938 11.2326 94.3938H70.6467V106.727H11.2326C7.82688 106.727 5.06604 103.966 5.06604 100.56V100.56Z" fill="url(#paint0_linear_65_710)"/>
<path d="M61.2104 94.3926V96.1808C61.2105 96.2426 61.2104 96.3068 61.2104 96.3737V113.023C61.2104 114.194 61.2104 114.779 60.878 115.097C60.798 115.173 60.7068 115.237 60.6074 115.286C60.1943 115.488 59.6449 115.286 58.5462 114.883L56.151 114.003C55.8427 113.89 55.6886 113.833 55.5285 113.824C55.4881 113.822 55.4477 113.822 55.4073 113.824C55.2472 113.833 55.0931 113.89 54.7848 114.003L52.3896 114.883C51.2909 115.286 50.7415 115.488 50.3284 115.286C50.229 115.237 50.1378 115.173 50.0578 115.097C49.7254 114.779 49.7254 114.194 49.7254 113.023V96.3737C49.7254 96.3068 49.7253 96.2426 49.7254 96.1808V94.3926H61.2104Z" fill="url(#paint1_linear_65_710)"/>
<defs>
<linearGradient id="paint0_linear_65_710" x1="37.8564" y1="94.3938" x2="37.8564" y2="106.727" gradientUnits="userSpaceOnUse">
<stop stop-color="#DED3C5"/>
<stop offset="1" stop-color="#EEE7E0"/>
</linearGradient>
<linearGradient id="paint1_linear_65_710" x1="55.4679" y1="94.3926" x2="55.4679" y2="115.365" gradientUnits="userSpaceOnUse">
<stop stop-color="#F8BE54"/>
<stop offset="1" stop-color="#D8B466"/>
</linearGradient>
</defs>
</svg>
