<svg width="71" height="116" viewBox="0 0 71 116" fill="none" xmlns="http://www.w3.org/2000/svg">
<path d="M0.405884 15.8674C0.405884 7.24269 7.39759 0.250977 16.0223 0.250977H64.7106C67.9448 0.250977 70.5667 2.87286 70.5667 6.10713V105.051C70.5667 108.285 67.9448 110.907 64.7106 110.907H16.0223C7.39758 110.907 0.405884 103.916 0.405884 95.2909V15.8674Z" fill="#5981AA"/>
<path d="M0.349487 10.5361C0.349487 4.98606 4.84866 0.486877 10.3987 0.486877V0.486877V99.2315H0.349487V10.5361Z" fill="#28415B"/>
<path d="M0.408936 100.56C0.408936 94.8459 5.04143 90.2134 10.7559 90.2134H70.5667V105.051C70.5667 108.285 67.9448 110.907 64.7105 110.907H10.7559C5.04142 110.907 0.408936 106.275 0.408936 100.56V100.56Z" fill="#1A2E43"/>
<path d="M4.9873 100.561C4.9873 97.155 7.7481 94.3942 11.1537 94.3942H70.5668V106.727H11.1537C7.74809 106.727 4.9873 103.966 4.9873 100.561V100.561Z" fill="url(#paint0_linear_65_711)"/>
<path d="M61.1307 94.3929V96.1812C61.1308 96.243 61.1307 96.3072 61.1307 96.3741V113.023C61.1307 114.194 61.1307 114.779 60.7983 115.097C60.7183 115.173 60.6271 115.237 60.5277 115.286C60.1146 115.488 59.5653 115.286 58.4665 114.883L56.0714 114.003C55.7631 113.89 55.609 113.833 55.4489 113.824C55.4086 113.822 55.3681 113.822 55.3277 113.824C55.1676 113.833 55.0135 113.89 54.7053 114.003L52.3101 114.883C51.2114 115.286 50.662 115.488 50.2489 115.286C50.1495 115.237 50.0583 115.173 49.9784 115.097C49.6459 114.779 49.6459 114.194 49.6459 113.023V96.3741C49.6459 96.3072 49.6458 96.243 49.6459 96.1812V94.3929H61.1307Z" fill="url(#paint1_linear_65_711)"/>
<defs>
<linearGradient id="paint0_linear_65_711" x1="37.777" y1="94.3942" x2="37.777" y2="106.727" gradientUnits="userSpaceOnUse">
<stop stop-color="#DED3C5"/>
<stop offset="1" stop-color="#EEE7E0"/>
</linearGradient>
<linearGradient id="paint1_linear_65_711" x1="55.3883" y1="94.3929" x2="55.3883" y2="115.365" gradientUnits="userSpaceOnUse">
<stop stop-color="#F8BE54"/>
<stop offset="1" stop-color="#D8B466"/>
</linearGradient>
</defs>
</svg>
