<svg width="71" height="116" viewBox="0 0 71 116" fill="none" xmlns="http://www.w3.org/2000/svg">
<path d="M0.326538 13.1383C0.326538 6.01967 6.09732 0.248901 13.2159 0.248901H65.6551C68.3246 0.248901 70.4887 2.41294 70.4887 5.08242V106.074C70.4887 108.743 68.3246 110.907 65.6551 110.907H13.2159C6.09731 110.907 0.326538 105.137 0.326538 98.0179V13.1383Z" fill="#CCDEEB"/>
<path d="M0.270142 10.5342C0.270142 4.98405 4.7694 0.484802 10.3195 0.484802V0.484802V99.2313H0.270142V10.5342Z" fill="#90A7B7"/>
<path d="M0.329712 100.56C0.329712 94.8457 4.96229 90.2131 10.6769 90.2131H70.4887V106.074C70.4887 108.743 68.3247 110.907 65.6552 110.907H10.6769C4.96229 110.907 0.329712 106.275 0.329712 100.56V100.56Z" fill="#55788F"/>
<path d="M4.9082 100.56C4.9082 97.1546 7.66905 94.3938 11.0747 94.3938H70.4889V106.727H11.0747C7.66905 106.727 4.9082 103.966 4.9082 100.56V100.56Z" fill="url(#paint0_linear_65_714)"/>
<path d="M61.0526 94.3926V96.1808C61.0527 96.2426 61.0526 96.3068 61.0526 96.3737V113.023C61.0526 114.194 61.0526 114.779 60.7201 115.097C60.6402 115.173 60.5489 115.237 60.4496 115.286C60.0364 115.488 59.4871 115.286 58.3883 114.883L55.9931 114.003C55.6849 113.89 55.5308 113.833 55.3707 113.824C55.3303 113.822 55.2898 113.822 55.2494 113.824C55.0893 113.833 54.9352 113.89 54.627 114.003L52.2318 114.883C51.133 115.286 50.5837 115.488 50.1705 115.286C50.0712 115.237 49.9799 115.173 49.9 115.097C49.5676 114.779 49.5676 114.194 49.5676 113.023V96.3737C49.5676 96.3068 49.5674 96.2426 49.5676 96.1808V94.3926H61.0526Z" fill="url(#paint1_linear_65_714)"/>
<defs>
<linearGradient id="paint0_linear_65_714" x1="37.6985" y1="94.3938" x2="37.6985" y2="106.727" gradientUnits="userSpaceOnUse">
<stop stop-color="#DED3C5"/>
<stop offset="1" stop-color="#EEE7E0"/>
</linearGradient>
<linearGradient id="paint1_linear_65_714" x1="55.3101" y1="94.3926" x2="55.3101" y2="115.365" gradientUnits="userSpaceOnUse">
<stop stop-color="#F8BE54"/>
<stop offset="1" stop-color="#D8B466"/>
</linearGradient>
</defs>
</svg>
