<svg width="71" height="116" viewBox="0 0 71 116" fill="none" xmlns="http://www.w3.org/2000/svg">
<path d="M0.640137 13.1383C0.640137 6.01967 6.41091 0.248901 13.5295 0.248901H65.9687C68.6382 0.248901 70.8023 2.41294 70.8023 5.08242V106.074C70.8023 108.743 68.6382 110.907 65.9687 110.907H13.5295C6.41091 110.907 0.640137 105.137 0.640137 98.0179V13.1383Z" fill="#90BD88"/>
<path d="M0.58374 10.5342C0.58374 4.98405 5.083 0.484802 10.6331 0.484802V0.484802V99.2313H0.58374V10.5342Z" fill="#5E7959"/>
<path d="M0.643311 100.56C0.643311 94.8457 5.27589 90.2131 10.9905 90.2131H70.8023V106.074C70.8023 108.743 68.6383 110.907 65.9688 110.907H10.9905C5.27589 110.907 0.643311 106.275 0.643311 100.56V100.56Z" fill="#384C34"/>
<path d="M5.2218 100.56C5.2218 97.1546 7.98264 94.3938 11.3883 94.3938H70.8025V106.727H11.3883C7.98264 106.727 5.2218 103.966 5.2218 100.56V100.56Z" fill="url(#paint0_linear_65_712)"/>
<path d="M61.3662 94.3926V96.1808C61.3663 96.2426 61.3662 96.3068 61.3662 96.3737V113.023C61.3662 114.194 61.3662 114.779 61.0337 115.097C60.9538 115.173 60.8625 115.237 60.7632 115.286C60.35 115.488 59.8007 115.286 58.7019 114.883L56.3067 114.003C55.9985 113.89 55.8444 113.833 55.6843 113.824C55.6439 113.822 55.6034 113.822 55.563 113.824C55.4029 113.833 55.2488 113.89 54.9406 114.003L52.5454 114.883C51.4466 115.286 50.8973 115.488 50.4841 115.286C50.3848 115.237 50.2935 115.173 50.2136 115.097C49.8812 114.779 49.8812 114.194 49.8812 113.023V96.3737C49.8812 96.3068 49.881 96.2426 49.8812 96.1808V94.3926H61.3662Z" fill="url(#paint1_linear_65_712)"/>
<defs>
<linearGradient id="paint0_linear_65_712" x1="38.0121" y1="94.3938" x2="38.0121" y2="106.727" gradientUnits="userSpaceOnUse">
<stop stop-color="#DED3C5"/>
<stop offset="1" stop-color="#EEE7E0"/>
</linearGradient>
<linearGradient id="paint1_linear_65_712" x1="55.6237" y1="94.3926" x2="55.6237" y2="115.365" gradientUnits="userSpaceOnUse">
<stop stop-color="#F8BE54"/>
<stop offset="1" stop-color="#D8B466"/>
</linearGradient>
</defs>
</svg>
