<svg width="279" height="181" viewBox="0 0 279 181" fill="none" xmlns="http://www.w3.org/2000/svg">
<rect x="4.18885" y="176.894" width="172.736" height="270.329" transform="rotate(-90 4.18885 176.894)" fill="#B3CDDE" stroke="#A46851" stroke-width="7.40699"/>
<rect x="62.0305" y="25.2107" width="174.409" height="130.038" fill="#B3CDDE"/>
<path d="M76.4911 123.783H83.5707L83.5632 125.324H78.3396V128.438H82.9495V129.957H78.3396V134.604H76.4911V123.783ZM90.2984 134.754C89.3005 134.754 88.4374 134.534 87.709 134.095C86.9856 133.656 86.4243 133.023 86.0252 132.194C85.631 131.366 85.434 130.373 85.434 129.216C85.434 128.048 85.6335 127.048 86.0327 126.215C86.4318 125.382 86.9956 124.743 87.724 124.299C88.4574 123.855 89.3155 123.633 90.2984 123.633C91.2812 123.633 92.1319 123.855 92.8503 124.299C93.5737 124.743 94.1325 125.382 94.5266 126.215C94.9208 127.048 95.1178 128.048 95.1178 129.216C95.1178 130.373 94.9233 131.366 94.5341 132.194C94.145 133.018 93.5887 133.651 92.8653 134.095C92.1418 134.534 91.2862 134.754 90.2984 134.754ZM90.2984 133.227C90.8871 133.227 91.3935 133.09 91.8175 132.816C92.2416 132.536 92.5659 132.105 92.7904 131.521C93.0199 130.932 93.1347 130.171 93.1347 129.238C93.1347 128.29 93.0199 127.517 92.7904 126.918C92.5609 126.315 92.2341 125.871 91.8101 125.586C91.386 125.302 90.8821 125.16 90.2984 125.16C89.7096 125.16 89.2007 125.304 88.7717 125.594C88.3476 125.878 88.0183 126.322 87.7838 126.926C87.5494 127.525 87.4321 128.295 87.4321 129.238C87.4321 130.171 87.5494 130.932 87.7838 131.521C88.0183 132.105 88.3476 132.536 88.7717 132.816C89.2007 133.09 89.7096 133.227 90.2984 133.227ZM105.779 130.653C105.779 131.511 105.64 132.247 105.36 132.86C105.081 133.469 104.634 133.938 104.021 134.267C103.412 134.592 102.609 134.754 101.611 134.754C100.613 134.754 99.8075 134.589 99.1939 134.26C98.5852 133.926 98.1437 133.447 97.8693 132.823C97.5949 132.194 97.4577 131.436 97.4577 130.548V123.783H99.3211V130.735C99.3211 131.573 99.5256 132.192 99.9347 132.591C100.349 132.99 100.908 133.19 101.611 133.19C102.085 133.19 102.497 133.102 102.846 132.928C103.195 132.753 103.465 132.486 103.654 132.127C103.844 131.763 103.939 131.299 103.939 130.735V123.783H105.779V130.653ZM115.671 123.783H117.489V134.604H115.851L110.41 126.664V134.604H108.591V123.783H110.372L115.671 131.513V123.783ZM120.558 123.783C120.603 123.783 120.735 123.783 120.955 123.783C121.174 123.783 121.434 123.783 121.733 123.783C122.037 123.783 122.344 123.785 122.654 123.79C122.968 123.79 123.24 123.793 123.469 123.798C124.786 123.823 125.857 124.05 126.68 124.479C127.508 124.903 128.114 125.509 128.498 126.297C128.888 127.081 129.082 128.026 129.082 129.134C129.082 130.291 128.875 131.276 128.461 132.09C128.052 132.903 127.423 133.526 126.575 133.961C125.732 134.39 124.659 134.604 123.357 134.604H120.558V123.783ZM122.407 125.287V133.1H123.387C124.13 133.1 124.786 132.973 125.355 132.718C125.924 132.459 126.368 132.04 126.687 131.461C127.012 130.882 127.174 130.109 127.174 129.141C127.174 128.203 127.024 127.452 126.725 126.888C126.425 126.325 125.996 125.918 125.438 125.669C124.879 125.414 124.21 125.287 123.432 125.287H122.407ZM131.604 134.604V123.783H138.759L138.751 125.347H133.438V128.378H138.13V129.919H133.423V133.018L138.863 133.025V134.604H131.604ZM141.598 123.783C141.643 123.783 141.775 123.783 141.994 123.783C142.214 123.783 142.473 123.783 142.773 123.783C143.077 123.783 143.384 123.785 143.693 123.79C144.008 123.79 144.279 123.793 144.509 123.798C145.826 123.823 146.896 124.05 147.719 124.479C148.548 124.903 149.154 125.509 149.538 126.297C149.927 127.081 150.122 128.026 150.122 129.134C150.122 130.291 149.915 131.276 149.501 132.09C149.091 132.903 148.463 133.526 147.615 133.961C146.772 134.39 145.699 134.604 144.397 134.604H141.598V123.783ZM143.446 125.287V133.1H144.427C145.17 133.1 145.826 132.973 146.395 132.718C146.964 132.459 147.408 132.04 147.727 131.461C148.051 130.882 148.213 130.109 148.213 129.141C148.213 128.203 148.064 127.452 147.764 126.888C147.465 126.325 147.036 125.918 146.477 125.669C145.918 125.414 145.25 125.287 144.472 125.287H143.446ZM157.541 130.795C157.227 130.795 156.943 130.72 156.688 130.57C156.439 130.416 156.237 130.209 156.082 129.949C155.932 129.69 155.857 129.405 155.857 129.096C155.857 128.787 155.932 128.505 156.082 128.25C156.237 127.996 156.439 127.794 156.688 127.644C156.943 127.49 157.227 127.412 157.541 127.412C157.851 127.412 158.132 127.49 158.387 127.644C158.646 127.794 158.851 127.996 159.001 128.25C159.155 128.505 159.233 128.787 159.233 129.096C159.233 129.405 159.155 129.69 159.001 129.949C158.851 130.209 158.646 130.416 158.387 130.57C158.132 130.72 157.851 130.795 157.541 130.795ZM163.25 134.604V126.267H161.244V125.182C161.878 125.182 162.379 125.13 162.749 125.025C163.123 124.915 163.395 124.756 163.564 124.546C163.739 124.337 163.839 124.082 163.864 123.783H165.106V134.604H163.25ZM167.964 123.783H175.829V125.302C175.465 125.776 175.103 126.325 174.744 126.948C174.385 127.567 174.041 128.223 173.711 128.917C173.382 129.605 173.088 130.296 172.828 130.99C172.569 131.678 172.357 132.334 172.192 132.958C172.027 133.581 171.928 134.13 171.893 134.604H169.925C169.984 134.14 170.104 133.561 170.284 132.868C170.468 132.169 170.72 131.401 171.04 130.563C171.359 129.72 171.756 128.849 172.23 127.951C172.704 127.053 173.257 126.17 173.891 125.302H167.964V123.783ZM177.738 123.783H185.604V125.302C185.239 125.776 184.878 126.325 184.518 126.948C184.159 127.567 183.815 128.223 183.486 128.917C183.156 129.605 182.862 130.296 182.603 130.99C182.343 131.678 182.131 132.334 181.966 132.958C181.802 133.581 181.702 134.13 181.667 134.604H179.699C179.759 134.14 179.879 133.561 180.058 132.868C180.243 132.169 180.495 131.401 180.814 130.563C181.133 129.72 181.53 128.849 182.004 127.951C182.478 127.053 183.032 126.17 183.665 125.302H177.738V123.783ZM190.993 134.769C190.36 134.769 189.766 134.647 189.212 134.402C188.659 134.158 188.202 133.811 187.843 133.362C187.484 132.913 187.274 132.384 187.214 131.775H188.958C189.063 132.229 189.29 132.599 189.639 132.883C189.988 133.162 190.417 133.302 190.926 133.302C191.5 133.302 191.996 133.16 192.415 132.875C192.839 132.591 193.156 132.144 193.366 131.536C193.575 130.927 193.653 130.136 193.598 129.163C193.463 129.483 193.266 129.762 193.007 130.002C192.752 130.241 192.448 130.428 192.094 130.563C191.744 130.693 191.355 130.758 190.926 130.758C190.203 130.758 189.562 130.62 189.003 130.346C188.449 130.067 188.015 129.67 187.701 129.156C187.386 128.637 187.229 128.023 187.229 127.315C187.229 126.597 187.389 125.96 187.708 125.407C188.032 124.853 188.486 124.419 189.07 124.105C189.659 123.79 190.35 123.633 191.143 123.633C192.026 123.633 192.79 123.85 193.433 124.284C194.077 124.718 194.571 125.337 194.915 126.14C195.264 126.943 195.439 127.896 195.439 128.999C195.439 130.256 195.262 131.314 194.907 132.172C194.558 133.025 194.052 133.671 193.388 134.11C192.73 134.549 191.931 134.769 190.993 134.769ZM191.196 129.276C191.545 129.276 191.879 129.196 192.198 129.036C192.518 128.877 192.78 128.67 192.984 128.415C193.189 128.161 193.291 127.891 193.291 127.607C193.296 127.088 193.211 126.639 193.036 126.26C192.862 125.876 192.615 125.579 192.296 125.369C191.981 125.155 191.612 125.047 191.188 125.047C190.804 125.047 190.46 125.14 190.155 125.324C189.856 125.509 189.621 125.766 189.452 126.095C189.282 126.419 189.197 126.796 189.197 127.225C189.197 127.864 189.374 128.365 189.729 128.729C190.083 129.094 190.572 129.276 191.196 129.276ZM199.017 130.795C198.703 130.795 198.418 130.72 198.164 130.57C197.915 130.416 197.712 130.209 197.558 129.949C197.408 129.69 197.333 129.405 197.333 129.096C197.333 128.787 197.408 128.505 197.558 128.25C197.712 127.996 197.915 127.794 198.164 127.644C198.418 127.49 198.703 127.412 199.017 127.412C199.326 127.412 199.608 127.49 199.863 127.644C200.122 127.794 200.327 127.996 200.476 128.25C200.631 128.505 200.708 128.787 200.708 129.096C200.708 129.405 200.631 129.69 200.476 129.949C200.327 130.209 200.122 130.416 199.863 130.57C199.608 130.72 199.326 130.795 199.017 130.795Z" fill="black"/>
<path d="M145.081 42.3413C145.3 41.7064 146.198 41.7064 146.417 42.3413L147.271 44.8201C147.369 45.1051 147.637 45.2963 147.939 45.2963L150.61 45.2963C151.305 45.2963 151.582 46.193 151.009 46.5854L148.921 48.0162C148.659 48.1958 148.549 48.5285 148.652 48.829L149.467 51.1923C149.688 51.8358 148.961 52.3898 148.4 52.0051L146.148 50.4626C145.907 50.2978 145.59 50.2978 145.35 50.4626L143.098 52.0051C142.536 52.3898 141.809 51.8358 142.031 51.1923L142.845 48.829C142.949 48.5285 142.839 48.1958 142.577 48.0162L140.488 46.5854C139.915 46.193 140.193 45.2963 140.887 45.2963L143.559 45.2963C143.86 45.2963 144.128 45.1051 144.227 44.8201L145.081 42.3413Z" fill="black"/>
<path d="M158.409 47.4845H202.182" stroke="black" stroke-width="2.82545" stroke-linecap="round"/>
<path d="M88.886 47.4845H132.66" stroke="black" stroke-width="2.82545" stroke-linecap="round"/>
<path d="M145.081 96.8438C145.3 96.2088 146.198 96.2088 146.417 96.8438L147.271 99.3225C147.369 99.6075 147.637 99.7988 147.939 99.7988L150.61 99.7988C151.305 99.7988 151.582 100.695 151.009 101.088L148.921 102.519C148.659 102.698 148.549 103.031 148.652 103.331L149.467 105.695C149.688 106.338 148.961 106.892 148.4 106.508L146.148 104.965C145.907 104.8 145.59 104.8 145.35 104.965L143.098 106.508C142.536 106.892 141.809 106.338 142.031 105.695L142.845 103.331C142.949 103.031 142.839 102.698 142.577 102.519L140.488 101.088C139.915 100.695 140.193 99.7988 140.887 99.7988L143.559 99.7988C143.86 99.7988 144.128 99.6075 144.227 99.3225L145.081 96.8438Z" fill="black"/>
<path d="M158.409 101.987H202.182" stroke="black" stroke-width="2.82545" stroke-linecap="round"/>
<path d="M88.886 101.987H132.66" stroke="black" stroke-width="2.82545" stroke-linecap="round"/>
<rect x="72.1055" y="63.939" width="156.851" height="20.8356" fill="black"/>
<path fill-rule="evenodd" clip-rule="evenodd" d="M66.8853 74.9848V88.4071L149.647 88.2858L232.409 88.1646L232.535 74.8635L232.66 61.5625H149.773H66.8853V74.9848ZM67.0925 75.223C67.0925 82.6045 67.1579 85.5571 67.2375 81.7844C67.3171 78.0122 67.3171 71.9728 67.237 68.3635C67.1574 64.7547 67.092 67.8415 67.0925 75.223ZM76.068 69.0906C74.5455 69.4731 73.0071 71.2188 73.0071 72.5638C73.0071 74.4456 74.2389 75.8672 77.0394 77.217C79.8701 78.5811 80.5863 79.8398 79.3337 81.249C77.727 83.056 75.1257 82.0101 75.4449 79.6855C75.5688 78.7839 75.3795 78.5782 74.4264 78.5782C73.1431 78.5782 72.732 79.5541 73.2058 81.4747C73.8147 83.9456 80.0198 84.0175 81.7014 81.5735C82.5867 80.287 82.6357 78.3352 81.8107 77.1873C81.473 76.7171 79.9379 75.6515 78.3994 74.819C75.4313 73.2132 74.8384 72.2292 76.0778 70.9672C77.0187 70.01 77.7364 69.987 78.9212 70.8771C79.6539 71.4273 79.7184 71.6842 79.2466 72.1712C78.358 73.0881 78.5346 73.5454 79.7778 73.5454C81.9675 73.5454 82.583 70.809 80.6273 69.767C79.4886 69.1601 77.1647 68.8155 76.068 69.0906ZM126.251 69.373C125.165 69.7607 124.441 70.4313 124.05 71.4144C123.161 73.6456 124.214 75.3836 127.517 77.1403C130.483 78.7168 131.299 80.3613 129.706 81.5471C127.838 82.9376 125.692 81.7302 126.107 79.522C126.314 78.4215 126.204 78.2763 125.271 78.4167C122.364 78.8538 123.057 82.2651 126.229 83.1346C132.794 84.9335 135.639 77.4715 129.352 74.9431C127.347 74.1364 126.22 73.0953 126.22 72.0499C126.22 70.9432 127.848 70.043 129.112 70.4514C129.903 70.7069 130.033 71.0328 129.807 72.187C129.547 73.509 129.617 73.5977 130.817 73.4567C131.8 73.3417 132.139 73.0153 132.246 72.0825C132.514 69.7382 129.298 68.2849 126.251 69.373ZM159.697 69.4171C153.976 71.5189 153.525 79.9807 158.991 82.674C161.781 84.0487 163.852 83.6518 166.371 81.26C168.067 79.6495 168.3 79.1577 168.494 76.7669C168.671 74.6028 168.518 73.7616 167.707 72.4257C165.918 69.4789 162.759 68.2921 159.697 69.4171ZM198.56 69.2431C193.123 70.9197 191.808 78.8558 196.414 82.1942C200.608 85.234 206.481 82.2455 207.088 76.7626C207.622 71.9421 203.006 67.8722 198.56 69.2431ZM83.5582 69.8949C83.1038 71.1009 83.5737 73.2919 84.3183 73.4352C84.7496 73.5186 85.2478 72.9966 85.5723 72.1214C85.9349 71.144 86.4317 70.6695 87.0933 70.6695C88.0299 70.6695 88.0761 70.9164 88.0761 75.9252C88.0761 80.7146 87.9913 81.2269 87.1211 81.701C85.5605 82.5513 86.5329 83.1317 89.5166 83.1317C91.6894 83.1317 92.3143 82.9712 92.3143 82.4128C92.3143 82.0173 92.0209 81.6938 91.663 81.6938C90.7301 81.6938 90.4443 80.1494 90.4372 75.0716L90.4306 70.6058L91.7068 70.7577C92.6189 70.866 93.0616 71.2504 93.258 72.1051C93.4091 72.7627 93.9073 73.3743 94.3655 73.4639C95.0752 73.6029 95.176 73.3206 95.0512 71.5491L94.9043 69.4712L89.3621 69.3361C84.8716 69.2268 83.7701 69.3327 83.5582 69.8949ZM99.3779 69.9505C99.3779 70.346 99.6957 70.6695 100.084 70.6695C101.096 70.6695 101.019 70.994 98.7092 76.4961C97.4848 79.4132 96.3217 81.5179 95.8837 81.609C95.4745 81.6943 95.1397 82.072 95.1397 82.4478C95.1397 82.9573 95.8004 83.1317 97.7297 83.1317C99.7179 83.1317 100.32 82.9649 100.32 82.4128C100.32 82.0135 99.9011 81.6938 99.3779 81.6938C98.3282 81.6938 98.1964 81.1277 98.9234 79.7449C99.3016 79.0259 99.9185 78.8179 101.674 78.8179C103.65 78.8179 104.006 78.9746 104.491 80.0588C104.983 81.1574 104.936 81.329 104.077 81.5577C103.543 81.6995 103.185 82.0581 103.28 82.3538C103.474 82.9544 107.544 83.3551 108.733 82.8911C109.394 82.6328 109.359 82.4847 108.471 81.7839C107.898 81.3314 106.592 78.7575 105.509 75.942C104.443 73.1739 103.134 70.5315 102.6 70.0704C101.394 69.0298 99.3779 68.9545 99.3779 69.9505ZM109.738 69.9505C109.738 70.346 110.056 70.6695 110.444 70.6695C111.001 70.6695 111.165 71.4057 111.217 74.1446C111.352 81.0865 111.289 81.6938 110.444 81.6938C110.056 81.6938 109.738 82.0173 109.738 82.4128C109.738 82.9712 110.363 83.1317 112.535 83.1317C115.519 83.1317 116.492 82.5513 114.931 81.701C114.218 81.3127 113.976 80.6987 113.976 79.2804C113.976 76.6701 114.934 76.8148 116.753 79.6998C118.2 81.9943 119.774 83.1317 121.505 83.1317C123.021 83.1317 122.933 82.4204 121.248 81.052C120.36 80.3306 119.302 79.0906 118.899 78.2964C118.185 76.8906 118.203 76.8163 119.602 75.4857C121.716 73.4764 121.369 71.3631 118.694 69.9553C116.758 68.9358 109.738 68.932 109.738 69.9505ZM139.184 69.6869C139.032 69.9371 139.338 70.3762 139.863 70.6623C140.728 71.134 140.818 71.6502 140.818 76.1817C140.818 80.7131 140.728 81.2293 139.863 81.701C138.302 82.5513 139.275 83.1317 142.258 83.1317C144.431 83.1317 145.056 82.9712 145.056 82.4128C145.056 82.0173 144.761 81.6938 144.4 81.6938C143.578 81.6938 143.172 80.6503 143.172 78.5389V76.9006H146.233H149.294V79.0408C149.294 80.7002 149.079 81.2974 148.339 81.701C146.778 82.5513 147.751 83.1317 150.735 83.1317C152.803 83.1317 153.532 82.9587 153.532 82.4688C153.532 82.1041 153.108 81.6928 152.59 81.5548C151.723 81.3238 151.649 80.901 151.649 76.1817C151.649 71.4623 151.723 71.0395 152.59 70.8085C153.108 70.6705 153.532 70.2592 153.532 69.8945C153.532 69.4046 152.803 69.2316 150.735 69.2316C147.751 69.2316 146.778 69.812 148.339 70.6623C149.079 71.0659 149.294 71.6631 149.294 73.3225V75.4627H146.454C143.253 75.4627 142.873 75.0778 143.377 72.3433C143.562 71.342 143.961 70.6695 144.371 70.6695C144.747 70.6695 145.056 70.346 145.056 69.9505C145.056 69.3921 144.431 69.2316 142.258 69.2316C140.719 69.2316 139.336 69.4362 139.184 69.6869ZM170.278 69.6644C170.118 69.9271 170.418 70.3762 170.943 70.6623C171.808 71.134 171.898 71.6502 171.898 76.1817C171.898 80.7131 171.808 81.2293 170.943 81.701C169.142 82.6821 170.545 83.1317 175.407 83.1317C180.621 83.1317 180.845 83.0229 180.845 80.4845C180.845 78.7369 180.024 78.6286 179.192 80.2664C178.509 81.6104 178.258 81.7331 176.464 81.6003L174.488 81.4541L174.353 76.2607C174.227 71.3501 174.272 71.0534 175.197 70.8076C175.735 70.6647 176.096 70.3052 176 70.0095C175.78 69.3293 170.669 69.0207 170.278 69.6644ZM182.121 69.5302C181.546 70.1159 181.751 70.5482 182.729 70.8085C183.596 71.0395 183.67 71.4623 183.67 76.1817C183.67 80.9355 183.601 81.3228 182.709 81.5601C182.181 81.7005 181.827 82.0581 181.923 82.3538C182.034 82.6932 183.896 82.9429 186.966 83.0296C192.232 83.1782 192.597 83.022 192.61 80.6153C192.619 78.9104 191.349 78.8486 190.724 80.5233C190.317 81.6109 190.04 81.7326 188.263 81.6018L186.26 81.4541L186.126 76.2607C185.999 71.3501 186.045 71.0534 186.969 70.8076C188.76 70.3311 187.632 69.4731 185.027 69.3303C183.613 69.2531 182.305 69.3428 182.121 69.5302ZM207.988 69.5633C207.81 69.7459 208.168 70.3388 208.785 70.8814C209.554 71.5577 210.456 73.6485 211.651 77.5295C213.812 84.5481 214.472 84.772 215.903 78.9698C216.435 76.8148 217.001 74.9196 217.163 74.7586C217.324 74.5975 218.078 76.3609 218.838 78.6775C220.697 84.3454 221.328 84.389 222.946 78.9607C224.939 72.2747 225.309 71.4172 226.419 70.9154C226.994 70.6551 227.465 70.1586 227.465 69.812C227.465 68.9713 222.677 69.2157 222.4 70.0704C222.294 70.4001 222.542 70.6695 222.952 70.6695C223.901 70.6695 223.899 70.7002 222.62 74.9666L221.548 78.5447L220.702 76.1649C218.776 70.7467 218.181 69.4712 217.58 69.4712C216.912 69.4712 216.744 69.9151 215.415 75.1564L214.582 78.445L213.297 74.4638C212.591 72.2738 211.634 70.2007 211.172 69.8571C210.269 69.1841 208.519 69.0231 207.988 69.5633ZM159.675 71.5332C156.227 75.0428 158.506 82.9659 162.659 81.9052C164.353 81.4724 165.272 79.9558 165.612 77.0358C165.974 73.9313 164.877 71.4249 162.842 70.7031C160.977 70.0411 161.197 69.9836 159.675 71.5332ZM198.836 70.6968C196.679 71.5692 195.725 76.2823 197.051 79.5139C198.233 82.3912 200.424 82.928 202.474 80.8425C206.296 76.9524 203.392 68.8543 198.836 70.6968ZM114.29 70.9892C114.117 71.1646 113.976 72.351 113.976 73.6255C113.976 75.8519 114.028 75.942 115.316 75.942C117.819 75.942 119.117 73.0881 117.353 71.4628C116.479 70.6575 114.861 70.4073 114.29 70.9892ZM100.664 75.4627L99.9246 77.3799H101.535C102.42 77.3799 103.145 77.2333 103.145 77.0545C103.145 76.3523 101.997 73.5454 101.709 73.5454C101.542 73.5454 101.071 74.4082 100.664 75.4627Z" fill="#B3CDDE"/>
</svg>
