<svg width="403" height="616" viewBox="0 0 403 616" fill="none" xmlns="http://www.w3.org/2000/svg">
<rect x="0.460449" y="324.16" width="402.519" height="291.501" fill="url(#paint0_linear_63_1915)"/>
<path d="M16.9429 29.1103C16.9429 13.3676 29.7049 0.605591 45.4476 0.605591H357.992C373.735 0.605591 386.497 13.3676 386.497 29.1103V324.16H16.9429V29.1103Z" fill="url(#paint1_linear_63_1915)"/>
<rect x="34.293" y="41.378" width="334.854" height="282.782" fill="#FCF8F5"/>
<line x1="34.293" y1="89.8488" x2="369.147" y2="89.8488" stroke="#5981AA" stroke-width="1.50025"/>
<line x1="34.293" y1="130.035" x2="369.147" y2="130.035" stroke="#5981AA" stroke-width="1.50025"/>
<line x1="33.6926" y1="162.008" x2="368.547" y2="162.008" stroke="#5981AA" stroke-width="0.750124"/>
<line x1="33.6926" y1="165.388" x2="368.547" y2="165.388" stroke="#5981AA" stroke-width="0.750124"/>
<line x1="34.293" y1="196.986" x2="369.147" y2="196.986" stroke="#5981AA" stroke-width="0.750124"/>
<line x1="133.999" y1="324.161" x2="133.709" y2="165.764" stroke="#5981AA" stroke-width="0.750124"/>
<path d="M34.293 228.761H369.147" stroke="#5981AA" stroke-width="0.750124"/>
<line x1="34.293" y1="260.363" x2="369.147" y2="260.363" stroke="#5981AA" stroke-width="0.750124"/>
<line x1="34.293" y1="292.186" x2="369.147" y2="292.186" stroke="#5981AA" stroke-width="0.750124"/>
<path d="M34.293 323.745H369.147" stroke="#5981AA" stroke-width="0.750124"/>
<path d="M52.3208 111.019H53.347V106.698H52.4829V107.787H51.4927V105.708H56.4255V107.787H55.4354V106.698H54.5802V111.019H55.5974V112.009H52.3208V111.019ZM57.4122 110.911H59.0054V106.806H57.4122V105.708H61.8409V106.806H60.2386V110.911H61.8409V112.009H57.4122V110.911ZM63.6557 111.019H64.6819V106.698H63.8177V107.787H62.8276V105.708H67.7604V107.787H66.7702V106.698H65.9151V111.019H66.9322V112.009H63.6557V111.019ZM71.9876 109.444H73.1037V112.009H68.9631V105.708H70.1963V110.911H71.9876V109.444ZM74.5585 105.708H78.6901V106.806H75.7917V108.273H78.4651V109.372H75.7917V110.911H78.7352V112.009H74.5585V105.708Z" fill="#1A2E43"/>
<path d="M54.8591 70.5502H52.9778L52.5458 71.9454H51.3126L53.3469 65.6444H54.5801L56.6054 71.9454H55.3092L54.8591 70.5502ZM53.2659 69.56H54.6161L53.977 67.4537H53.896L53.2659 69.56ZM60.7066 65.6444H61.8768V69.6771C61.8768 70.0851 61.8228 70.4392 61.7148 70.7392C61.6067 71.0333 61.4537 71.2793 61.2557 71.4774C61.0637 71.6694 60.8326 71.8134 60.5626 71.9094C60.2925 72.0054 59.9955 72.0535 59.6714 72.0535C58.8913 72.0535 58.3122 71.8644 57.9341 71.4864C57.5621 71.1083 57.376 70.5562 57.376 69.8301V65.6444H58.6092V69.587C58.6092 70.0671 58.6963 70.4152 58.8703 70.6312C59.0443 70.8473 59.3174 70.9553 59.6894 70.9553C60.0495 70.9553 60.3075 70.8413 60.4636 70.6132C60.6256 70.3792 60.7066 70.0371 60.7066 69.587V65.6444ZM63.6556 70.9553H64.6817V66.6346H63.8176V67.7237H62.8274V65.6444H67.7602V67.7237H66.7701V66.6346H65.9149V70.9553H66.9321V71.9454H63.6556V70.9553ZM71.9784 69.308H69.9441V71.9454H68.7109V65.6444H69.9441V68.2098H71.9784V65.6444H73.2116V71.9454H71.9784V69.308ZM74.2523 68.7949C74.2523 68.2848 74.3003 67.8258 74.3963 67.4177C74.4923 67.0096 74.6394 66.6676 74.8374 66.3915C75.0354 66.1095 75.2815 65.8934 75.5755 65.7434C75.8756 65.5934 76.2266 65.5184 76.6287 65.5184C77.0608 65.5184 77.4268 65.5994 77.7269 65.7614C78.0269 65.9234 78.27 66.1485 78.456 66.4365C78.648 66.7246 78.786 67.0696 78.8701 67.4717C78.9601 67.8738 79.0051 68.3148 79.0051 68.7949C79.0051 69.8211 78.807 70.6252 78.411 71.2073C78.0209 71.7834 77.4268 72.0715 76.6287 72.0715C76.1966 72.0715 75.8276 71.9904 75.5215 71.8284C75.2215 71.6664 74.9754 71.4414 74.7834 71.1533C74.5973 70.8653 74.4623 70.5202 74.3783 70.1181C74.2943 69.7161 74.2523 69.275 74.2523 68.7949ZM75.5485 68.7949C75.5485 69.101 75.5605 69.386 75.5845 69.6501C75.6145 69.9141 75.6655 70.1451 75.7375 70.3432C75.8155 70.5352 75.9236 70.6882 76.0616 70.8022C76.2056 70.9163 76.3946 70.9733 76.6287 70.9733C76.8387 70.9733 77.0127 70.9313 77.1508 70.8473C77.2888 70.7572 77.3998 70.6222 77.4838 70.4422C77.5678 70.2622 77.6248 70.0371 77.6549 69.7671C77.6909 69.491 77.7089 69.167 77.7089 68.7949C77.7089 68.5009 77.6969 68.2218 77.6729 67.9578C77.6549 67.6937 77.6068 67.4627 77.5288 67.2647C77.4568 67.0666 77.3488 66.9106 77.2048 66.7966C77.0608 66.6766 76.8687 66.6166 76.6287 66.6166C76.2086 66.6166 75.9236 66.7996 75.7735 67.1656C75.6235 67.5317 75.5485 68.0748 75.5485 68.7949ZM80.1538 65.7074C80.2918 65.6834 80.4388 65.6624 80.5948 65.6444C80.7569 65.6204 80.9159 65.6024 81.0719 65.5904C81.2339 65.5784 81.39 65.5694 81.54 65.5634C81.69 65.5574 81.828 65.5544 81.9541 65.5544C82.2481 65.5544 82.5361 65.5844 82.8182 65.6444C83.1062 65.6984 83.3613 65.7944 83.5833 65.9324C83.8114 66.0705 83.9914 66.2565 84.1234 66.4905C84.2614 66.7246 84.3304 67.0156 84.3304 67.3637C84.3304 67.6217 84.3034 67.8468 84.2494 68.0388C84.2014 68.2248 84.1324 68.3898 84.0424 68.5339C83.9524 68.6779 83.8414 68.8039 83.7093 68.9119C83.5833 69.0139 83.4453 69.107 83.2953 69.191L84.8165 71.9454H83.3943L82.1251 69.479H81.387V71.9454H80.1538V65.7074ZM82.0441 66.6526C81.918 66.6526 81.792 66.6556 81.666 66.6616C81.546 66.6676 81.453 66.6796 81.387 66.6976V68.5249H81.873C82.2151 68.5249 82.4941 68.4469 82.7102 68.2908C82.9262 68.1348 83.0342 67.8768 83.0342 67.5167C83.0342 67.2467 82.9502 67.0366 82.7822 66.8866C82.6142 66.7306 82.3681 66.6526 82.0441 66.6526Z" fill="#1A2E43"/>
<path d="M51.7087 178.966C51.7628 178.96 51.8558 178.951 51.9878 178.939C52.1258 178.927 52.2788 178.918 52.4469 178.912C52.6209 178.9 52.7979 178.891 52.978 178.885C53.164 178.879 53.329 178.876 53.473 178.876C54.0311 178.876 54.4932 178.957 54.8593 179.119C55.2253 179.281 55.5134 179.506 55.7234 179.794C55.9394 180.076 56.0895 180.413 56.1735 180.803C56.2575 181.187 56.2995 181.607 56.2995 182.063C56.2995 182.477 56.2575 182.882 56.1735 183.278C56.0895 183.674 55.9364 184.028 55.7144 184.34C55.4984 184.646 55.1953 184.895 54.8053 185.087C54.4212 185.273 53.9261 185.366 53.32 185.366C53.224 185.366 53.101 185.363 52.9509 185.357C52.8009 185.351 52.6479 185.342 52.4919 185.33C52.3358 185.324 52.1858 185.315 52.0418 185.303C51.8978 185.297 51.7868 185.288 51.7087 185.276V178.966ZM53.518 179.974C53.404 179.974 53.293 179.98 53.185 179.992C53.077 179.998 52.996 180.004 52.9419 180.01V184.232C52.9659 184.238 53.002 184.244 53.05 184.25C53.098 184.25 53.146 184.253 53.194 184.259C53.248 184.259 53.299 184.262 53.347 184.268C53.395 184.268 53.434 184.268 53.464 184.268C53.8121 184.268 54.0881 184.205 54.2922 184.079C54.5022 183.947 54.6582 183.776 54.7602 183.566C54.8623 183.356 54.9283 183.119 54.9583 182.855C54.9883 182.591 55.0033 182.327 55.0033 182.063C55.0033 181.835 54.9883 181.598 54.9583 181.352C54.9343 181.106 54.8713 180.881 54.7692 180.677C54.6732 180.473 54.5262 180.305 54.3282 180.172C54.1301 180.04 53.8601 179.974 53.518 179.974ZM60.5267 183.872H58.6454L58.2133 185.267H56.9801L59.0144 178.966H60.2476L62.273 185.267H60.9768L60.5267 183.872ZM58.9334 182.882H60.2836L59.6445 180.776H59.5635L58.9334 182.882ZM63.6557 184.277H64.6819V179.956H63.8177V181.046H62.8276V178.966H67.7604V181.046H66.7702V179.956H65.9151V184.277H66.9322V185.267H63.6557V184.277ZM68.891 178.966H73.0227V180.064H70.1242V181.532H72.7977V182.63H70.1242V184.169H73.0677V185.267H68.891V178.966ZM80.0459 178.966C80.0999 178.96 80.1929 178.951 80.3249 178.939C80.4629 178.927 80.616 178.918 80.784 178.912C80.958 178.9 81.135 178.891 81.3151 178.885C81.5011 178.879 81.6661 178.876 81.8101 178.876C82.3682 178.876 82.8303 178.957 83.1964 179.119C83.5624 179.281 83.8505 179.506 84.0605 179.794C84.2766 180.076 84.4266 180.413 84.5106 180.803C84.5946 181.187 84.6366 181.607 84.6366 182.063C84.6366 182.477 84.5946 182.882 84.5106 183.278C84.4266 183.674 84.2736 184.028 84.0515 184.34C83.8355 184.646 83.5324 184.895 83.1424 185.087C82.7583 185.273 82.2632 185.366 81.6571 185.366C81.5611 185.366 81.4381 185.363 81.2881 185.357C81.138 185.351 80.985 185.342 80.829 185.33C80.673 185.324 80.5229 185.315 80.3789 185.303C80.2349 185.297 80.1239 185.288 80.0459 185.276V178.966ZM81.8552 179.974C81.7411 179.974 81.6301 179.98 81.5221 179.992C81.4141 179.998 81.3331 180.004 81.2791 180.01V184.232C81.3031 184.238 81.3391 184.244 81.3871 184.25C81.4351 184.25 81.4831 184.253 81.5311 184.259C81.5851 184.259 81.6361 184.262 81.6841 184.268C81.7321 184.268 81.7711 184.268 81.8011 184.268C82.1492 184.268 82.4252 184.205 82.6293 184.079C82.8393 183.947 82.9953 183.776 83.0974 183.566C83.1994 183.356 83.2654 183.119 83.2954 182.855C83.3254 182.591 83.3404 182.327 83.3404 182.063C83.3404 181.835 83.3254 181.598 83.2954 181.352C83.2714 181.106 83.2084 180.881 83.1064 180.677C83.0103 180.473 82.8633 180.305 82.6653 180.172C82.4673 180.04 82.1972 179.974 81.8552 179.974ZM89.0438 178.966H90.214V182.999C90.214 183.407 90.16 183.761 90.052 184.061C89.944 184.355 89.791 184.601 89.5929 184.799C89.4009 184.991 89.1698 185.135 88.8998 185.231C88.6298 185.327 88.3327 185.375 88.0087 185.375C87.2285 185.375 86.6494 185.186 86.2714 184.808C85.8993 184.43 85.7133 183.878 85.7133 183.152V178.966H86.9465V182.909C86.9465 183.389 87.0335 183.737 87.2075 183.953C87.3816 184.169 87.6546 184.277 88.0267 184.277C88.3867 184.277 88.6448 184.163 88.8008 183.935C88.9628 183.701 89.0438 183.359 89.0438 182.909V178.966ZM91.5607 178.966H95.6924V180.064H92.7939V181.532H95.4674V182.63H92.7939V184.169H95.7374V185.267H91.5607V178.966Z" fill="#1A2E43"/>
<path d="M214.338 180.434C214.338 180.59 214.317 180.746 214.275 180.902C214.239 181.058 214.176 181.202 214.086 181.334C213.996 181.46 213.879 181.574 213.735 181.676C213.591 181.772 213.417 181.844 213.213 181.892V181.946C213.393 181.976 213.564 182.027 213.726 182.099C213.888 182.171 214.029 182.27 214.149 182.396C214.269 182.522 214.362 182.675 214.428 182.855C214.5 183.035 214.536 183.248 214.536 183.494C214.536 183.818 214.467 184.1 214.329 184.34C214.191 184.574 214.005 184.766 213.771 184.916C213.543 185.066 213.282 185.177 212.988 185.249C212.694 185.321 212.39 185.357 212.078 185.357C211.976 185.357 211.844 185.357 211.682 185.357C211.526 185.357 211.355 185.351 211.169 185.339C210.989 185.333 210.803 185.321 210.611 185.303C210.425 185.285 210.254 185.258 210.098 185.222V179.011C210.212 178.993 210.341 178.975 210.485 178.957C210.635 178.939 210.794 178.924 210.962 178.912C211.13 178.9 211.301 178.891 211.475 178.885C211.655 178.879 211.832 178.876 212.006 178.876C212.3 178.876 212.586 178.9 212.862 178.948C213.144 178.99 213.393 179.068 213.609 179.182C213.831 179.296 214.008 179.455 214.14 179.659C214.272 179.863 214.338 180.121 214.338 180.434ZM212.087 184.34C212.237 184.34 212.381 184.322 212.52 184.286C212.664 184.25 212.79 184.196 212.898 184.124C213.006 184.046 213.093 183.95 213.159 183.836C213.225 183.722 213.258 183.587 213.258 183.431C213.258 183.233 213.219 183.077 213.141 182.963C213.063 182.849 212.961 182.762 212.835 182.702C212.709 182.636 212.568 182.594 212.411 182.576C212.255 182.558 212.099 182.549 211.943 182.549H211.286V184.286C211.316 184.298 211.364 184.307 211.43 184.313C211.496 184.319 211.565 184.325 211.637 184.331C211.715 184.331 211.793 184.334 211.871 184.34C211.955 184.34 212.027 184.34 212.087 184.34ZM211.682 181.613C211.766 181.613 211.862 181.61 211.97 181.604C212.084 181.598 212.177 181.589 212.249 181.577C212.477 181.505 212.673 181.397 212.835 181.253C213.003 181.109 213.087 180.92 213.087 180.686C213.087 180.53 213.057 180.401 212.997 180.299C212.937 180.196 212.856 180.115 212.754 180.055C212.658 179.995 212.547 179.953 212.42 179.929C212.294 179.905 212.162 179.893 212.024 179.893C211.868 179.893 211.724 179.896 211.592 179.902C211.46 179.908 211.358 179.917 211.286 179.929V181.613H211.682ZM215.531 182.117C215.531 181.607 215.579 181.148 215.676 180.74C215.772 180.332 215.919 179.989 216.117 179.713C216.315 179.431 216.561 179.215 216.855 179.065C217.155 178.915 217.506 178.84 217.908 178.84C218.34 178.84 218.706 178.921 219.006 179.083C219.306 179.245 219.549 179.47 219.735 179.758C219.927 180.046 220.065 180.392 220.149 180.794C220.239 181.196 220.284 181.637 220.284 182.117C220.284 183.143 220.086 183.947 219.69 184.529C219.3 185.105 218.706 185.393 217.908 185.393C217.476 185.393 217.107 185.312 216.801 185.15C216.501 184.988 216.255 184.763 216.063 184.475C215.877 184.187 215.742 183.842 215.658 183.44C215.573 183.038 215.531 182.597 215.531 182.117ZM216.828 182.117C216.828 182.423 216.84 182.708 216.864 182.972C216.894 183.236 216.945 183.467 217.017 183.665C217.095 183.857 217.203 184.01 217.341 184.124C217.485 184.238 217.674 184.295 217.908 184.295C218.118 184.295 218.292 184.253 218.43 184.169C218.568 184.079 218.679 183.944 218.763 183.764C218.847 183.584 218.904 183.359 218.934 183.089C218.97 182.813 218.988 182.489 218.988 182.117C218.988 181.823 218.976 181.544 218.952 181.28C218.934 181.016 218.886 180.785 218.808 180.587C218.736 180.389 218.628 180.232 218.484 180.118C218.34 179.998 218.148 179.938 217.908 179.938C217.488 179.938 217.203 180.121 217.053 180.488C216.903 180.854 216.828 181.397 216.828 182.117ZM221.433 179.029C221.571 179.005 221.718 178.984 221.874 178.966C222.036 178.942 222.195 178.924 222.351 178.912C222.513 178.9 222.669 178.891 222.819 178.885C222.969 178.879 223.107 178.876 223.233 178.876C223.527 178.876 223.815 178.906 224.097 178.966C224.385 179.02 224.64 179.116 224.863 179.254C225.091 179.392 225.271 179.578 225.403 179.812C225.541 180.046 225.61 180.338 225.61 180.686C225.61 180.944 225.583 181.169 225.529 181.361C225.481 181.547 225.412 181.712 225.322 181.856C225.232 182 225.121 182.126 224.989 182.234C224.863 182.336 224.724 182.429 224.574 182.513L226.096 185.267H224.673L223.404 182.801H222.666V185.267H221.433V179.029ZM223.323 179.974C223.197 179.974 223.071 179.977 222.945 179.983C222.825 179.989 222.732 180.001 222.666 180.019V181.847H223.152C223.494 181.847 223.773 181.769 223.989 181.613C224.205 181.457 224.313 181.199 224.313 180.839C224.313 180.569 224.229 180.359 224.061 180.208C223.893 180.052 223.647 179.974 223.323 179.974ZM227.1 179.029C227.238 179.005 227.385 178.984 227.541 178.966C227.703 178.942 227.862 178.924 228.019 178.912C228.181 178.9 228.337 178.891 228.487 178.885C228.637 178.879 228.775 178.876 228.901 178.876C229.195 178.876 229.483 178.906 229.765 178.966C230.053 179.02 230.308 179.116 230.53 179.254C230.758 179.392 230.938 179.578 231.07 179.812C231.208 180.046 231.277 180.338 231.277 180.686C231.277 180.944 231.25 181.169 231.196 181.361C231.148 181.547 231.079 181.712 230.989 181.856C230.899 182 230.788 182.126 230.656 182.234C230.53 182.336 230.392 182.429 230.242 182.513L231.763 185.267H230.341L229.072 182.801H228.334V185.267H227.1V179.029ZM228.991 179.974C228.865 179.974 228.739 179.977 228.613 179.983C228.493 179.989 228.4 180.001 228.334 180.019V181.847H228.82C229.162 181.847 229.441 181.769 229.657 181.613C229.873 181.457 229.981 181.199 229.981 180.839C229.981 180.569 229.897 180.359 229.729 180.208C229.561 180.052 229.315 179.974 228.991 179.974ZM232.534 182.117C232.534 181.607 232.582 181.148 232.678 180.74C232.774 180.332 232.921 179.989 233.119 179.713C233.317 179.431 233.563 179.215 233.857 179.065C234.157 178.915 234.508 178.84 234.91 178.84C235.342 178.84 235.708 178.921 236.008 179.083C236.308 179.245 236.551 179.47 236.737 179.758C236.929 180.046 237.068 180.392 237.152 180.794C237.242 181.196 237.287 181.637 237.287 182.117C237.287 183.143 237.089 183.947 236.692 184.529C236.302 185.105 235.708 185.393 234.91 185.393C234.478 185.393 234.109 185.312 233.803 185.15C233.503 184.988 233.257 184.763 233.065 184.475C232.879 184.187 232.744 183.842 232.66 183.44C232.576 183.038 232.534 182.597 232.534 182.117ZM233.83 182.117C233.83 182.423 233.842 182.708 233.866 182.972C233.896 183.236 233.947 183.467 234.019 183.665C234.097 183.857 234.205 184.01 234.343 184.124C234.487 184.238 234.676 184.295 234.91 184.295C235.12 184.295 235.294 184.253 235.432 184.169C235.57 184.079 235.681 183.944 235.765 183.764C235.849 183.584 235.906 183.359 235.936 183.089C235.972 182.813 235.99 182.489 235.99 182.117C235.99 181.823 235.978 181.544 235.954 181.28C235.936 181.016 235.888 180.785 235.81 180.587C235.738 180.389 235.63 180.232 235.486 180.118C235.342 179.998 235.15 179.938 234.91 179.938C234.49 179.938 234.205 180.121 234.055 180.488C233.905 180.854 233.83 181.397 233.83 182.117ZM239.452 182.486L239.47 183.242H239.506L239.659 182.531L240.2 180.857H241.118L241.622 182.531L241.784 183.242H241.82L241.838 182.468L242.09 178.966H243.224L242.576 185.267H241.532L240.857 183.278L240.65 182.414H240.605L240.389 183.278L239.659 185.267H238.579L237.931 178.966H239.164L239.452 182.486ZM244.175 178.966H248.306V180.064H245.408V181.532H248.081V182.63H245.408V184.169H248.351V185.267H244.175V178.966ZM249.77 179.029C249.908 179.005 250.055 178.984 250.211 178.966C250.373 178.942 250.532 178.924 250.688 178.912C250.85 178.9 251.006 178.891 251.156 178.885C251.306 178.879 251.444 178.876 251.57 178.876C251.864 178.876 252.152 178.906 252.435 178.966C252.723 179.02 252.978 179.116 253.2 179.254C253.428 179.392 253.608 179.578 253.74 179.812C253.878 180.046 253.947 180.338 253.947 180.686C253.947 180.944 253.92 181.169 253.866 181.361C253.818 181.547 253.749 181.712 253.659 181.856C253.569 182 253.458 182.126 253.326 182.234C253.2 182.336 253.062 182.429 252.912 182.513L254.433 185.267H253.011L251.741 182.801H251.003V185.267H249.77V179.029ZM251.66 179.974C251.534 179.974 251.408 179.977 251.282 179.983C251.162 179.989 251.069 180.001 251.003 180.019V181.847H251.489C251.831 181.847 252.11 181.769 252.326 181.613C252.543 181.457 252.651 181.199 252.651 180.839C252.651 180.569 252.567 180.359 252.398 180.208C252.23 180.052 251.984 179.974 251.66 179.974ZM256.842 179.452C256.842 179.374 256.857 179.296 256.887 179.218C256.917 179.14 256.962 179.071 257.022 179.011C257.082 178.945 257.154 178.894 257.238 178.858C257.328 178.816 257.427 178.795 257.535 178.795C257.655 178.795 257.769 178.819 257.877 178.867C257.991 178.909 258.087 178.972 258.165 179.056C258.231 179.134 258.282 179.227 258.318 179.335C258.354 179.443 258.372 179.557 258.372 179.677C258.372 179.905 258.33 180.115 258.246 180.308C258.168 180.5 258.054 180.671 257.904 180.821C257.838 180.887 257.763 180.95 257.679 181.01C257.595 181.064 257.514 181.112 257.436 181.154C257.364 181.19 257.301 181.22 257.247 181.244C257.193 181.268 257.16 181.283 257.148 181.289L256.788 180.758C256.854 180.734 256.926 180.704 257.004 180.668C257.088 180.626 257.166 180.578 257.238 180.524C257.31 180.464 257.37 180.395 257.418 180.317C257.466 180.239 257.493 180.148 257.499 180.046C257.325 180.046 257.172 179.995 257.04 179.893C256.908 179.791 256.842 179.644 256.842 179.452ZM261.132 183.206H262.122V184.097C262.14 184.103 262.158 184.109 262.176 184.115C262.314 184.175 262.464 184.226 262.626 184.268C262.794 184.304 262.971 184.322 263.157 184.322C263.493 184.322 263.754 184.256 263.94 184.124C264.126 183.986 264.219 183.803 264.219 183.575C264.219 183.371 264.141 183.206 263.985 183.08C263.835 182.954 263.646 182.843 263.418 182.747C263.196 182.651 262.95 182.555 262.68 182.459C262.416 182.363 262.17 182.243 261.942 182.099C261.72 181.949 261.531 181.763 261.375 181.541C261.225 181.319 261.15 181.031 261.15 180.677C261.15 180.407 261.201 180.16 261.303 179.938C261.411 179.71 261.558 179.515 261.744 179.353C261.936 179.191 262.164 179.065 262.428 178.975C262.692 178.885 262.986 178.84 263.31 178.84C263.676 178.84 264.036 178.873 264.39 178.939C264.745 179.005 265.027 179.095 265.237 179.209V181.037H264.246V180.037C264.228 180.037 264.21 180.034 264.192 180.028C264.06 179.992 263.916 179.965 263.76 179.947C263.61 179.923 263.46 179.911 263.31 179.911C263.022 179.911 262.794 179.968 262.626 180.082C262.464 180.196 262.383 180.35 262.383 180.542C262.383 180.74 262.458 180.902 262.608 181.028C262.764 181.154 262.953 181.268 263.175 181.37C263.403 181.472 263.649 181.574 263.913 181.676C264.183 181.778 264.429 181.904 264.651 182.054C264.88 182.198 265.069 182.381 265.219 182.603C265.375 182.825 265.453 183.104 265.453 183.44C265.453 183.764 265.393 184.049 265.273 184.295C265.153 184.535 264.985 184.739 264.769 184.907C264.552 185.069 264.297 185.189 264.003 185.267C263.709 185.351 263.391 185.393 263.049 185.393C262.821 185.393 262.608 185.375 262.41 185.339C262.218 185.303 262.038 185.258 261.87 185.204C261.708 185.15 261.564 185.093 261.438 185.033C261.312 184.973 261.21 184.922 261.132 184.88V183.206ZM273.547 181.541H273.502L273.556 182.288V185.267H272.386V178.966H273.466L275.644 182.819H275.689L275.608 182.063V178.966H276.778V185.267H275.698L273.547 181.541ZM281.15 183.872H279.268L278.836 185.267H277.603L279.637 178.966H280.871L282.896 185.267H281.6L281.15 183.872ZM279.556 182.882H280.907L280.268 180.776H280.187L279.556 182.882ZM287.024 181.91L287.069 180.929H287.015L286.007 182.576H285.791L284.738 180.929H284.693L284.747 181.811V185.267H283.577V178.966H284.828L285.908 180.713H285.944L287.015 178.966H288.257V185.267H287.024V181.91ZM289.514 178.966H293.646V180.064H290.747V181.532H293.421V182.63H290.747V184.169H293.691V185.267H289.514V178.966Z" fill="#1A2E43"/>
<defs>
<linearGradient id="paint0_linear_63_1915" x1="340.003" y1="198.58" x2="133.021" y2="576.622" gradientUnits="userSpaceOnUse">
<stop stop-color="#F4D490"/>
<stop offset="1" stop-color="#DAB565"/>
</linearGradient>
<linearGradient id="paint1_linear_63_1915" x1="201.72" y1="0.605591" x2="201.72" y2="324.16" gradientUnits="userSpaceOnUse">
<stop stop-color="#EFCE87"/>
<stop offset="1" stop-color="#DAB566"/>
</linearGradient>
</defs>
</svg>
