<svg width="29" height="27" viewBox="0 0 29 27" fill="none" xmlns="http://www.w3.org/2000/svg">
<circle cx="10.1749" cy="10.1749" r="9.71809" transform="matrix(-1 0 0 1 28.1389 3.28076)" fill="#E0E5E8" stroke="#6E818C" stroke-width="0.913614"/>
<path opacity="0.6" d="M14.5329 6.30786C14.3151 7.18094 13.4183 7.71788 12.5221 7.49436C11.97 7.35668 11.5519 6.96308 11.3642 6.47634L14.0972 4.7575C14.4934 5.15382 14.6756 5.73538 14.5329 6.30786Z" stroke="#6E818C" stroke-width="0.784553"/>
<path opacity="0.6" d="M10.0978 11.1539C10.5386 11.8501 10.3315 12.7719 9.63523 13.2126C9.21212 13.4805 8.70528 13.5094 8.27341 13.3336L8.83864 10.4597C9.33247 10.4607 9.8146 10.7066 10.0978 11.1539Z" stroke="#6E818C" stroke-width="0.784553"/>
<g opacity="0.6">
<circle cx="21.7793" cy="6.90896" r="2.15633" fill="#E0E5E8"/>
<circle cx="21.7793" cy="6.90896" r="2.15633" fill="#E0E5E8"/>
<circle cx="21.7793" cy="6.90896" r="2.15633" stroke="#6E818C" stroke-width="0.784553"/>
</g>
<g opacity="0.6">
<circle cx="13.2401" cy="17.9786" r="3.24609" transform="rotate(1.59795 13.2401 17.9786)" fill="#E0E5E8"/>
<circle cx="13.2401" cy="17.9786" r="3.24609" transform="rotate(1.59795 13.2401 17.9786)" fill="#E0E5E8"/>
<circle cx="13.2401" cy="17.9786" r="3.24609" transform="rotate(1.59795 13.2401 17.9786)" stroke="#6E818C" stroke-width="0.784553"/>
</g>
</svg>
